<?xml version="1.0" encoding="UTF-8" standalone="no"?><svg xmlns="http://www.w3.org/2000/svg" xmlns:xlink="http://www.w3.org/1999/xlink" contentScriptType="application/ecmascript" contentStyleType="text/css" height="856px" preserveAspectRatio="none" style="width:1863px;height:856px;background:#00000000;" version="1.1" viewBox="0 0 1863 856" width="1863px" zoomAndPan="magnify"><defs><filter height="300%" id="f1iol15nv5c53u" width="300%" x="-1" y="-1"><feGaussianBlur result="blurOut" stdDeviation="2.0"/><feColorMatrix in="blurOut" result="blurOut2" type="matrix" values="0 0 0 0 0 0 0 0 0 0 0 0 0 0 0 0 0 0 .4 0"/><feOffset dx="4.0" dy="4.0" in="blurOut2" result="blurOut3"/><feBlend in="SourceGraphic" in2="blurOut3" mode="normal"/></filter></defs><g><!--MD5=[8eb0b4a53948eeff94f1831843950cca]
cluster Layer 1: Entry Point--><rect fill="#E3F2FD" filter="url(#f1iol15nv5c53u)" height="109.2" style="stroke:#000000;stroke-width:1.5;" width="142" x="1276" y="7"/><text fill="#000000" font-family="Sarabun" font-size="14" font-style="italic" lengthAdjust="spacing" textLength="45" x="1324.5" y="23.952">«entry»</text><text fill="#000000" font-family="Sarabun" font-size="14" font-weight="bold" lengthAdjust="spacing" textLength="126" x="1284" y="42.152">Layer 1: Entry Point</text><!--MD5=[17420b9ccd472b42e7d64e769642f4d4]
cluster Layer 2: Controllers--><rect fill="#E1BEE7" filter="url(#f1iol15nv5c53u)" height="109.2" style="stroke:#000000;stroke-width:1.5;" width="331" x="1343" y="149.2"/><text fill="#000000" font-family="Sarabun" font-size="14" font-style="italic" lengthAdjust="spacing" textLength="75" x="1471" y="166.152">«controller»</text><text fill="#000000" font-family="Sarabun" font-size="14" font-weight="bold" lengthAdjust="spacing" textLength="127" x="1445" y="184.352">Layer 2: Controllers</text><!--MD5=[faa6a985210441f31e8635d55d12ea70]
cluster Layer 3: Display Managers--><rect fill="#E0F7FA" filter="url(#f1iol15nv5c53u)" height="109.2" style="stroke:#000000;stroke-width:1.5;" width="468" x="1369" y="291.4"/><text fill="#000000" font-family="Sarabun" font-size="14" font-style="italic" lengthAdjust="spacing" textLength="57" x="1574.5" y="308.352">«display»</text><text fill="#000000" font-family="Sarabun" font-size="14" font-weight="bold" lengthAdjust="spacing" textLength="163" x="1521.5" y="326.552">Layer 3: Display Managers</text><!--MD5=[67d33d8fbb42aeb8249854b3d30d3b60]
cluster Layer 3: Core Managers--><rect fill="#FFF3E0" filter="url(#f1iol15nv5c53u)" height="109.2" style="stroke:#000000;stroke-width:1.5;" width="482" x="1369" y="450.6"/><text fill="#000000" font-family="Sarabun" font-size="14" font-style="italic" lengthAdjust="spacing" textLength="41" x="1589.5" y="467.552">«core»</text><text fill="#000000" font-family="Sarabun" font-size="14" font-weight="bold" lengthAdjust="spacing" textLength="149" x="1535.5" y="485.752">Layer 3: Core Managers</text><!--MD5=[fe9150dec71669d97f46cdf051ab416f]
cluster Layer 3: UI Managers--><rect fill="#E8F5E9" filter="url(#f1iol15nv5c53u)" height="268.4" style="stroke:#000000;stroke-width:1.5;" width="1086" x="259" y="291.4"/><text fill="#000000" font-family="Sarabun" font-size="14" font-style="italic" lengthAdjust="spacing" textLength="25" x="789.5" y="308.352">«ui»</text><text fill="#000000" font-family="Sarabun" font-size="14" font-weight="bold" lengthAdjust="spacing" textLength="132" x="736" y="326.552">Layer 3: UI Managers</text><!--MD5=[6fb68d6dba5a186f931e730fd8683cee]
cluster Layer 4: Utilities--><rect fill="#F3E5F5" filter="url(#f1iol15nv5c53u)" height="109.2" style="stroke:#000000;stroke-width:1.5;" width="569" x="7" y="592.8"/><text fill="#000000" font-family="Sarabun" font-size="14" font-style="italic" lengthAdjust="spacing" textLength="48" x="267.5" y="609.752">«utility»</text><text fill="#000000" font-family="Sarabun" font-size="14" font-weight="bold" lengthAdjust="spacing" textLength="105" x="239" y="627.952">Layer 4: Utilities</text><!--MD5=[1744e1fcaca07fad4013df6e5a4d34ad]
cluster Layer 4: Landing Page--><rect fill="#F3E5F5" filter="url(#f1iol15nv5c53u)" height="109.2" style="stroke:#000000;stroke-width:1.5;" width="155" x="418" y="735"/><text fill="#000000" font-family="Sarabun" font-size="14" font-style="italic" lengthAdjust="spacing" textLength="48" x="471.5" y="751.952">«utility»</text><text fill="#000000" font-family="Sarabun" font-size="14" font-weight="bold" lengthAdjust="spacing" textLength="139" x="426" y="770.152">Layer 4: Landing Page</text><!--MD5=[8725f40aaed825a0aea1b37f2e1deaab]
cluster Layer 5: External APIs--><rect fill="#FFEBEE" filter="url(#f1iol15nv5c53u)" height="109.2" style="stroke:#000000;stroke-width:1.5;" width="585" x="597" y="735"/><text fill="#000000" font-family="Sarabun" font-size="14" font-style="italic" lengthAdjust="spacing" textLength="64" x="857.5" y="751.952">«external»</text><text fill="#000000" font-family="Sarabun" font-size="14" font-weight="bold" lengthAdjust="spacing" textLength="139" x="820" y="770.152">Layer 5: External APIs</text><!--MD5=[d2c3bb4e3bf44be22fe413c310a84ccc]
entity Script--><rect fill="#FEFECE" filter="url(#f1iol15nv5c53u)" height="38.2" style="stroke:#000000;stroke-width:1.5;" width="67" x="1313.5" y="62"/><text fill="#000000" font-family="Sarabun" font-size="14" lengthAdjust="spacing" textLength="47" x="1323.5" y="86.952">script.js</text><!--MD5=[0be722fa590d9fef4a915e3e5e2e778f]
entity DisplayCtrl--><rect fill="#FEFECE" filter="url(#f1iol15nv5c53u)" height="38.2" style="stroke:#000000;stroke-width:1.5;" width="125" x="1533.5" y="204.2"/><text fill="#000000" font-family="Sarabun" font-size="14" lengthAdjust="spacing" textLength="105" x="1543.5" y="229.152">DisplayController</text><!--MD5=[4000c3a29c8f2ba618e1bf7c6fc9adda]
entity KeyboardCtrl--><rect fill="#FEFECE" filter="url(#f1iol15nv5c53u)" height="38.2" style="stroke:#000000;stroke-width:1.5;" width="139" x="1359.5" y="204.2"/><text fill="#000000" font-family="Sarabun" font-size="14" lengthAdjust="spacing" textLength="119" x="1369.5" y="229.152">KeyboardController</text><!--MD5=[8119ed2a79c4fe48d4f1d5e003961a3b]
entity Drawing--><rect fill="#FEFECE" filter="url(#f1iol15nv5c53u)" height="38.2" style="stroke:#000000;stroke-width:1.5;" width="122" x="1385" y="346.4"/><text fill="#000000" font-family="Sarabun" font-size="14" lengthAdjust="spacing" textLength="102" x="1395" y="371.352">DrawingManager</text><!--MD5=[020180a62a6ba8fbfa28c81325ba8aae]
entity Ghost--><rect fill="#FEFECE" filter="url(#f1iol15nv5c53u)" height="38.2" style="stroke:#000000;stroke-width:1.5;" width="109" x="1541.5" y="346.4"/><text fill="#000000" font-family="Sarabun" font-size="14" lengthAdjust="spacing" textLength="89" x="1551.5" y="371.352">GhostManager</text><!--MD5=[fdfb3ea4b2850b6d48e0f08e8304eacf]
entity Silhouette--><rect fill="#FEFECE" filter="url(#f1iol15nv5c53u)" height="38.2" style="stroke:#000000;stroke-width:1.5;" width="135" x="1685.5" y="346.4"/><text fill="#000000" font-family="Sarabun" font-size="14" lengthAdjust="spacing" textLength="115" x="1695.5" y="371.352">SilhouetteManager</text><!--MD5=[ed4857f8eaf740408a3e23246f050753]
entity Heuristics--><rect fill="#FEFECE" filter="url(#f1iol15nv5c53u)" height="38.2" style="stroke:#000000;stroke-width:1.5;" width="121" x="1385.5" y="505.6"/><text fill="#000000" font-family="Sarabun" font-size="14" lengthAdjust="spacing" textLength="101" x="1395.5" y="530.552">HeuristicsEngine</text><!--MD5=[ab4d02a5ae885086a6874c8053cbe896]
entity Calibration--><rect fill="#FEFECE" filter="url(#f1iol15nv5c53u)" height="38.2" style="stroke:#000000;stroke-width:1.5;" width="139" x="1541.5" y="505.6"/><text fill="#000000" font-family="Sarabun" font-size="14" lengthAdjust="spacing" textLength="119" x="1551.5" y="530.552">CalibrationManager</text><!--MD5=[0e8aaa35e1d7378bac8692a5c3e9af2f]
entity Scoring--><rect fill="#FEFECE" filter="url(#f1iol15nv5c53u)" height="38.2" style="stroke:#000000;stroke-width:1.5;" width="119" x="1715.5" y="505.6"/><text fill="#000000" font-family="Sarabun" font-size="14" lengthAdjust="spacing" textLength="99" x="1725.5" y="530.552">ScoringManager</text><!--MD5=[c42ed81cef7fdd2e33758127945b9a5b]
entity UI--><rect fill="#FEFECE" filter="url(#f1iol15nv5c53u)" height="38.2" style="stroke:#000000;stroke-width:1.5;" width="86" x="284" y="505.6"/><text fill="#000000" font-family="Sarabun" font-size="14" lengthAdjust="spacing" textLength="66" x="294" y="530.552">UIManager</text><!--MD5=[9bf38e2b6fa784581ad2b7a500786e52]
entity Audio--><rect fill="#FEFECE" filter="url(#f1iol15nv5c53u)" height="38.2" style="stroke:#000000;stroke-width:1.5;" width="108" x="780" y="346.4"/><text fill="#000000" font-family="Sarabun" font-size="14" lengthAdjust="spacing" textLength="88" x="790" y="371.352">AudioManager</text><!--MD5=[0e98fb2cf4384dd54966e0f70c39677c]
entity Gesture--><rect fill="#FEFECE" filter="url(#f1iol15nv5c53u)" height="38.2" style="stroke:#000000;stroke-width:1.5;" width="120" x="625" y="346.4"/><text fill="#000000" font-family="Sarabun" font-size="14" lengthAdjust="spacing" textLength="100" x="635" y="371.352">GestureManager</text><!--MD5=[13b78e0465d0724dd360060cf842e6a1]
entity ScorePopup--><rect fill="#FEFECE" filter="url(#f1iol15nv5c53u)" height="38.2" style="stroke:#000000;stroke-width:1.5;" width="147" x="442.5" y="346.4"/><text fill="#000000" font-family="Sarabun" font-size="14" lengthAdjust="spacing" textLength="127" x="452.5" y="371.352">ScorePopupManager</text><!--MD5=[0a26018977a3ae7642c71cc487128584]
entity Tutorial--><rect fill="#FEFECE" filter="url(#f1iol15nv5c53u)" height="38.2" style="stroke:#000000;stroke-width:1.5;" width="121" x="923.5" y="346.4"/><text fill="#000000" font-family="Sarabun" font-size="14" lengthAdjust="spacing" textLength="101" x="933.5" y="371.352">TutorialManager</text><!--MD5=[be414fe22c77bcc5aeb04e611aaa28ac]
entity RulesConfig--><rect fill="#FEFECE" filter="url(#f1iol15nv5c53u)" height="38.2" style="stroke:#000000;stroke-width:1.5;" width="146" x="1183" y="346.4"/><text fill="#000000" font-family="Sarabun" font-size="14" lengthAdjust="spacing" textLength="126" x="1193" y="371.352">RulesConfigManager</text><!--MD5=[6c1038c56275e06a0f9aecf03cf54920]
entity Chatbot--><rect fill="#FEFECE" filter="url(#f1iol15nv5c53u)" height="38.2" style="stroke:#000000;stroke-width:1.5;" width="69" x="1079.5" y="346.4"/><text fill="#000000" font-family="Sarabun" font-size="14" lengthAdjust="spacing" textLength="49" x="1089.5" y="371.352">Chatbot</text><!--MD5=[d1565773b0cf8f2d27eb366b6f473ba2]
entity Feedback--><rect fill="#FEFECE" filter="url(#f1iol15nv5c53u)" height="38.2" style="stroke:#000000;stroke-width:1.5;" width="132" x="275" y="346.4"/><text fill="#000000" font-family="Sarabun" font-size="14" lengthAdjust="spacing" textLength="112" x="285" y="371.352">FeedbackManager</text><!--MD5=[edcdcc4a1bbe04bafa0ded76de3de705]
entity Exporter--><rect fill="#FEFECE" filter="url(#f1iol15nv5c53u)" height="38.2" style="stroke:#000000;stroke-width:1.5;" width="100" x="460" y="647.8"/><text fill="#000000" font-family="Sarabun" font-size="14" lengthAdjust="spacing" textLength="80" x="470" y="672.752">DataExporter</text><!--MD5=[b6715f68abc5ceb99b5a1d5d1c8cd4fd]
entity PathGen--><rect fill="#FEFECE" filter="url(#f1iol15nv5c53u)" height="38.2" style="stroke:#000000;stroke-width:1.5;" width="109" x="23.5" y="647.8"/><text fill="#000000" font-family="Sarabun" font-size="14" lengthAdjust="spacing" textLength="89" x="33.5" y="672.752">PathGenerator</text><!--MD5=[ec12e68d482471526d41adfe4cff0e6f]
entity Session--><rect fill="#FEFECE" filter="url(#f1iol15nv5c53u)" height="38.2" style="stroke:#000000;stroke-width:1.5;" width="118" x="168" y="647.8"/><text fill="#000000" font-family="Sarabun" font-size="14" lengthAdjust="spacing" textLength="98" x="178" y="672.752">SessionManager</text><!--MD5=[a15921272b0ba6be1c0e0fbbb47c631e]
entity Translations--><rect fill="#FEFECE" filter="url(#f1iol15nv5c53u)" height="38.2" style="stroke:#000000;stroke-width:1.5;" width="105" x="320.5" y="647.8"/><text fill="#000000" font-family="Sarabun" font-size="14" lengthAdjust="spacing" textLength="85" x="330.5" y="672.752">translations.js</text><!--MD5=[628c2e449127a12df8cb9b0eddf59bc8]
entity SilkAnim--><rect fill="#FEFECE" filter="url(#f1iol15nv5c53u)" height="38.2" style="stroke:#000000;stroke-width:1.5;" width="119" x="437.5" y="790"/><text fill="#000000" font-family="Sarabun" font-size="14" lengthAdjust="spacing" textLength="99" x="447.5" y="814.952">silk-animation.js</text><!--MD5=[e86360a2a0b2b59313154159dd50eceb]
entity MPPose--><rect fill="#FEFECE" filter="url(#f1iol15nv5c53u)" height="38.2" style="stroke:#000000;stroke-width:1.5;" width="114" x="780" y="790"/><text fill="#000000" font-family="Sarabun" font-size="14" lengthAdjust="spacing" textLength="94" x="790" y="814.952">MediaPipe Pose</text><!--MD5=[26fe4ee09733cd8b05f5dc198f526905]
entity MPGesture--><rect fill="#FEFECE" filter="url(#f1iol15nv5c53u)" height="38.2" style="stroke:#000000;stroke-width:1.5;" width="132" x="613" y="790"/><text fill="#000000" font-family="Sarabun" font-size="14" lengthAdjust="spacing" textLength="112" x="623" y="814.952">MediaPipe Gesture</text><!--MD5=[8ce744e8092058499958f6e5d5e77a38]
entity WebSpeech--><rect fill="#FEFECE" filter="url(#f1iol15nv5c53u)" height="38.2" style="stroke:#000000;stroke-width:1.5;" width="117" x="928.5" y="790"/><text fill="#000000" font-family="Sarabun" font-size="14" lengthAdjust="spacing" textLength="97" x="938.5" y="814.952">Web Speech API</text><!--MD5=[7a37ba3f7713e16f7df05a1c781e9ab7]
entity Gemini--><rect fill="#FEFECE" filter="url(#f1iol15nv5c53u)" height="38.2" style="stroke:#000000;stroke-width:1.5;" width="85" x="1080.5" y="790"/><text fill="#000000" font-family="Sarabun" font-size="14" lengthAdjust="spacing" textLength="65" x="1090.5" y="814.952">Gemini API</text><!--MD5=[d7191039cd95b8ea4db27fbf880548bd]
link Script to DisplayCtrl--><!--MD5=[d7191039cd95b8ea4db27fbf880548bd]
link Script to DisplayCtrl--><path d="M1380.9,81.2 C1453.37,81.2 1616.83,81.2 1616.83,81.2 C1616.83,81.2 1616.83,197.33 1616.83,197.33 " fill="none" id="Script-to-DisplayCtrl-1" style="stroke:#A80036;stroke-width:1.0;"/><polygon fill="#A80036" points="1616.83,202.33,1620.83,193.33,1616.83,197.33,1612.83,193.33,1616.83,202.33" style="stroke:#A80036;stroke-width:1.0;"/><!--MD5=[c9a440a07df6d8afe68b766667da87e5]
link DisplayCtrl to Heuristics--><!--MD5=[9831459d3839155dba8b8d1e08131e80]
link Heuristics to Exporter--><!--MD5=[1ea94a2473a910935b75aa95410ced4a]
link Exporter to MPPose--><!--MD5=[fc48254c2482732163a86460378c06ca]
link Drawing to Heuristics--><!--MD5=[3438851c9f5f82abe281bc48da691428]
link Heuristics to UI--><!--MD5=[3e852802c00d1f6eeb0b2a710b5eeae3]
link Exporter to SilkAnim--><!--MD5=[f5286bfc4d8bea6d8683c4958ed8dafe]
link Script to KeyboardCtrl--><path d="M1370,100.57 C1370,100.57 1370,197.55 1370,197.55 " fill="none" id="Script-to-KeyboardCtrl" style="stroke:#A80036;stroke-width:1.0;"/><polygon fill="#A80036" points="1370,202.55,1374,193.55,1370,197.55,1366,193.55,1370,202.55" style="stroke:#A80036;stroke-width:1.0;"/><!--MD5=[e1545ed3ba3b07e3012e7d25c9fa60bc]
link Script to Heuristics--><path d="M1347.3,100.64 C1347.3,185.3 1347.3,516.2 1347.3,516.2 C1347.3,516.2 1378.66,516.2 1378.66,516.2 " fill="none" id="Script-to-Heuristics" style="stroke:#A80036;stroke-width:1.0;"/><polygon fill="#A80036" points="1383.66,516.2,1374.66,512.2,1378.66,516.2,1374.66,520.2,1383.66,516.2" style="stroke:#A80036;stroke-width:1.0;"/><!--MD5=[5ee62b36886971867acfe45d13844bfd]
link Script to Calibration--><path d="M1380.9,75.2 C1463.7,75.2 1669.5,75.2 1669.5,75.2 C1669.5,75.2 1669.5,498.87 1669.5,498.87 " fill="none" id="Script-to-Calibration" style="stroke:#A80036;stroke-width:1.0;"/><polygon fill="#A80036" points="1669.5,503.87,1673.5,494.87,1669.5,498.87,1665.5,494.87,1669.5,503.87" style="stroke:#A80036;stroke-width:1.0;"/><!--MD5=[b8232004eeb18c477ad3e7d11fd376b9]
link Script to Scoring--><path d="M1380.79,68.2 C1490.16,68.2 1827.5,68.2 1827.5,68.2 C1827.5,68.2 1827.5,498.86 1827.5,498.86 " fill="none" id="Script-to-Scoring" style="stroke:#A80036;stroke-width:1.0;"/><polygon fill="#A80036" points="1827.5,503.86,1831.5,494.86,1827.5,498.86,1823.5,494.86,1827.5,503.86" style="stroke:#A80036;stroke-width:1.0;"/><!--MD5=[72f9911a158d5fd6eaca15a30ba5ca85]
link Script to Drawing--><path d="M1353.4,100.63 C1353.4,164.81 1353.4,365.2 1353.4,365.2 C1353.4,365.2 1378.24,365.2 1378.24,365.2 " fill="none" id="Script-to-Drawing" style="stroke:#A80036;stroke-width:1.0;"/><polygon fill="#A80036" points="1383.24,365.2,1374.24,361.2,1378.24,365.2,1374.24,369.2,1383.24,365.2" style="stroke:#A80036;stroke-width:1.0;"/><!--MD5=[5c0354e057ac8abaa96212d5bbec1386]
link Script to Ghost--><path d="M1380.82,94.2 C1431.23,94.2 1520.25,94.2 1520.25,94.2 C1520.25,94.2 1520.25,365.2 1520.25,365.2 C1520.25,365.2 1534.84,365.2 1534.84,365.2 " fill="none" id="Script-to-Ghost" style="stroke:#A80036;stroke-width:1.0;"/><polygon fill="#A80036" points="1539.84,365.2,1530.84,361.2,1534.84,365.2,1530.84,369.2,1539.84,365.2" style="stroke:#A80036;stroke-width:1.0;"/><!--MD5=[211f02de95125c81c4e438896e784718]
link Script to UI--><path d="M1335.1,100.7 C1335.1,184.84 1335.1,511.2 1335.1,511.2 C1335.1,511.2 376.83,511.2 376.83,511.2 " fill="none" id="Script-to-UI" style="stroke:#A80036;stroke-width:1.0;"/><polygon fill="#A80036" points="371.83,511.2,380.83,515.2,376.83,511.2,380.83,507.2,371.83,511.2" style="stroke:#A80036;stroke-width:1.0;"/><!--MD5=[9fd97801d6b83f1f673f048a48616888]
link Script to Audio--><path d="M1313.34,92.2 C1199.21,92.2 834,92.2 834,92.2 C834,92.2 834,339.77 834,339.77 " fill="none" id="Script-to-Audio" style="stroke:#A80036;stroke-width:1.0;"/><polygon fill="#A80036" points="834,344.77,838,335.77,834,339.77,830,335.77,834,344.77" style="stroke:#A80036;stroke-width:1.0;"/><!--MD5=[9b79967d345ce9c26470d70a33d07e87]
link Script to Gesture--><path d="M1313.26,85.2 C1178.36,85.2 685,85.2 685,85.2 C685,85.2 685,339.72 685,339.72 " fill="none" id="Script-to-Gesture" style="stroke:#A80036;stroke-width:1.0;"/><polygon fill="#A80036" points="685,344.72,689,335.72,685,339.72,681,335.72,685,344.72" style="stroke:#A80036;stroke-width:1.0;"/><!--MD5=[1ccc242dbb115e28c3cb596311903a95]
link DisplayCtrl to Ghost--><path d="M1596,242.77 C1596,242.77 1596,339.75 1596,339.75 " fill="none" id="DisplayCtrl-to-Ghost" style="stroke:#A80036;stroke-width:1.0;"/><polygon fill="#A80036" points="1596,344.75,1600,335.75,1596,339.75,1592,335.75,1596,344.75" style="stroke:#A80036;stroke-width:1.0;"/><!--MD5=[cfa6aa791019d3813d884cd587b77070]
link DisplayCtrl to Silhouette--><path d="M1654.5,242.73 C1654.5,281.6 1654.5,365.2 1654.5,365.2 C1654.5,365.2 1678.61,365.2 1678.61,365.2 " fill="none" id="DisplayCtrl-to-Silhouette" style="stroke:#A80036;stroke-width:1.0;"/><polygon fill="#A80036" points="1683.61,365.2,1674.61,361.2,1678.61,365.2,1674.61,369.2,1683.61,365.2" style="stroke:#A80036;stroke-width:1.0;"/><!--MD5=[935beb6320473c26f2ff6fb0ff99c9eb]
link KeyboardCtrl to Tutorial--><path d="M1359.47,223.2 C1234.31,223.2 984,223.2 984,223.2 C984,223.2 984,339.5 984,339.5 " fill="none" id="KeyboardCtrl-to-Tutorial" style="stroke:#A80036;stroke-width:1.0;"/><polygon fill="#A80036" points="984,344.5,988,335.5,984,339.5,980,335.5,984,344.5" style="stroke:#A80036;stroke-width:1.0;"/><!--MD5=[ccb1a771420d4e1e6765246ebaf27923]
link RulesConfig to Heuristics--><path d="M1256,385.03 C1256,427.04 1256,522.2 1256,522.2 C1256,522.2 1378.59,522.2 1378.59,522.2 " fill="none" id="RulesConfig-to-Heuristics" style="stroke:#A80036;stroke-width:1.0;"/><polygon fill="#A80036" points="1383.59,522.2,1374.59,518.2,1378.59,522.2,1374.59,526.2,1383.59,522.2" style="stroke:#A80036;stroke-width:1.0;"/><!--MD5=[5b73fa4b65b01648447be545ceee584c]
link UI to Translations--><path d="M345.25,544.17 C345.25,544.17 345.25,641.15 345.25,641.15 " fill="none" id="UI-to-Translations" style="stroke:#A80036;stroke-width:1.0;"/><polygon fill="#A80036" points="345.25,646.15,349.25,637.15,345.25,641.15,341.25,637.15,345.25,646.15" style="stroke:#A80036;stroke-width:1.0;"/><!--MD5=[62303a5bc9366d96e550fb5983d6b968]
link Feedback to UI--><path d="M327,385.02 C327,385.02 327,499 327,499 " fill="none" id="Feedback-to-UI" style="stroke:#A80036;stroke-width:1.0;"/><polygon fill="#A80036" points="327,504,331,495,327,499,323,495,327,504" style="stroke:#A80036;stroke-width:1.0;"/><text fill="#000000" font-family="Sarabun" font-size="13" lengthAdjust="spacing" textLength="123" x="311" y="431.484">Reads State (Window)</text><!--MD5=[4d4b06ca09e931edeaae5d322dbbd455]
link Feedback to Translations--><path d="M388.5,384.81 C388.5,384.81 388.5,640.84 388.5,640.84 " fill="none" id="Feedback-to-Translations" style="stroke:#A80036;stroke-width:1.0;"/><polygon fill="#A80036" points="388.5,645.84,392.5,636.84,388.5,640.84,384.5,636.84,388.5,645.84" style="stroke:#A80036;stroke-width:1.0;"/><!--MD5=[ed021e1999beb45e9c028e8ee97c3fa2]
link ScorePopup to Translations--><path d="M451.25,384.83 C451.25,451.42 451.25,667.2 451.25,667.2 C451.25,667.2 432.14,667.2 432.14,667.2 " fill="none" id="ScorePopup-to-Translations" style="stroke:#A80036;stroke-width:1.0;"/><polygon fill="#A80036" points="427.14,667.2,436.14,671.2,432.14,667.2,436.14,663.2,427.14,667.2" style="stroke:#A80036;stroke-width:1.0;"/><!--MD5=[946961918582c617df6d290e0c1a01ba]
link Heuristics to MPPose--><path d="M1385.22,538.2 C1233.83,538.2 852,538.2 852,538.2 C852,538.2 852,783.1 852,783.1 " fill="none" id="Heuristics-to-MPPose" style="stroke:#A80036;stroke-width:1.0;"/><polygon fill="#A80036" points="852,788.1,856,779.1,852,783.1,848,779.1,852,788.1" style="stroke:#A80036;stroke-width:1.0;"/><!--MD5=[36278df54b849fb29fb533014afc69dc]
link Gesture to MPGesture--><path d="M685,384.85 C685,384.85 685,783.14 685,783.14 " fill="none" id="Gesture-to-MPGesture" style="stroke:#A80036;stroke-width:1.0;"/><polygon fill="#A80036" points="685,788.14,689,779.14,685,783.14,681,779.14,685,788.14" style="stroke:#A80036;stroke-width:1.0;"/><!--MD5=[5d2968167655c2a7f41e07f4dbeeaf82]
link Audio to WebSpeech--><path d="M888.32,365.2 C899.92,365.2 908.75,365.2 908.75,365.2 C908.75,365.2 908.75,809.2 908.75,809.2 C908.75,809.2 921.58,809.2 921.58,809.2 " fill="none" id="Audio-to-WebSpeech" style="stroke:#A80036;stroke-width:1.0;"/><polygon fill="#A80036" points="926.58,809.2,917.58,805.2,921.58,809.2,917.58,813.2,926.58,809.2" style="stroke:#A80036;stroke-width:1.0;"/><!--MD5=[fa2bf33665ed016c01ebce86b27bf280]
link Chatbot to Gemini--><path d="M1114.5,384.85 C1114.5,384.85 1114.5,783.14 1114.5,783.14 " fill="none" id="Chatbot-to-Gemini" style="stroke:#A80036;stroke-width:1.0;"/><polygon fill="#A80036" points="1114.5,788.14,1118.5,779.14,1114.5,783.14,1110.5,779.14,1114.5,788.14" style="stroke:#A80036;stroke-width:1.0;"/><!--MD5=[e423245bf529dda2ca0d392dbadbe4d7]
link Script to Exporter--><path d="M1341.2,100.7 C1341.2,201.86 1341.2,660.2 1341.2,660.2 C1341.2,660.2 566.95,660.2 566.95,660.2 " fill="none" id="Script-to-Exporter" style="stroke:#A80036;stroke-width:1.0;stroke-dasharray:7.0,7.0;"/><polygon fill="#A80036" points="561.95,660.2,570.95,664.2,566.95,660.2,570.95,656.2,561.95,660.2" style="stroke:#A80036;stroke-width:1.0;"/><!--MD5=[05b4aa5e4a30750a603c2dd2ad4a0c96]
link Script to PathGen--><path d="M1313.06,69.2 C1111.25,69.2 78,69.2 78,69.2 C78,69.2 78,640.84 78,640.84 " fill="none" id="Script-to-PathGen" style="stroke:#A80036;stroke-width:1.0;stroke-dasharray:7.0,7.0;"/><polygon fill="#A80036" points="78,645.84,82,636.84,78,640.84,74,636.84,78,645.84" style="stroke:#A80036;stroke-width:1.0;"/><!--MD5=[d496892f9e6690f6ee7590dbb1fb8031]
link Script to Session--><path d="M1313.01,77.2 C1125.06,77.2 221.5,77.2 221.5,77.2 C221.5,77.2 221.5,641.1 221.5,641.1 " fill="none" id="Script-to-Session" style="stroke:#A80036;stroke-width:1.0;stroke-dasharray:7.0,7.0;"/><polygon fill="#A80036" points="221.5,646.1,225.5,637.1,221.5,641.1,217.5,637.1,221.5,646.1" style="stroke:#A80036;stroke-width:1.0;"/><!--MD5=[ddfe67de84292f469fd08f8c7a97257a]
@startuml ModuleDependencies
' ============================================================================
' TaijiFlow AI - Module Dependencies Diagram (Top-Down Layers)
' ============================================================================
' แสดงความสัมพันธ์ระหว่าง 22 Modules แบ่งเป็น 5 ชั้น
' อัปเดต: 2026-01-12 (Refined Layout)
' ============================================================================

skinparam defaultFontName "Sarabun"
skinparam backgroundColor transparent
skinparam componentStyle rectangle
skinparam packageStyle rectangle
skinparam linetype ortho
skinparam nodesep 0.8
skinparam ranksep 1.0

' === Direction ===
top to bottom direction

' === Colors ===
skinparam package {
    BackgroundColor<<entry>> #E3F2FD
    BackgroundColor<<core>> #FFF3E0
    BackgroundColor<<display>> #E0F7FA
    BackgroundColor<<ui>> #E8F5E9
    BackgroundColor<<controller>> #E1BEE7
    BackgroundColor<<utility>> #F3E5F5
    BackgroundColor<<external>> #FFEBEE
}

' ============================================================================
' LAYER 1: ENTRY POINT
' ============================================================================

package "Layer 1: Entry Point" <<entry>> {
    [script.js] as Script
}

' ============================================================================
' LAYER 2: CONTROLLERS
' ============================================================================

package "Layer 2: Controllers" <<controller>> {
    [DisplayController] as DisplayCtrl
    [KeyboardController] as KeyboardCtrl
}

' ============================================================================
' LAYER 3: MANAGERS (Core + Display + UI)
' ============================================================================

package "Layer 3: Display Managers" <<display>> {
    [DrawingManager] as Drawing
    [GhostManager] as Ghost
    [SilhouetteManager] as Silhouette
}

package "Layer 3: Core Managers" <<core>> {
    [HeuristicsEngine] as Heuristics
    [CalibrationManager] as Calibration
    [ScoringManager] as Scoring
}

package "Layer 3: UI Managers" <<ui>> {
    [UIManager] as UI
    [AudioManager] as Audio
    [GestureManager] as Gesture
    [ScorePopupManager] as ScorePopup
    [TutorialManager] as Tutorial
    [RulesConfigManager] as RulesConfig
    [Chatbot] as Chatbot
    [FeedbackManager] as Feedback
}

' ============================================================================
' LAYER 4: UTILITIES
' ============================================================================

package "Layer 4: Utilities" <<utility>> {
    [DataExporter] as Exporter
    [PathGenerator] as PathGen
    [SessionManager] as Session
    [translations.js] as Translations
}

package "Layer 4: Landing Page" <<utility>> {
    [silk-animation.js] as SilkAnim
}

' ============================================================================
' LAYER 5: EXTERNAL APIs
' ============================================================================

package "Layer 5: External APIs" <<external>> {
    [MediaPipe Pose] as MPPose
    [MediaPipe Gesture] as MPGesture
    [Web Speech API] as WebSpeech
    [Gemini API] as Gemini
}

' ============================================================================
' LAYOUT HELPER (Hidden Links for Sequencing)
' ============================================================================
' Force vertical ordering
Script -[hidden]-> DisplayCtrl
DisplayCtrl -[hidden]-> Heuristics
Heuristics -[hidden]-> Exporter
Exporter -[hidden]-> MPPose

' Force horizontal alignment for Layer 3 (Display - Core - UI)
Drawing -[hidden]- Heuristics
Heuristics -[hidden]- UI

' Force horizontal alignment for Layer 4
Exporter -[hidden]- SilkAnim

' ============================================================================
' RELATIONSHIPS (Main flows)
' ============================================================================

' Layer 1 → Layer 2
Script - -> DisplayCtrl
Script - -> KeyboardCtrl

' Layer 1 → Layer 3 (Core)
Script - -> Heuristics
Script - -> Calibration
Script - -> Scoring

' Layer 1 → Layer 3 (Display)
Script - -> Drawing
Script - -> Ghost

' Layer 1 → Layer 3 (UI)
Script - -> UI
Script - -> Audio
Script - -> Gesture

' Layer 2 → Layer 3
DisplayCtrl - -> Ghost
DisplayCtrl - -> Silhouette
KeyboardCtrl - -> Tutorial

' Layer 3 Internal
RulesConfig - -> Heuristics
UI - -> Translations
Feedback - -> UI : Reads State (Window)
Feedback - -> Translations
ScorePopup - -> Translations

' Layer 3 → Layer 5 (External)
Heuristics - -> MPPose
Gesture - -> MPGesture
Audio - -> WebSpeech
Chatbot - -> Gemini

' Layer 1 → Layer 4 (Utilities)
Script ..> Exporter
Script ..> PathGen
Script ..> Session

@enduml

@startuml ModuleDependencies

skinparam defaultFontName "Sarabun"
skinparam backgroundColor transparent
skinparam componentStyle rectangle
skinparam packageStyle rectangle
skinparam linetype ortho
skinparam nodesep 0.8
skinparam ranksep 1.0

top to bottom direction

skinparam package {
    BackgroundColor<<entry>> #E3F2FD
    BackgroundColor<<core>> #FFF3E0
    BackgroundColor<<display>> #E0F7FA
    BackgroundColor<<ui>> #E8F5E9
    BackgroundColor<<controller>> #E1BEE7
    BackgroundColor<<utility>> #F3E5F5
    BackgroundColor<<external>> #FFEBEE
}


package "Layer 1: Entry Point" <<entry>> {
    [script.js] as Script
}


package "Layer 2: Controllers" <<controller>> {
    [DisplayController] as DisplayCtrl
    [KeyboardController] as KeyboardCtrl
}


package "Layer 3: Display Managers" <<display>> {
    [DrawingManager] as Drawing
    [GhostManager] as Ghost
    [SilhouetteManager] as Silhouette
}

package "Layer 3: Core Managers" <<core>> {
    [HeuristicsEngine] as Heuristics
    [CalibrationManager] as Calibration
    [ScoringManager] as Scoring
}

package "Layer 3: UI Managers" <<ui>> {
    [UIManager] as UI
    [AudioManager] as Audio
    [GestureManager] as Gesture
    [ScorePopupManager] as ScorePopup
    [TutorialManager] as Tutorial
    [RulesConfigManager] as RulesConfig
    [Chatbot] as Chatbot
    [FeedbackManager] as Feedback
}


package "Layer 4: Utilities" <<utility>> {
    [DataExporter] as Exporter
    [PathGenerator] as PathGen
    [SessionManager] as Session
    [translations.js] as Translations
}

package "Layer 4: Landing Page" <<utility>> {
    [silk-animation.js] as SilkAnim
}


package "Layer 5: External APIs" <<external>> {
    [MediaPipe Pose] as MPPose
    [MediaPipe Gesture] as MPGesture
    [Web Speech API] as WebSpeech
    [Gemini API] as Gemini
}

Script -[hidden]-> DisplayCtrl
DisplayCtrl -[hidden]-> Heuristics
Heuristics -[hidden]-> Exporter
Exporter -[hidden]-> MPPose

Drawing -[hidden]- Heuristics
Heuristics -[hidden]- UI

Exporter -[hidden]- SilkAnim


Script - -> DisplayCtrl
Script - -> KeyboardCtrl

Script - -> Heuristics
Script - -> Calibration
Script - -> Scoring

Script - -> Drawing
Script - -> Ghost

Script - -> UI
Script - -> Audio
Script - -> Gesture

DisplayCtrl - -> Ghost
DisplayCtrl - -> Silhouette
KeyboardCtrl - -> Tutorial

RulesConfig - -> Heuristics
UI - -> Translations
Feedback - -> UI : Reads State (Window)
Feedback - -> Translations
ScorePopup - -> Translations

Heuristics - -> MPPose
Gesture - -> MPGesture
Audio - -> WebSpeech
Chatbot - -> Gemini

Script ..> Exporter
Script ..> PathGen
Script ..> Session

@enduml

PlantUML version 1.2021.00(Sun Jan 10 17:25:05 ICT 2021)
(MIT source distribution)
Java Runtime: OpenJDK Runtime Environment
JVM: OpenJDK 64-Bit Server VM
Default Encoding: UTF-8
Language: en
Country: US
--></g></svg>