<?xml version="1.0" encoding="UTF-8" standalone="no"?><svg xmlns="http://www.w3.org/2000/svg" xmlns:xlink="http://www.w3.org/1999/xlink" contentScriptType="application/ecmascript" contentStyleType="text/css" height="661px" preserveAspectRatio="none" style="width:2224px;height:661px;background:#00000000;" version="1.1" viewBox="0 0 2224 661" width="2224px" zoomAndPan="magnify"><defs><filter height="300%" id="f6rq904xgpkx2" width="300%" x="-1" y="-1"><feGaussianBlur result="blurOut" stdDeviation="2.0"/><feColorMatrix in="blurOut" result="blurOut2" type="matrix" values="0 0 0 0 0 0 0 0 0 0 0 0 0 0 0 0 0 0 .4 0"/><feOffset dx="4.0" dy="4.0" in="blurOut2" result="blurOut3"/><feBlend in="SourceGraphic" in2="blurOut3" mode="normal"/></filter></defs><g><!--MD5=[8eb0b4a53948eeff94f1831843950cca]
cluster Layer 1: Entry Point--><rect fill="#E3F2FD" filter="url(#f6rq904xgpkx2)" height="109.2" style="stroke:#000000;stroke-width:1.5;" width="142" x="1373" y="7"/><text fill="#000000" font-family="Sarabun" font-size="14" font-style="italic" lengthAdjust="spacing" textLength="45" x="1421.5" y="23.952">«entry»</text><text fill="#000000" font-family="Sarabun" font-size="14" font-weight="bold" lengthAdjust="spacing" textLength="126" x="1381" y="42.152">Layer 1: Entry Point</text><!--MD5=[17420b9ccd472b42e7d64e769642f4d4]
cluster Layer 2: Controllers--><rect fill="#E1BEE7" filter="url(#f6rq904xgpkx2)" height="109.2" style="stroke:#000000;stroke-width:1.5;" width="331" x="970" y="140.2"/><text fill="#000000" font-family="Sarabun" font-size="14" font-style="italic" lengthAdjust="spacing" textLength="75" x="1098" y="157.152">«controller»</text><text fill="#000000" font-family="Sarabun" font-size="14" font-weight="bold" lengthAdjust="spacing" textLength="127" x="1072" y="175.352">Layer 2: Controllers</text><!--MD5=[faa6a985210441f31e8635d55d12ea70]
cluster Layer 3: Display Managers--><rect fill="#E0F7FA" filter="url(#f6rq904xgpkx2)" height="109.2" style="stroke:#000000;stroke-width:1.5;" width="468" x="7" y="273.4"/><text fill="#000000" font-family="Sarabun" font-size="14" font-style="italic" lengthAdjust="spacing" textLength="57" x="212.5" y="290.352">«display»</text><text fill="#000000" font-family="Sarabun" font-size="14" font-weight="bold" lengthAdjust="spacing" textLength="163" x="159.5" y="308.552">Layer 3: Display Managers</text><!--MD5=[67d33d8fbb42aeb8249854b3d30d3b60]
cluster Layer 3: Core Managers--><rect fill="#FFF3E0" filter="url(#f6rq904xgpkx2)" height="109.2" style="stroke:#000000;stroke-width:1.5;" width="482" x="1730" y="273.4"/><text fill="#000000" font-family="Sarabun" font-size="14" font-style="italic" lengthAdjust="spacing" textLength="41" x="1950.5" y="290.352">«core»</text><text fill="#000000" font-family="Sarabun" font-size="14" font-weight="bold" lengthAdjust="spacing" textLength="149" x="1896.5" y="308.552">Layer 3: Core Managers</text><!--MD5=[fe9150dec71669d97f46cdf051ab416f]
cluster Layer 3: UI Managers--><rect fill="#E8F5E9" filter="url(#f6rq904xgpkx2)" height="109.2" style="stroke:#000000;stroke-width:1.5;" width="1207" x="499" y="273.4"/><text fill="#000000" font-family="Sarabun" font-size="14" font-style="italic" lengthAdjust="spacing" textLength="25" x="1090" y="290.352">«ui»</text><text fill="#000000" font-family="Sarabun" font-size="14" font-weight="bold" lengthAdjust="spacing" textLength="132" x="1036.5" y="308.552">Layer 3: UI Managers</text><!--MD5=[6fb68d6dba5a186f931e730fd8683cee]
cluster Layer 4: Utilities--><rect fill="#F3E5F5" filter="url(#f6rq904xgpkx2)" height="109.2" style="stroke:#000000;stroke-width:1.5;" width="569" x="1622" y="406.6"/><text fill="#000000" font-family="Sarabun" font-size="14" font-style="italic" lengthAdjust="spacing" textLength="48" x="1882.5" y="423.552">«utility»</text><text fill="#000000" font-family="Sarabun" font-size="14" font-weight="bold" lengthAdjust="spacing" textLength="105" x="1854" y="441.752">Layer 4: Utilities</text><!--MD5=[1744e1fcaca07fad4013df6e5a4d34ad]
cluster Layer 4: Landing Page--><rect fill="#F3E5F5" filter="url(#f6rq904xgpkx2)" height="109.2" style="stroke:#000000;stroke-width:1.5;" width="155" x="1750" y="539.8"/><text fill="#000000" font-family="Sarabun" font-size="14" font-style="italic" lengthAdjust="spacing" textLength="48" x="1803.5" y="556.752">«utility»</text><text fill="#000000" font-family="Sarabun" font-size="14" font-weight="bold" lengthAdjust="spacing" textLength="139" x="1758" y="574.952">Layer 4: Landing Page</text><!--MD5=[8725f40aaed825a0aea1b37f2e1deaab]
cluster Layer 5: External APIs--><rect fill="#FFEBEE" filter="url(#f6rq904xgpkx2)" height="109.2" style="stroke:#000000;stroke-width:1.5;" width="585" x="807" y="539.8"/><text fill="#000000" font-family="Sarabun" font-size="14" font-style="italic" lengthAdjust="spacing" textLength="64" x="1067.5" y="556.752">«external»</text><text fill="#000000" font-family="Sarabun" font-size="14" font-weight="bold" lengthAdjust="spacing" textLength="139" x="1030" y="574.952">Layer 5: External APIs</text><!--MD5=[d2c3bb4e3bf44be22fe413c310a84ccc]
entity Script--><rect fill="#FEFECE" filter="url(#f6rq904xgpkx2)" height="38.2" style="stroke:#000000;stroke-width:1.5;" width="67" x="1410.5" y="62"/><text fill="#000000" font-family="Sarabun" font-size="14" lengthAdjust="spacing" textLength="47" x="1420.5" y="86.952">script.js</text><!--MD5=[0be722fa590d9fef4a915e3e5e2e778f]
entity DisplayCtrl--><rect fill="#FEFECE" filter="url(#f6rq904xgpkx2)" height="38.2" style="stroke:#000000;stroke-width:1.5;" width="125" x="985.5" y="195.2"/><text fill="#000000" font-family="Sarabun" font-size="14" lengthAdjust="spacing" textLength="105" x="995.5" y="220.152">DisplayController</text><!--MD5=[4000c3a29c8f2ba618e1bf7c6fc9adda]
entity KeyboardCtrl--><rect fill="#FEFECE" filter="url(#f6rq904xgpkx2)" height="38.2" style="stroke:#000000;stroke-width:1.5;" width="139" x="1145.5" y="195.2"/><text fill="#000000" font-family="Sarabun" font-size="14" lengthAdjust="spacing" textLength="119" x="1155.5" y="220.152">KeyboardController</text><!--MD5=[8119ed2a79c4fe48d4f1d5e003961a3b]
entity Drawing--><rect fill="#FEFECE" filter="url(#f6rq904xgpkx2)" height="38.2" style="stroke:#000000;stroke-width:1.5;" width="122" x="23" y="328.4"/><text fill="#000000" font-family="Sarabun" font-size="14" lengthAdjust="spacing" textLength="102" x="33" y="353.352">DrawingManager</text><!--MD5=[020180a62a6ba8fbfa28c81325ba8aae]
entity Ghost--><rect fill="#FEFECE" filter="url(#f6rq904xgpkx2)" height="38.2" style="stroke:#000000;stroke-width:1.5;" width="109" x="179.5" y="328.4"/><text fill="#000000" font-family="Sarabun" font-size="14" lengthAdjust="spacing" textLength="89" x="189.5" y="353.352">GhostManager</text><!--MD5=[fdfb3ea4b2850b6d48e0f08e8304eacf]
entity Silhouette--><rect fill="#FEFECE" filter="url(#f6rq904xgpkx2)" height="38.2" style="stroke:#000000;stroke-width:1.5;" width="135" x="323.5" y="328.4"/><text fill="#000000" font-family="Sarabun" font-size="14" lengthAdjust="spacing" textLength="115" x="333.5" y="353.352">SilhouetteManager</text><!--MD5=[ed4857f8eaf740408a3e23246f050753]
entity Heuristics--><rect fill="#FEFECE" filter="url(#f6rq904xgpkx2)" height="38.2" style="stroke:#000000;stroke-width:1.5;" width="121" x="1746.5" y="328.4"/><text fill="#000000" font-family="Sarabun" font-size="14" lengthAdjust="spacing" textLength="101" x="1756.5" y="353.352">HeuristicsEngine</text><!--MD5=[ab4d02a5ae885086a6874c8053cbe896]
entity Calibration--><rect fill="#FEFECE" filter="url(#f6rq904xgpkx2)" height="38.2" style="stroke:#000000;stroke-width:1.5;" width="139" x="1902.5" y="328.4"/><text fill="#000000" font-family="Sarabun" font-size="14" lengthAdjust="spacing" textLength="119" x="1912.5" y="353.352">CalibrationManager</text><!--MD5=[0e8aaa35e1d7378bac8692a5c3e9af2f]
entity Scoring--><rect fill="#FEFECE" filter="url(#f6rq904xgpkx2)" height="38.2" style="stroke:#000000;stroke-width:1.5;" width="119" x="2076.5" y="328.4"/><text fill="#000000" font-family="Sarabun" font-size="14" lengthAdjust="spacing" textLength="99" x="2086.5" y="353.352">ScoringManager</text><!--MD5=[c42ed81cef7fdd2e33758127945b9a5b]
entity UI--><rect fill="#FEFECE" filter="url(#f6rq904xgpkx2)" height="38.2" style="stroke:#000000;stroke-width:1.5;" width="86" x="1437" y="328.4"/><text fill="#000000" font-family="Sarabun" font-size="14" lengthAdjust="spacing" textLength="66" x="1447" y="353.352">UIManager</text><!--MD5=[9bf38e2b6fa784581ad2b7a500786e52]
entity Audio--><rect fill="#FEFECE" filter="url(#f6rq904xgpkx2)" height="38.2" style="stroke:#000000;stroke-width:1.5;" width="108" x="775" y="328.4"/><text fill="#000000" font-family="Sarabun" font-size="14" lengthAdjust="spacing" textLength="88" x="785" y="353.352">AudioManager</text><!--MD5=[0e98fb2cf4384dd54966e0f70c39677c]
entity Gesture--><rect fill="#FEFECE" filter="url(#f6rq904xgpkx2)" height="38.2" style="stroke:#000000;stroke-width:1.5;" width="120" x="1101" y="328.4"/><text fill="#000000" font-family="Sarabun" font-size="14" lengthAdjust="spacing" textLength="100" x="1111" y="353.352">GestureManager</text><!--MD5=[13b78e0465d0724dd360060cf842e6a1]
entity ScorePopup--><rect fill="#FEFECE" filter="url(#f6rq904xgpkx2)" height="38.2" style="stroke:#000000;stroke-width:1.5;" width="147" x="918.5" y="328.4"/><text fill="#000000" font-family="Sarabun" font-size="14" lengthAdjust="spacing" textLength="127" x="928.5" y="353.352">ScorePopupManager</text><!--MD5=[0a26018977a3ae7642c71cc487128584]
entity Tutorial--><rect fill="#FEFECE" filter="url(#f6rq904xgpkx2)" height="38.2" style="stroke:#000000;stroke-width:1.5;" width="121" x="515.5" y="328.4"/><text fill="#000000" font-family="Sarabun" font-size="14" lengthAdjust="spacing" textLength="101" x="525.5" y="353.352">TutorialManager</text><!--MD5=[be414fe22c77bcc5aeb04e611aaa28ac]
entity RulesConfig--><rect fill="#FEFECE" filter="url(#f6rq904xgpkx2)" height="38.2" style="stroke:#000000;stroke-width:1.5;" width="146" x="1256" y="328.4"/><text fill="#000000" font-family="Sarabun" font-size="14" lengthAdjust="spacing" textLength="126" x="1266" y="353.352">RulesConfigManager</text><!--MD5=[6c1038c56275e06a0f9aecf03cf54920]
entity Chatbot--><rect fill="#FEFECE" filter="url(#f6rq904xgpkx2)" height="38.2" style="stroke:#000000;stroke-width:1.5;" width="69" x="671.5" y="328.4"/><text fill="#000000" font-family="Sarabun" font-size="14" lengthAdjust="spacing" textLength="49" x="681.5" y="353.352">Chatbot</text><!--MD5=[d1565773b0cf8f2d27eb366b6f473ba2]
entity Feedback--><rect fill="#FEFECE" filter="url(#f6rq904xgpkx2)" height="38.2" style="stroke:#000000;stroke-width:1.5;" width="132" x="1558" y="328.4"/><text fill="#000000" font-family="Sarabun" font-size="14" lengthAdjust="spacing" textLength="112" x="1568" y="353.352">FeedbackManager</text><!--MD5=[edcdcc4a1bbe04bafa0ded76de3de705]
entity Exporter--><rect fill="#FEFECE" filter="url(#f6rq904xgpkx2)" height="38.2" style="stroke:#000000;stroke-width:1.5;" width="100" x="1777" y="461.6"/><text fill="#000000" font-family="Sarabun" font-size="14" lengthAdjust="spacing" textLength="80" x="1787" y="486.552">DataExporter</text><!--MD5=[b6715f68abc5ceb99b5a1d5d1c8cd4fd]
entity PathGen--><rect fill="#FEFECE" filter="url(#f6rq904xgpkx2)" height="38.2" style="stroke:#000000;stroke-width:1.5;" width="109" x="1912.5" y="461.6"/><text fill="#000000" font-family="Sarabun" font-size="14" lengthAdjust="spacing" textLength="89" x="1922.5" y="486.552">PathGenerator</text><!--MD5=[ec12e68d482471526d41adfe4cff0e6f]
entity Session--><rect fill="#FEFECE" filter="url(#f6rq904xgpkx2)" height="38.2" style="stroke:#000000;stroke-width:1.5;" width="118" x="2057" y="461.6"/><text fill="#000000" font-family="Sarabun" font-size="14" lengthAdjust="spacing" textLength="98" x="2067" y="486.552">SessionManager</text><!--MD5=[a15921272b0ba6be1c0e0fbbb47c631e]
entity Translations--><rect fill="#FEFECE" filter="url(#f6rq904xgpkx2)" height="38.2" style="stroke:#000000;stroke-width:1.5;" width="105" x="1637.5" y="461.6"/><text fill="#000000" font-family="Sarabun" font-size="14" lengthAdjust="spacing" textLength="85" x="1647.5" y="486.552">translations.js</text><!--MD5=[628c2e449127a12df8cb9b0eddf59bc8]
entity SilkAnim--><rect fill="#FEFECE" filter="url(#f6rq904xgpkx2)" height="38.2" style="stroke:#000000;stroke-width:1.5;" width="119" x="1767.5" y="594.8"/><text fill="#000000" font-family="Sarabun" font-size="14" lengthAdjust="spacing" textLength="99" x="1777.5" y="619.752">silk-animation.js</text><!--MD5=[e86360a2a0b2b59313154159dd50eceb]
entity MPPose--><rect fill="#FEFECE" filter="url(#f6rq904xgpkx2)" height="38.2" style="stroke:#000000;stroke-width:1.5;" width="114" x="1262" y="594.8"/><text fill="#000000" font-family="Sarabun" font-size="14" lengthAdjust="spacing" textLength="94" x="1272" y="619.752">MediaPipe Pose</text><!--MD5=[26fe4ee09733cd8b05f5dc198f526905]
entity MPGesture--><rect fill="#FEFECE" filter="url(#f6rq904xgpkx2)" height="38.2" style="stroke:#000000;stroke-width:1.5;" width="132" x="1095" y="594.8"/><text fill="#000000" font-family="Sarabun" font-size="14" lengthAdjust="spacing" textLength="112" x="1105" y="619.752">MediaPipe Gesture</text><!--MD5=[8ce744e8092058499958f6e5d5e77a38]
entity WebSpeech--><rect fill="#FEFECE" filter="url(#f6rq904xgpkx2)" height="38.2" style="stroke:#000000;stroke-width:1.5;" width="117" x="943.5" y="594.8"/><text fill="#000000" font-family="Sarabun" font-size="14" lengthAdjust="spacing" textLength="97" x="953.5" y="619.752">Web Speech API</text><!--MD5=[7a37ba3f7713e16f7df05a1c781e9ab7]
entity Gemini--><rect fill="#FEFECE" filter="url(#f6rq904xgpkx2)" height="38.2" style="stroke:#000000;stroke-width:1.5;" width="85" x="823.5" y="594.8"/><text fill="#000000" font-family="Sarabun" font-size="14" lengthAdjust="spacing" textLength="65" x="833.5" y="619.752">Gemini API</text><!--MD5=[d7191039cd95b8ea4db27fbf880548bd]
link Script to DisplayCtrl--><!--MD5=[d7191039cd95b8ea4db27fbf880548bd]
link Script to DisplayCtrl--><path d="M1410.04,89 C1317.69,89 1068.83,89 1068.83,89 C1068.83,89 1068.83,188.21 1068.83,188.21 " fill="none" id="Script-to-DisplayCtrl-1" style="stroke:#A80036;stroke-width:1.0;"/><polygon fill="#A80036" points="1068.83,193.21,1072.83,184.21,1068.83,188.21,1064.83,184.21,1068.83,193.21" style="stroke:#A80036;stroke-width:1.0;"/><!--MD5=[c9a440a07df6d8afe68b766667da87e5]
link DisplayCtrl to Heuristics--><!--MD5=[9831459d3839155dba8b8d1e08131e80]
link Heuristics to Exporter--><!--MD5=[1ea94a2473a910935b75aa95410ced4a]
link Exporter to MPPose--><!--MD5=[fc48254c2482732163a86460378c06ca]
link Drawing to Heuristics--><!--MD5=[3438851c9f5f82abe281bc48da691428]
link Heuristics to UI--><!--MD5=[3e852802c00d1f6eeb0b2a710b5eeae3]
link Exporter to SilkAnim--><!--MD5=[f5286bfc4d8bea6d8683c4958ed8dafe]
link Script to KeyboardCtrl--><path d="M1423.75,100.42 C1423.75,137.28 1423.75,214 1423.75,214 C1423.75,214 1291.31,214 1291.31,214 " fill="none" id="Script-to-KeyboardCtrl" style="stroke:#A80036;stroke-width:1.0;"/><polygon fill="#A80036" points="1286.31,214,1295.31,218,1291.31,214,1295.31,210,1286.31,214" style="stroke:#A80036;stroke-width:1.0;"/><!--MD5=[e1545ed3ba3b07e3012e7d25c9fa60bc]
link Script to Heuristics--><path d="M1477.67,95 C1571.17,95 1827.17,95 1827.17,95 C1827.17,95 1827.17,321.59 1827.17,321.59 " fill="none" id="Script-to-Heuristics" style="stroke:#A80036;stroke-width:1.0;"/><polygon fill="#A80036" points="1827.17,326.59,1831.17,317.59,1827.17,321.59,1823.17,317.59,1827.17,326.59" style="stroke:#A80036;stroke-width:1.0;"/><!--MD5=[5ee62b36886971867acfe45d13844bfd]
link Script to Calibration--><path d="M1477.83,78 C1594.37,78 1972,78 1972,78 C1972,78 1972,321.6 1972,321.6 " fill="none" id="Script-to-Calibration" style="stroke:#A80036;stroke-width:1.0;"/><polygon fill="#A80036" points="1972,326.6,1976,317.6,1972,321.6,1968,317.6,1972,326.6" style="stroke:#A80036;stroke-width:1.0;"/><!--MD5=[b8232004eeb18c477ad3e7d11fd376b9]
link Script to Scoring--><path d="M1477.85,67 C1616.78,67 2136,67 2136,67 C2136,67 2136,321.71 2136,321.71 " fill="none" id="Script-to-Scoring" style="stroke:#A80036;stroke-width:1.0;"/><polygon fill="#A80036" points="2136,326.71,2140,317.71,2136,321.71,2132,317.71,2136,326.71" style="stroke:#A80036;stroke-width:1.0;"/><!--MD5=[72f9911a158d5fd6eaca15a30ba5ca85]
link Script to Drawing--><path d="M1410.04,67 C1199.75,67 84,67 84,67 C84,67 84,321.71 84,321.71 " fill="none" id="Script-to-Drawing" style="stroke:#A80036;stroke-width:1.0;"/><polygon fill="#A80036" points="84,326.71,88,317.71,84,321.71,80,317.71,84,326.71" style="stroke:#A80036;stroke-width:1.0;"/><!--MD5=[5c0354e057ac8abaa96212d5bbec1386]
link Script to Ghost--><path d="M1410.19,73 C1212.59,73 215.83,73 215.83,73 C215.83,73 215.83,321.68 215.83,321.68 " fill="none" id="Script-to-Ghost" style="stroke:#A80036;stroke-width:1.0;"/><polygon fill="#A80036" points="215.83,326.68,219.83,317.68,215.83,321.68,211.83,317.68,215.83,326.68" style="stroke:#A80036;stroke-width:1.0;"/><!--MD5=[211f02de95125c81c4e438896e784718]
link Script to UI--><path d="M1457.25,100.69 C1457.25,100.69 1457.25,321.73 1457.25,321.73 " fill="none" id="Script-to-UI" style="stroke:#A80036;stroke-width:1.0;"/><polygon fill="#A80036" points="1457.25,326.73,1461.25,317.73,1457.25,321.73,1453.25,317.73,1457.25,326.73" style="stroke:#A80036;stroke-width:1.0;"/><!--MD5=[9fd97801d6b83f1f673f048a48616888]
link Script to Audio--><path d="M1410.06,78 C1281.13,78 829,78 829,78 C829,78 829,321.6 829,321.6 " fill="none" id="Script-to-Audio" style="stroke:#A80036;stroke-width:1.0;"/><polygon fill="#A80036" points="829,326.6,833,317.6,829,321.6,825,317.6,829,326.6" style="stroke:#A80036;stroke-width:1.0;"/><!--MD5=[9b79967d345ce9c26470d70a33d07e87]
link Script to Gesture--><path d="M1410.18,95 C1328.66,95 1128,95 1128,95 C1128,95 1128,321.59 1128,321.59 " fill="none" id="Script-to-Gesture" style="stroke:#A80036;stroke-width:1.0;"/><polygon fill="#A80036" points="1128,326.59,1132,317.59,1128,321.59,1124,317.59,1128,326.59" style="stroke:#A80036;stroke-width:1.0;"/><!--MD5=[1ccc242dbb115e28c3cb596311903a95]
link DisplayCtrl to Ghost--><path d="M985.22,208 C797.3,208 252.17,208 252.17,208 C252.17,208 252.17,321.59 252.17,321.59 " fill="none" id="DisplayCtrl-to-Ghost" style="stroke:#A80036;stroke-width:1.0;"/><polygon fill="#A80036" points="252.17,326.59,256.17,317.59,252.17,321.59,248.17,317.59,252.17,326.59" style="stroke:#A80036;stroke-width:1.0;"/><!--MD5=[cfa6aa791019d3813d884cd587b77070]
link DisplayCtrl to Silhouette--><path d="M985,221 C820.56,221 391,221 391,221 C391,221 391,321.5 391,321.5 " fill="none" id="DisplayCtrl-to-Silhouette" style="stroke:#A80036;stroke-width:1.0;"/><polygon fill="#A80036" points="391,326.5,395,317.5,391,321.5,387,317.5,391,326.5" style="stroke:#A80036;stroke-width:1.0;"/><!--MD5=[935beb6320473c26f2ff6fb0ff99c9eb]
link KeyboardCtrl to Tutorial--><path d="M1183.25,233.9 C1183.25,258.35 1183.25,297 1183.25,297 C1183.25,297 576,297 576,297 C576,297 576,321.61 576,321.61 " fill="none" id="KeyboardCtrl-to-Tutorial" style="stroke:#A80036;stroke-width:1.0;"/><polygon fill="#A80036" points="576,326.61,580,317.61,576,321.61,572,317.61,576,326.61" style="stroke:#A80036;stroke-width:1.0;"/><!--MD5=[ccb1a771420d4e1e6765246ebaf27923]
link RulesConfig to Heuristics--><path d="M1389,367.09 C1389,386.71 1389,414 1389,414 C1389,414 1750,414 1750,414 C1750,414 1750,373.61 1750,373.61 " fill="none" id="RulesConfig-to-Heuristics" style="stroke:#A80036;stroke-width:1.0;"/><polygon fill="#A80036" points="1750,368.61,1746,377.61,1750,373.61,1754,377.61,1750,368.61" style="stroke:#A80036;stroke-width:1.0;"/><!--MD5=[5b73fa4b65b01648447be545ceee584c]
link UI to Translations--><path d="M1494.33,366.91 C1494.33,403.94 1494.33,481 1494.33,481 C1494.33,481 1630.54,481 1630.54,481 " fill="none" id="UI-to-Translations" style="stroke:#A80036;stroke-width:1.0;"/><polygon fill="#A80036" points="1635.54,481,1626.54,477,1630.54,481,1626.54,485,1635.54,481" style="stroke:#A80036;stroke-width:1.0;"/><!--MD5=[946961918582c617df6d290e0c1a01ba]
link Heuristics to MPPose--><path d="M1760.5,367.08 C1760.5,427.66 1760.5,608 1760.5,608 C1760.5,608 1382.78,608 1382.78,608 " fill="none" id="Heuristics-to-MPPose" style="stroke:#A80036;stroke-width:1.0;"/><polygon fill="#A80036" points="1377.78,608,1386.78,612,1382.78,608,1386.78,604,1377.78,608" style="stroke:#A80036;stroke-width:1.0;"/><!--MD5=[36278df54b849fb29fb533014afc69dc]
link Gesture to MPGesture--><path d="M1161,367.09 C1161,367.09 1161,588.13 1161,588.13 " fill="none" id="Gesture-to-MPGesture" style="stroke:#A80036;stroke-width:1.0;"/><polygon fill="#A80036" points="1161,593.13,1165,584.13,1161,588.13,1157,584.13,1161,593.13" style="stroke:#A80036;stroke-width:1.0;"/><!--MD5=[5d2968167655c2a7f41e07f4dbeeaf82]
link Audio to WebSpeech--><path d="M883.47,347 C899.82,347 913.5,347 913.5,347 C913.5,347 913.5,614 913.5,614 C913.5,614 936.95,614 936.95,614 " fill="none" id="Audio-to-WebSpeech" style="stroke:#A80036;stroke-width:1.0;"/><polygon fill="#A80036" points="941.95,614,932.95,610,936.95,614,932.95,618,941.95,614" style="stroke:#A80036;stroke-width:1.0;"/><!--MD5=[fa2bf33665ed016c01ebce86b27bf280]
link Chatbot to Gemini--><path d="M706,367.1 C706,428.64 706,614 706,614 C706,614 816.61,614 816.61,614 " fill="none" id="Chatbot-to-Gemini" style="stroke:#A80036;stroke-width:1.0;"/><polygon fill="#A80036" points="821.61,614,812.61,610,816.61,614,812.61,618,821.61,614" style="stroke:#A80036;stroke-width:1.0;"/><!--MD5=[e423245bf529dda2ca0d392dbadbe4d7]
link Script to Exporter--><path d="M1477.96,89 C1579.25,89 1872.25,89 1872.25,89 C1872.25,89 1872.25,454.76 1872.25,454.76 " fill="none" id="Script-to-Exporter" style="stroke:#A80036;stroke-width:1.0;stroke-dasharray:7.0,7.0;"/><polygon fill="#A80036" points="1872.25,459.76,1876.25,450.76,1872.25,454.76,1868.25,450.76,1872.25,459.76" style="stroke:#A80036;stroke-width:1.0;"/><!--MD5=[05b4aa5e4a30750a603c2dd2ad4a0c96]
link Script to PathGen--><path d="M1477.99,84 C1580.84,84 1881.75,84 1881.75,84 C1881.75,84 1881.75,481 1881.75,481 C1881.75,481 1905.53,481 1905.53,481 " fill="none" id="Script-to-PathGen" style="stroke:#A80036;stroke-width:1.0;stroke-dasharray:7.0,7.0;"/><polygon fill="#A80036" points="1910.53,481,1901.53,477,1905.53,481,1901.53,485,1910.53,481" style="stroke:#A80036;stroke-width:1.0;"/><!--MD5=[d496892f9e6690f6ee7590dbb1fb8031]
link Script to Session--><path d="M1477.92,73 C1607.88,73 2066.75,73 2066.75,73 C2066.75,73 2066.75,454.8 2066.75,454.8 " fill="none" id="Script-to-Session" style="stroke:#A80036;stroke-width:1.0;stroke-dasharray:7.0,7.0;"/><polygon fill="#A80036" points="2066.75,459.8,2070.75,450.8,2066.75,454.8,2062.75,450.8,2066.75,459.8" style="stroke:#A80036;stroke-width:1.0;"/><!--MD5=[39f6b0a0cd5814f41d9f3ee28ef7f26e]
@startuml ModuleDependencies
' ============================================================================
' TaijiFlow AI - Module Dependencies Diagram (Top-Down Layers)
' ============================================================================
' แสดงความสัมพันธ์ระหว่าง 22 Modules แบ่งเป็น 5 ชั้น
' อัปเดต: 2026-01-12 (Refined Layout)
' ============================================================================

skinparam defaultFontName "Sarabun"
skinparam backgroundColor transparent
skinparam componentStyle rectangle
skinparam packageStyle rectangle
skinparam linetype ortho
skinparam nodesep 0.8
skinparam ranksep 1.0

' === Direction ===
top to bottom direction

' === Colors ===
skinparam package {
    BackgroundColor<<entry>> #E3F2FD
    BackgroundColor<<core>> #FFF3E0
    BackgroundColor<<display>> #E0F7FA
    BackgroundColor<<ui>> #E8F5E9
    BackgroundColor<<controller>> #E1BEE7
    BackgroundColor<<utility>> #F3E5F5
    BackgroundColor<<external>> #FFEBEE
}

' ============================================================================
' LAYER 1: ENTRY POINT
' ============================================================================

package "Layer 1: Entry Point" <<entry>> {
    [script.js] as Script
}

' ============================================================================
' LAYER 2: CONTROLLERS
' ============================================================================

package "Layer 2: Controllers" <<controller>> {
    [DisplayController] as DisplayCtrl
    [KeyboardController] as KeyboardCtrl
}

' ============================================================================
' LAYER 3: MANAGERS (Core + Display + UI)
' ============================================================================

package "Layer 3: Display Managers" <<display>> {
    [DrawingManager] as Drawing
    [GhostManager] as Ghost
    [SilhouetteManager] as Silhouette
}

package "Layer 3: Core Managers" <<core>> {
    [HeuristicsEngine] as Heuristics
    [CalibrationManager] as Calibration
    [ScoringManager] as Scoring
}

package "Layer 3: UI Managers" <<ui>> {
    [UIManager] as UI
    [AudioManager] as Audio
    [GestureManager] as Gesture
    [ScorePopupManager] as ScorePopup
    [TutorialManager] as Tutorial
    [RulesConfigManager] as RulesConfig
    [Chatbot] as Chatbot
    [FeedbackManager] as Feedback
}

' ============================================================================
' LAYER 4: UTILITIES
' ============================================================================

package "Layer 4: Utilities" <<utility>> {
    [DataExporter] as Exporter
    [PathGenerator] as PathGen
    [SessionManager] as Session
    [translations.js] as Translations
}

package "Layer 4: Landing Page" <<utility>> {
    [silk-animation.js] as SilkAnim
}

' ============================================================================
' LAYER 5: EXTERNAL APIs
' ============================================================================

package "Layer 5: External APIs" <<external>> {
    [MediaPipe Pose] as MPPose
    [MediaPipe Gesture] as MPGesture
    [Web Speech API] as WebSpeech
    [Gemini API] as Gemini
}

' ============================================================================
' LAYOUT HELPER (Hidden Links for Sequencing)
' ============================================================================
' Force vertical ordering
Script -[hidden]-> DisplayCtrl
DisplayCtrl -[hidden]-> Heuristics
Heuristics -[hidden]-> Exporter
Exporter -[hidden]-> MPPose

' Force horizontal alignment for Layer 3 (Display - Core - UI)
Drawing -[hidden]- Heuristics
Heuristics -[hidden]- UI

' Force horizontal alignment for Layer 4
Exporter -[hidden]- SilkAnim

' ============================================================================
' RELATIONSHIPS (Main flows)
' ============================================================================

' Layer 1 → Layer 2
Script - -> DisplayCtrl
Script - -> KeyboardCtrl

' Layer 1 → Layer 3 (Core)
Script - -> Heuristics
Script - -> Calibration
Script - -> Scoring

' Layer 1 → Layer 3 (Display)
Script - -> Drawing
Script - -> Ghost

' Layer 1 → Layer 3 (UI)
Script - -> UI
Script - -> Audio
Script - -> Gesture

' Layer 2 → Layer 3
DisplayCtrl - -> Ghost
DisplayCtrl - -> Silhouette
KeyboardCtrl - -> Tutorial

' Layer 3 Internal
RulesConfig - -> Heuristics
UI - -> Translations

' Layer 3 → Layer 5 (External)
Heuristics - -> MPPose
Gesture - -> MPGesture
Audio - -> WebSpeech
Chatbot - -> Gemini

' Layer 1 → Layer 4 (Utilities)
Script ..> Exporter
Script ..> PathGen
Script ..> Session

@enduml

@startuml ModuleDependencies

skinparam defaultFontName "Sarabun"
skinparam backgroundColor transparent
skinparam componentStyle rectangle
skinparam packageStyle rectangle
skinparam linetype ortho
skinparam nodesep 0.8
skinparam ranksep 1.0

top to bottom direction

skinparam package {
    BackgroundColor<<entry>> #E3F2FD
    BackgroundColor<<core>> #FFF3E0
    BackgroundColor<<display>> #E0F7FA
    BackgroundColor<<ui>> #E8F5E9
    BackgroundColor<<controller>> #E1BEE7
    BackgroundColor<<utility>> #F3E5F5
    BackgroundColor<<external>> #FFEBEE
}


package "Layer 1: Entry Point" <<entry>> {
    [script.js] as Script
}


package "Layer 2: Controllers" <<controller>> {
    [DisplayController] as DisplayCtrl
    [KeyboardController] as KeyboardCtrl
}


package "Layer 3: Display Managers" <<display>> {
    [DrawingManager] as Drawing
    [GhostManager] as Ghost
    [SilhouetteManager] as Silhouette
}

package "Layer 3: Core Managers" <<core>> {
    [HeuristicsEngine] as Heuristics
    [CalibrationManager] as Calibration
    [ScoringManager] as Scoring
}

package "Layer 3: UI Managers" <<ui>> {
    [UIManager] as UI
    [AudioManager] as Audio
    [GestureManager] as Gesture
    [ScorePopupManager] as ScorePopup
    [TutorialManager] as Tutorial
    [RulesConfigManager] as RulesConfig
    [Chatbot] as Chatbot
    [FeedbackManager] as Feedback
}


package "Layer 4: Utilities" <<utility>> {
    [DataExporter] as Exporter
    [PathGenerator] as PathGen
    [SessionManager] as Session
    [translations.js] as Translations
}

package "Layer 4: Landing Page" <<utility>> {
    [silk-animation.js] as SilkAnim
}


package "Layer 5: External APIs" <<external>> {
    [MediaPipe Pose] as MPPose
    [MediaPipe Gesture] as MPGesture
    [Web Speech API] as WebSpeech
    [Gemini API] as Gemini
}

Script -[hidden]-> DisplayCtrl
DisplayCtrl -[hidden]-> Heuristics
Heuristics -[hidden]-> Exporter
Exporter -[hidden]-> MPPose

Drawing -[hidden]- Heuristics
Heuristics -[hidden]- UI

Exporter -[hidden]- SilkAnim


Script - -> DisplayCtrl
Script - -> KeyboardCtrl

Script - -> Heuristics
Script - -> Calibration
Script - -> Scoring

Script - -> Drawing
Script - -> Ghost

Script - -> UI
Script - -> Audio
Script - -> Gesture

DisplayCtrl - -> Ghost
DisplayCtrl - -> Silhouette
KeyboardCtrl - -> Tutorial

RulesConfig - -> Heuristics
UI - -> Translations

Heuristics - -> MPPose
Gesture - -> MPGesture
Audio - -> WebSpeech
Chatbot - -> Gemini

Script ..> Exporter
Script ..> PathGen
Script ..> Session

@enduml

PlantUML version 1.2021.00(Sun Jan 10 17:25:05 ICT 2021)
(MIT source distribution)
Java Runtime: OpenJDK Runtime Environment
JVM: OpenJDK 64-Bit Server VM
Default Encoding: UTF-8
Language: en
Country: US
--></g></svg>