<?xml version="1.0" encoding="UTF-8" standalone="no"?><svg xmlns="http://www.w3.org/2000/svg" xmlns:xlink="http://www.w3.org/1999/xlink" contentScriptType="application/ecmascript" contentStyleType="text/css" height="1423px" preserveAspectRatio="none" style="width:909px;height:1423px;background:#00000000;" version="1.1" viewBox="0 0 909 1423" width="909px" zoomAndPan="magnify"><defs><filter height="300%" id="f12glbe5xghnl7" width="300%" x="-1" y="-1"><feGaussianBlur result="blurOut" stdDeviation="2.0"/><feColorMatrix in="blurOut" result="blurOut2" type="matrix" values="0 0 0 0 0 0 0 0 0 0 0 0 0 0 0 0 0 0 .4 0"/><feOffset dx="4.0" dy="4.0" in="blurOut2" result="blurOut3"/><feBlend in="SourceGraphic" in2="blurOut3" mode="normal"/></filter></defs><g><rect fill="#FFFFFF" filter="url(#f12glbe5xghnl7)" height="997.6" style="stroke:#A80036;stroke-width:1.0;" width="10" x="484.5" y="225"/><rect fill="#E3F2FD" filter="url(#f12glbe5xghnl7)" height="138.5" style="stroke:#000000;stroke-width:2.0;" width="503.5" x="105" y="125.4"/><rect fill="#FFF3E0" filter="url(#f12glbe5xghnl7)" height="268.5" style="stroke:#000000;stroke-width:2.0;" width="548.5" x="10" y="277.9"/><rect fill="#FFFFFF" filter="url(#f12glbe5xghnl7)" height="191.7" style="stroke:#000000;stroke-width:2.0;" width="453.5" x="95" y="347.7"/><rect fill="#FFFFFF" filter="url(#f12glbe5xghnl7)" height="127.9" style="stroke:#000000;stroke-width:2.0;" width="433.5" x="105" y="404.5"/><rect fill="#FFFFFF" height="47.2" style="stroke:none;stroke-width:1.0;" width="433.5" x="105" y="485.2"/><rect fill="#FFF3E0" filter="url(#f12glbe5xghnl7)" height="281.5" style="stroke:#000000;stroke-width:2.0;" width="616.5" x="10" y="560.4"/><rect fill="#FFFFFF" filter="url(#f12glbe5xghnl7)" height="204.7" style="stroke:#000000;stroke-width:2.0;" width="521.5" x="95" y="630.2"/><rect fill="#FFFFFF" filter="url(#f12glbe5xghnl7)" height="140.9" style="stroke:#000000;stroke-width:2.0;" width="501.5" x="105" y="687"/><rect fill="#FFFFFF" height="60.2" style="stroke:none;stroke-width:1.0;" width="501.5" x="105" y="767.7"/><rect fill="#E8F5E9" filter="url(#f12glbe5xghnl7)" height="175.4" style="stroke:#000000;stroke-width:2.0;" width="453.5" x="95" y="855.9"/><rect fill="#FFFFFF" filter="url(#f12glbe5xghnl7)" height="142.5" style="stroke:#000000;stroke-width:2.0;" width="433.5" x="105" y="881.8"/><rect fill="#E8F5E9" filter="url(#f12glbe5xghnl7)" height="257.1" style="stroke:#000000;stroke-width:2.0;" width="790.5" x="105" y="1045.3"/><line style="stroke:#A80036;stroke-width:1.0;stroke-dasharray:5.0,5.0;" x1="40" x2="40" y1="108.4" y2="1319.4"/><line style="stroke:#A80036;stroke-width:1.0;stroke-dasharray:5.0,5.0;" x1="142" x2="142" y1="108.4" y2="1319.4"/><line style="stroke:#A80036;stroke-width:1.0;stroke-dasharray:5.0,5.0;" x1="316.5" x2="316.5" y1="108.4" y2="1319.4"/><line style="stroke:#A80036;stroke-width:1.0;stroke-dasharray:5.0,5.0;" x1="489.5" x2="489.5" y1="108.4" y2="1319.4"/><line style="stroke:#A80036;stroke-width:1.0;stroke-dasharray:5.0,5.0;" x1="674" x2="674" y1="108.4" y2="1319.4"/><text fill="#000000" font-family="Sarabun" font-size="14" lengthAdjust="spacing" textLength="26" x="24.5" y="86.952">ผู้ฝึก</text><text fill="#000000" font-family="Sarabun" font-size="14" lengthAdjust="spacing" textLength="35" x="20" y="105.152">(User)</text><ellipse cx="40.5" cy="15" fill="#FEFECE" filter="url(#f12glbe5xghnl7)" rx="8" ry="8" style="stroke:#A80036;stroke-width:2.0;"/><path d="M40.5,23 L40.5,50 M27.5,31 L53.5,31 M40.5,50 L27.5,65 M40.5,50 L53.5,65 " fill="none" filter="url(#f12glbe5xghnl7)" style="stroke:#A80036;stroke-width:2.0;"/><text fill="#000000" font-family="Sarabun" font-size="14" lengthAdjust="spacing" textLength="26" x="24.5" y="1333.352">ผู้ฝึก</text><text fill="#000000" font-family="Sarabun" font-size="14" lengthAdjust="spacing" textLength="35" x="20" y="1351.552">(User)</text><ellipse cx="40.5" cy="1364.8" fill="#FEFECE" filter="url(#f12glbe5xghnl7)" rx="8" ry="8" style="stroke:#A80036;stroke-width:2.0;"/><path d="M40.5,1372.8 L40.5,1399.8 M27.5,1380.8 L53.5,1380.8 M40.5,1399.8 L27.5,1414.8 M40.5,1399.8 L53.5,1414.8 " fill="none" filter="url(#f12glbe5xghnl7)" style="stroke:#A80036;stroke-width:2.0;"/><rect fill="#E8F5E9" filter="url(#f12glbe5xghnl7)" height="32.2" style="stroke:#A80036;stroke-width:1.5;" width="51" x="115" y="71.2"/><text fill="#000000" font-family="Sarabun" font-size="14" lengthAdjust="spacing" textLength="13" x="134" y="93.152">UI</text><rect fill="#E8F5E9" filter="url(#f12glbe5xghnl7)" height="32.2" style="stroke:#A80036;stroke-width:1.5;" width="51" x="115" y="1318.4"/><text fill="#000000" font-family="Sarabun" font-size="14" lengthAdjust="spacing" textLength="13" x="134" y="1340.352">UI</text><rect fill="#E3F2FD" filter="url(#f12glbe5xghnl7)" height="32.2" style="stroke:#A80036;stroke-width:1.5;" width="70" x="279.5" y="71.2"/><text fill="#000000" font-family="Sarabun" font-size="14" lengthAdjust="spacing" textLength="50" x="289.5" y="93.152">Training</text><rect fill="#E3F2FD" filter="url(#f12glbe5xghnl7)" height="32.2" style="stroke:#A80036;stroke-width:1.5;" width="70" x="279.5" y="1318.4"/><text fill="#000000" font-family="Sarabun" font-size="14" lengthAdjust="spacing" textLength="50" x="289.5" y="1340.352">Training</text><rect fill="#FFF3E0" filter="url(#f12glbe5xghnl7)" height="32.2" style="stroke:#A80036;stroke-width:1.5;" width="74" x="450.5" y="71.2"/><text fill="#000000" font-family="Sarabun" font-size="14" lengthAdjust="spacing" textLength="60" x="457.5" y="93.152">Calibrator</text><rect fill="#FFF3E0" filter="url(#f12glbe5xghnl7)" height="32.2" style="stroke:#A80036;stroke-width:1.5;" width="74" x="450.5" y="1318.4"/><text fill="#000000" font-family="Sarabun" font-size="14" lengthAdjust="spacing" textLength="60" x="457.5" y="1340.352">Calibrator</text><rect fill="#FFF3E0" filter="url(#f12glbe5xghnl7)" height="32.2" style="stroke:#A80036;stroke-width:1.5;" width="73" x="636" y="71.2"/><text fill="#000000" font-family="Sarabun" font-size="14" lengthAdjust="spacing" textLength="59" x="643" y="93.152">Heuristics</text><rect fill="#FFF3E0" filter="url(#f12glbe5xghnl7)" height="32.2" style="stroke:#A80036;stroke-width:1.5;" width="73" x="636" y="1318.4"/><text fill="#000000" font-family="Sarabun" font-size="14" lengthAdjust="spacing" textLength="59" x="643" y="1340.352">Heuristics</text><rect fill="#FFFFFF" filter="url(#f12glbe5xghnl7)" height="997.6" style="stroke:#A80036;stroke-width:1.0;" width="10" x="484.5" y="225"/><path d="M105,125.4 L237,125.4 L237,133.4 L227,143.4 L105,143.4 L105,125.4 " fill="#EEEEEE" style="stroke:#000000;stroke-width:1.0;"/><rect fill="none" height="138.5" style="stroke:#000000;stroke-width:2.0;" width="503.5" x="105" y="125.4"/><text fill="#000000" font-family="Sarabun" font-size="13" font-weight="bold" lengthAdjust="spacing" textLength="87" x="120" y="140.284">เริ่ม Calibration</text><polygon fill="#A80036" points="477.5,176.65,487.5,180.65,477.5,184.65,481.5,180.65" style="stroke:#A80036;stroke-width:1.0;"/><line style="stroke:#A80036;stroke-width:1.0;" x1="316.5" x2="483.5" y1="180.65" y2="180.65"/><text fill="#000000" font-family="Sarabun" font-size="13" lengthAdjust="spacing" textLength="129" x="338.5" y="175.634">setLevel(currentLevel)</text><path d="M494,149.3 L494,192.3 L589,192.3 L589,159.3 L579,149.3 L494,149.3 " fill="#FBFB77" filter="url(#f12glbe5xghnl7)" style="stroke:#A80036;stroke-width:1.0;"/><path d="M579,149.3 L579,159.3 L589,159.3 L579,149.3 " fill="#FBFB77" style="stroke:#A80036;stroke-width:1.0;"/><text fill="#000000" font-family="Sarabun" font-size="13" lengthAdjust="spacing" textLength="74" x="500" y="168.184">L1-L2: ครึ่งบน</text><text fill="#000000" font-family="Sarabun" font-size="13" lengthAdjust="spacing" textLength="70" x="500" y="185.084">L3: เห็นทั้งตัว</text><polygon fill="#A80036" points="472.5,221,482.5,225,472.5,229,476.5,225" style="stroke:#A80036;stroke-width:1.0;"/><line style="stroke:#A80036;stroke-width:1.0;" x1="316.5" x2="478.5" y1="225" y2="225"/><text fill="#000000" font-family="Sarabun" font-size="13" lengthAdjust="spacing" textLength="35" x="383" y="219.984">start()</text><polygon fill="#A80036" points="153.5,251.9,143.5,255.9,153.5,259.9,149.5,255.9" style="stroke:#A80036;stroke-width:1.0;"/><line style="stroke:#A80036;stroke-width:1.0;stroke-dasharray:2.0,2.0;" x1="147.5" x2="483.5" y1="255.9" y2="255.9"/><text fill="#000000" font-family="Sarabun" font-size="13" lengthAdjust="spacing" textLength="226" x="200.5" y="250.884">แสดง Overlay "กรุณายืนกางแขน (T-Pose)"</text><path d="M10,277.9 L139,277.9 L139,285.9 L129,295.9 L10,295.9 L10,277.9 " fill="#EEEEEE" style="stroke:#000000;stroke-width:1.0;"/><rect fill="none" height="268.5" style="stroke:#000000;stroke-width:2.0;" width="548.5" x="10" y="277.9"/><text fill="#000000" font-family="Sarabun" font-size="13" font-weight="bold" lengthAdjust="spacing" textLength="84" x="25" y="292.784">ตรวจ Visibility</text><line style="stroke:#A80036;stroke-width:1.0;" x1="40.5" x2="82.5" y1="319.7" y2="319.7"/><line style="stroke:#A80036;stroke-width:1.0;" x1="82.5" x2="82.5" y1="319.7" y2="332.7"/><line style="stroke:#A80036;stroke-width:1.0;" x1="41.5" x2="82.5" y1="332.7" y2="332.7"/><polygon fill="#A80036" points="51.5,328.7,41.5,332.7,51.5,336.7,47.5,332.7" style="stroke:#A80036;stroke-width:1.0;"/><text fill="#000000" font-family="Sarabun" font-size="13" lengthAdjust="spacing" textLength="57" x="47.5" y="314.684">ยืนในกล้อง</text><path d="M95,347.7 L167,347.7 L167,355.7 L157,365.7 L95,365.7 L95,347.7 " fill="#EEEEEE" style="stroke:#000000;stroke-width:1.0;"/><rect fill="none" height="191.7" style="stroke:#000000;stroke-width:2.0;" width="453.5" x="95" y="347.7"/><text fill="#000000" font-family="Sarabun" font-size="13" font-weight="bold" lengthAdjust="spacing" textLength="27" x="110" y="362.584">loop</text><text fill="#000000" font-family="Sarabun" font-size="11" font-weight="bold" lengthAdjust="spacing" textLength="90" x="182" y="361.448">[จน visibility ผ่าน]</text><polygon fill="#A80036" points="472.5,385.5,482.5,389.5,472.5,393.5,476.5,389.5" style="stroke:#A80036;stroke-width:1.0;"/><line style="stroke:#A80036;stroke-width:1.0;" x1="316.5" x2="478.5" y1="389.5" y2="389.5"/><text fill="#000000" font-family="Sarabun" font-size="13" lengthAdjust="spacing" textLength="109" x="346" y="384.484">process(landmarks)</text><path d="M105,404.5 L166,404.5 L166,412.5 L156,422.5 L105,422.5 L105,404.5 " fill="#EEEEEE" style="stroke:#000000;stroke-width:1.0;"/><rect fill="none" height="127.9" style="stroke:#000000;stroke-width:2.0;" width="433.5" x="105" y="404.5"/><text fill="#000000" font-family="Sarabun" font-size="13" font-weight="bold" lengthAdjust="spacing" textLength="16" x="120" y="419.384">alt</text><text fill="#000000" font-family="Sarabun" font-size="11" font-weight="bold" lengthAdjust="spacing" textLength="79" x="181" y="418.248">[visibility &lt; 0.5]</text><polygon fill="#A80036" points="153.5,442.3,143.5,446.3,153.5,450.3,149.5,446.3" style="stroke:#A80036;stroke-width:1.0;"/><line style="stroke:#A80036;stroke-width:1.0;stroke-dasharray:2.0,2.0;" x1="147.5" x2="483.5" y1="446.3" y2="446.3"/><text fill="#000000" font-family="Sarabun" font-size="13" lengthAdjust="spacing" textLength="89" x="269" y="441.284">"ถอยหลังอีกนิด!"</text><polygon fill="#A80036" points="327.5,473.2,317.5,477.2,327.5,481.2,323.5,477.2" style="stroke:#A80036;stroke-width:1.0;"/><line style="stroke:#A80036;stroke-width:1.0;stroke-dasharray:2.0,2.0;" x1="321.5" x2="483.5" y1="477.2" y2="477.2"/><text fill="#000000" font-family="Sarabun" font-size="13" lengthAdjust="spacing" textLength="109" x="346" y="472.184">{status: "adjusting"}</text><line style="stroke:#000000;stroke-width:1.0;stroke-dasharray:2.0,2.0;" x1="105" x2="538.5" y1="486.2" y2="486.2"/><text fill="#000000" font-family="Sarabun" font-size="11" font-weight="bold" lengthAdjust="spacing" textLength="74" x="110" y="497.948">[visibility ผ่าน]</text><polygon fill="#A80036" points="153.5,520.4,143.5,524.4,153.5,528.4,149.5,524.4" style="stroke:#A80036;stroke-width:1.0;"/><line style="stroke:#A80036;stroke-width:1.0;stroke-dasharray:2.0,2.0;" x1="147.5" x2="483.5" y1="524.4" y2="524.4"/><text fill="#000000" font-family="Sarabun" font-size="13" lengthAdjust="spacing" textLength="103" x="262" y="519.384">"กางแขนระดับไหล่"</text><path d="M10,560.4 L143,560.4 L143,568.4 L133,578.4 L10,578.4 L10,560.4 " fill="#EEEEEE" style="stroke:#000000;stroke-width:1.0;"/><rect fill="none" height="281.5" style="stroke:#000000;stroke-width:2.0;" width="616.5" x="10" y="560.4"/><text fill="#000000" font-family="Sarabun" font-size="13" font-weight="bold" lengthAdjust="spacing" textLength="88" x="25" y="575.284">ตรวจท่า T-Pose</text><line style="stroke:#A80036;stroke-width:1.0;" x1="40.5" x2="82.5" y1="602.2" y2="602.2"/><line style="stroke:#A80036;stroke-width:1.0;" x1="82.5" x2="82.5" y1="602.2" y2="615.2"/><line style="stroke:#A80036;stroke-width:1.0;" x1="41.5" x2="82.5" y1="615.2" y2="615.2"/><polygon fill="#A80036" points="51.5,611.2,41.5,615.2,51.5,619.2,47.5,615.2" style="stroke:#A80036;stroke-width:1.0;"/><text fill="#000000" font-family="Sarabun" font-size="13" lengthAdjust="spacing" textLength="88" x="47.5" y="597.184">กางแขนท่า T &#129485;</text><path d="M95,630.2 L167,630.2 L167,638.2 L157,648.2 L95,648.2 L95,630.2 " fill="#EEEEEE" style="stroke:#000000;stroke-width:1.0;"/><rect fill="none" height="204.7" style="stroke:#000000;stroke-width:2.0;" width="521.5" x="95" y="630.2"/><text fill="#000000" font-family="Sarabun" font-size="13" font-weight="bold" lengthAdjust="spacing" textLength="27" x="110" y="645.084">loop</text><text fill="#000000" font-family="Sarabun" font-size="11" font-weight="bold" lengthAdjust="spacing" textLength="130" x="182" y="643.948">[จนกว่าแขนจะอยู่ระดับไหล่]</text><polygon fill="#A80036" points="472.5,668,482.5,672,472.5,676,476.5,672" style="stroke:#A80036;stroke-width:1.0;"/><line style="stroke:#A80036;stroke-width:1.0;" x1="316.5" x2="478.5" y1="672" y2="672"/><text fill="#000000" font-family="Sarabun" font-size="13" lengthAdjust="spacing" textLength="109" x="346" y="666.984">process(landmarks)</text><path d="M105,687 L166,687 L166,695 L156,705 L105,705 L105,687 " fill="#EEEEEE" style="stroke:#000000;stroke-width:1.0;"/><rect fill="none" height="140.9" style="stroke:#000000;stroke-width:2.0;" width="501.5" x="105" y="687"/><text fill="#000000" font-family="Sarabun" font-size="13" font-weight="bold" lengthAdjust="spacing" textLength="16" x="120" y="701.884">alt</text><text fill="#000000" font-family="Sarabun" font-size="11" font-weight="bold" lengthAdjust="spacing" textLength="133" x="181" y="700.748">[|wristY - shoulderY| &gt; 0.2]</text><polygon fill="#A80036" points="153.5,724.8,143.5,728.8,153.5,732.8,149.5,728.8" style="stroke:#A80036;stroke-width:1.0;"/><line style="stroke:#A80036;stroke-width:1.0;stroke-dasharray:2.0,2.0;" x1="147.5" x2="483.5" y1="728.8" y2="728.8"/><text fill="#000000" font-family="Sarabun" font-size="13" lengthAdjust="spacing" textLength="103" x="262" y="723.784">"กางแขนระดับไหล่"</text><polygon fill="#A80036" points="327.5,755.7,317.5,759.7,327.5,763.7,323.5,759.7" style="stroke:#A80036;stroke-width:1.0;"/><line style="stroke:#A80036;stroke-width:1.0;stroke-dasharray:2.0,2.0;" x1="321.5" x2="483.5" y1="759.7" y2="759.7"/><text fill="#000000" font-family="Sarabun" font-size="13" lengthAdjust="spacing" textLength="109" x="346" y="754.684">{status: "adjusting"}</text><line style="stroke:#000000;stroke-width:1.0;stroke-dasharray:2.0,2.0;" x1="105" x2="606.5" y1="768.7" y2="768.7"/><text fill="#000000" font-family="Sarabun" font-size="11" font-weight="bold" lengthAdjust="spacing" textLength="54" x="110" y="780.448">[ท่าถูกต้อง]</text><line style="stroke:#A80036;stroke-width:1.0;" x1="494.5" x2="536.5" y1="806.9" y2="806.9"/><line style="stroke:#A80036;stroke-width:1.0;" x1="536.5" x2="536.5" y1="806.9" y2="819.9"/><line style="stroke:#A80036;stroke-width:1.0;" x1="495.5" x2="536.5" y1="819.9" y2="819.9"/><polygon fill="#A80036" points="505.5,815.9,495.5,819.9,505.5,823.9,501.5,819.9" style="stroke:#A80036;stroke-width:1.0;"/><text fill="#000000" font-family="Sarabun" font-size="13" lengthAdjust="spacing" textLength="93" x="501.5" y="801.884">stableFrames++</text><path d="M95,855.9 L256,855.9 L256,863.9 L246,873.9 L95,873.9 L95,855.9 " fill="#EEEEEE" style="stroke:#000000;stroke-width:1.0;"/><rect fill="none" height="175.4" style="stroke:#000000;stroke-width:2.0;" width="453.5" x="95" y="855.9"/><text fill="#000000" font-family="Sarabun" font-size="13" font-weight="bold" lengthAdjust="spacing" textLength="116" x="110" y="870.784">นับถอยหลัง (3 วินาที)</text><path d="M105,881.8 L177,881.8 L177,889.8 L167,899.8 L105,899.8 L105,881.8 " fill="#EEEEEE" style="stroke:#000000;stroke-width:1.0;"/><rect fill="none" height="142.5" style="stroke:#000000;stroke-width:2.0;" width="433.5" x="105" y="881.8"/><text fill="#000000" font-family="Sarabun" font-size="13" font-weight="bold" lengthAdjust="spacing" textLength="27" x="120" y="896.684">loop</text><text fill="#000000" font-family="Sarabun" font-size="11" font-weight="bold" lengthAdjust="spacing" textLength="153" x="192" y="895.548">[stableFrames &lt; 90 (~3 วินาที)]</text><polygon fill="#A80036" points="153.5,919.6,143.5,923.6,153.5,927.6,149.5,923.6" style="stroke:#A80036;stroke-width:1.0;"/><line style="stroke:#A80036;stroke-width:1.0;stroke-dasharray:2.0,2.0;" x1="147.5" x2="483.5" y1="923.6" y2="923.6"/><text fill="#000000" font-family="Sarabun" font-size="13" lengthAdjust="spacing" textLength="66" x="280.5" y="918.584">"อยู่นิ่งๆ... 3"</text><polygon fill="#A80036" points="153.5,950.5,143.5,954.5,153.5,958.5,149.5,954.5" style="stroke:#A80036;stroke-width:1.0;"/><line style="stroke:#A80036;stroke-width:1.0;stroke-dasharray:2.0,2.0;" x1="147.5" x2="483.5" y1="954.5" y2="954.5"/><text fill="#000000" font-family="Sarabun" font-size="13" lengthAdjust="spacing" textLength="66" x="280.5" y="949.484">"อยู่นิ่งๆ... 2"</text><polygon fill="#A80036" points="153.5,981.4,143.5,985.4,153.5,989.4,149.5,985.4" style="stroke:#A80036;stroke-width:1.0;"/><line style="stroke:#A80036;stroke-width:1.0;stroke-dasharray:2.0,2.0;" x1="147.5" x2="483.5" y1="985.4" y2="985.4"/><text fill="#000000" font-family="Sarabun" font-size="13" lengthAdjust="spacing" textLength="66" x="280.5" y="980.384">"อยู่นิ่งๆ... 1"</text><polygon fill="#A80036" points="327.5,1012.3,317.5,1016.3,327.5,1020.3,323.5,1016.3" style="stroke:#A80036;stroke-width:1.0;"/><line style="stroke:#A80036;stroke-width:1.0;stroke-dasharray:2.0,2.0;" x1="321.5" x2="483.5" y1="1016.3" y2="1016.3"/><text fill="#000000" font-family="Sarabun" font-size="13" lengthAdjust="spacing" textLength="117" x="342" y="1011.284">{status: "measuring"}</text><path d="M105,1045.3 L204,1045.3 L204,1053.3 L194,1063.3 L105,1063.3 L105,1045.3 " fill="#EEEEEE" style="stroke:#000000;stroke-width:1.0;"/><rect fill="none" height="257.1" style="stroke:#000000;stroke-width:2.0;" width="790.5" x="105" y="1045.3"/><text fill="#000000" font-family="Sarabun" font-size="13" font-weight="bold" lengthAdjust="spacing" textLength="54" x="120" y="1060.184">วัดสัดส่วน</text><line style="stroke:#A80036;stroke-width:1.0;" x1="494.5" x2="536.5" y1="1110.95" y2="1110.95"/><line style="stroke:#A80036;stroke-width:1.0;" x1="536.5" x2="536.5" y1="1110.95" y2="1123.95"/><line style="stroke:#A80036;stroke-width:1.0;" x1="495.5" x2="536.5" y1="1123.95" y2="1123.95"/><polygon fill="#A80036" points="505.5,1119.95,495.5,1123.95,505.5,1127.95,501.5,1123.95" style="stroke:#A80036;stroke-width:1.0;"/><text fill="#000000" font-family="Sarabun" font-size="13" lengthAdjust="spacing" textLength="161" x="501.5" y="1105.934">calculateMetrics(landmarks)</text><path d="M674,1069.2 L674,1146.2 L871,1146.2 L871,1079.2 L861,1069.2 L674,1069.2 " fill="#FBFB77" filter="url(#f12glbe5xghnl7)" style="stroke:#A80036;stroke-width:1.0;"/><path d="M861,1069.2 L861,1079.2 L871,1079.2 L861,1069.2 " fill="#FBFB77" style="stroke:#A80036;stroke-width:1.0;"/><text fill="#000000" font-family="Sarabun" font-size="13" font-weight="bold" lengthAdjust="spacing" textLength="60" x="680" y="1088.084">ข้อมูลที่วัด:</text><text fill="#000000" font-family="Sarabun" font-size="13" lengthAdjust="spacing" textLength="157" x="680" y="1104.984">- torsoHeight (ความสูงลำตัว)</text><text fill="#000000" font-family="Sarabun" font-size="13" lengthAdjust="spacing" textLength="176" x="680" y="1121.884">- shoulderWidth (ความกว้างไหล่)</text><text fill="#000000" font-family="Sarabun" font-size="13" lengthAdjust="spacing" textLength="154" x="680" y="1138.784">- armLength (ความยาวแขน)</text><line style="stroke:#A80036;stroke-width:1.0;" x1="494.5" x2="536.5" y1="1178.7" y2="1178.7"/><line style="stroke:#A80036;stroke-width:1.0;" x1="536.5" x2="536.5" y1="1178.7" y2="1191.7"/><line style="stroke:#A80036;stroke-width:1.0;" x1="495.5" x2="536.5" y1="1191.7" y2="1191.7"/><polygon fill="#A80036" points="505.5,1187.7,495.5,1191.7,505.5,1195.7,501.5,1191.7" style="stroke:#A80036;stroke-width:1.0;"/><text fill="#000000" font-family="Sarabun" font-size="13" lengthAdjust="spacing" textLength="92" x="501.5" y="1173.684">saveToStorage()</text><path d="M605,1162.3 L605,1188.3 L737,1188.3 L737,1172.3 L727,1162.3 L605,1162.3 " fill="#FBFB77" filter="url(#f12glbe5xghnl7)" style="stroke:#A80036;stroke-width:1.0;"/><path d="M727,1162.3 L727,1172.3 L737,1172.3 L727,1162.3 " fill="#FBFB77" style="stroke:#A80036;stroke-width:1.0;"/><text fill="#000000" font-family="Sarabun" font-size="13" lengthAdjust="spacing" textLength="111" x="611" y="1181.184">เก็บใน LocalStorage</text><polygon fill="#A80036" points="327.5,1218.6,317.5,1222.6,327.5,1226.6,323.5,1222.6" style="stroke:#A80036;stroke-width:1.0;"/><line style="stroke:#A80036;stroke-width:1.0;stroke-dasharray:2.0,2.0;" x1="321.5" x2="488.5" y1="1222.6" y2="1222.6"/><text fill="#000000" font-family="Sarabun" font-size="13" lengthAdjust="spacing" textLength="144" x="331" y="1217.584">{status: "complete", data}</text><polygon fill="#A80036" points="662.5,1254.5,672.5,1258.5,662.5,1262.5,666.5,1258.5" style="stroke:#A80036;stroke-width:1.0;"/><line style="stroke:#A80036;stroke-width:1.0;" x1="316.5" x2="668.5" y1="1258.5" y2="1258.5"/><text fill="#000000" font-family="Sarabun" font-size="13" lengthAdjust="spacing" textLength="114" x="438.5" y="1253.484">setCalibration(data)</text><path d="M679,1235.6 L679,1261.6 L838,1261.6 L838,1245.6 L828,1235.6 L679,1235.6 " fill="#FBFB77" filter="url(#f12glbe5xghnl7)" style="stroke:#A80036;stroke-width:1.0;"/><path d="M828,1235.6 L828,1245.6 L838,1245.6 L828,1235.6 " fill="#FBFB77" style="stroke:#A80036;stroke-width:1.0;"/><text fill="#000000" font-family="Sarabun" font-size="13" lengthAdjust="spacing" textLength="138" x="685" y="1254.484">ปรับ Dynamic Thresholds</text><polygon fill="#A80036" points="153.5,1290.4,143.5,1294.4,153.5,1298.4,149.5,1294.4" style="stroke:#A80036;stroke-width:1.0;"/><line style="stroke:#A80036;stroke-width:1.0;stroke-dasharray:2.0,2.0;" x1="147.5" x2="315.5" y1="1294.4" y2="1294.4"/><text fill="#000000" font-family="Sarabun" font-size="13" lengthAdjust="spacing" textLength="150" x="154.5" y="1289.384">"✅ ปรับเทียบเสร็จสมบูรณ์!"</text><!--MD5=[b4577bc8aad19d3ba255582654af14ff]
@startuml SequenceDiagram_Calibration
' ============================================================================
' TaijiFlow AI - Sequence Diagram: Calibration Process
' ============================================================================
' แสดงขั้นตอนการปรับเทียบสัดส่วนร่างกายด้วย T-Pose
' อ้างอิง: UC-01 Calibrate Body, calibration_manager.js
' ============================================================================

skinparam defaultFontName "Sarabun"
skinparam backgroundColor transparent
skinparam sequenceMessageAlign center

' === Participants ===
actor "ผู้ฝึก\n(User)" as User
participant "    UI    " as UI #E8F5E9
participant " Training " as Training #E3F2FD
participant "Calibrator" as Calibrator #FFF3E0
participant "Heuristics" as Heuristics #FFF3E0

' ============================================================================
' PHASE 1: START CALIBRATION
' ============================================================================

group #E3F2FD เริ่ม Calibration
    Training -> Calibrator : setLevel(currentLevel)
    note right
        L1-L2: ครึ่งบน
        L3: เห็นทั้งตัว
    end note
    
    Training -> Calibrator : start()
    activate Calibrator
    
    Calibrator - -> UI : แสดง Overlay "กรุณายืนกางแขน (T-Pose)"
end

' ============================================================================
' PHASE 2: VISIBILITY CHECK
' ============================================================================

group #FFF3E0 ตรวจ Visibility
    User -> User : ยืนในกล้อง
    
    loop จน visibility ผ่าน
        Training -> Calibrator : process(landmarks)
        
        alt visibility < 0.5
            Calibrator - -> UI : "ถอยหลังอีกนิด!"
            Calibrator - -> Training : {status: "adjusting"}
        else visibility ผ่าน
            Calibrator - -> UI : "กางแขนระดับไหล่"
        end
    end
end

' ============================================================================
' PHASE 3: T-POSE CHECK
' ============================================================================

group #FFF3E0 ตรวจท่า T-Pose
    User -> User : กางแขนท่า T 🧍
    
    loop จนกว่าแขนจะอยู่ระดับไหล่
        Training -> Calibrator : process(landmarks)
        
        alt |wristY - shoulderY| > 0.2
            Calibrator - -> UI : "กางแขนระดับไหล่"
            Calibrator - -> Training : {status: "adjusting"}
        else ท่าถูกต้อง
            Calibrator -> Calibrator : stableFrames++
        end
    end
end

' ============================================================================
' PHASE 4: COUNTDOWN (3 SECONDS)
' ============================================================================

group #E8F5E9 นับถอยหลัง (3 วินาที)
    loop stableFrames < 90 (~3 วินาที)
        Calibrator - -> UI : "อยู่นิ่งๆ... 3"
        Calibrator - -> UI : "อยู่นิ่งๆ... 2"
        Calibrator - -> UI : "อยู่นิ่งๆ... 1"
        Calibrator - -> Training : {status: "measuring"}
    end
end

' ============================================================================
' PHASE 5: CALCULATE & COMPLETE
' ============================================================================

group #E8F5E9 วัดสัดส่วน
    Calibrator -> Calibrator : calculateMetrics(landmarks)
    note right
        **ข้อมูลที่วัด:**
        - torsoHeight (ความสูงลำตัว)
        - shoulderWidth (ความกว้างไหล่)
        - armLength (ความยาวแขน)
    end note
    
    Calibrator -> Calibrator : saveToStorage()
    note right: เก็บใน LocalStorage
    
    Calibrator - -> Training : {status: "complete", data}
    deactivate Calibrator
    
    Training -> Heuristics : setCalibration(data)
    note right: ปรับ Dynamic Thresholds
    
    Training - -> UI : "✅ ปรับเทียบเสร็จสมบูรณ์!"
end

@enduml

@startuml SequenceDiagram_Calibration

skinparam defaultFontName "Sarabun"
skinparam backgroundColor transparent
skinparam sequenceMessageAlign center

actor "ผู้ฝึก\n(User)" as User
participant "    UI    " as UI #E8F5E9
participant " Training " as Training #E3F2FD
participant "Calibrator" as Calibrator #FFF3E0
participant "Heuristics" as Heuristics #FFF3E0


group #E3F2FD เริ่ม Calibration
    Training -> Calibrator : setLevel(currentLevel)
    note right
        L1-L2: ครึ่งบน
        L3: เห็นทั้งตัว
    end note
    
    Training -> Calibrator : start()
    activate Calibrator
    
    Calibrator - -> UI : แสดง Overlay "กรุณายืนกางแขน (T-Pose)"
end


group #FFF3E0 ตรวจ Visibility
    User -> User : ยืนในกล้อง
    
    loop จน visibility ผ่าน
        Training -> Calibrator : process(landmarks)
        
        alt visibility < 0.5
            Calibrator - -> UI : "ถอยหลังอีกนิด!"
            Calibrator - -> Training : {status: "adjusting"}
        else visibility ผ่าน
            Calibrator - -> UI : "กางแขนระดับไหล่"
        end
    end
end


group #FFF3E0 ตรวจท่า T-Pose
    User -> User : กางแขนท่า T 🧍
    
    loop จนกว่าแขนจะอยู่ระดับไหล่
        Training -> Calibrator : process(landmarks)
        
        alt |wristY - shoulderY| > 0.2
            Calibrator - -> UI : "กางแขนระดับไหล่"
            Calibrator - -> Training : {status: "adjusting"}
        else ท่าถูกต้อง
            Calibrator -> Calibrator : stableFrames++
        end
    end
end


group #E8F5E9 นับถอยหลัง (3 วินาที)
    loop stableFrames < 90 (~3 วินาที)
        Calibrator - -> UI : "อยู่นิ่งๆ... 3"
        Calibrator - -> UI : "อยู่นิ่งๆ... 2"
        Calibrator - -> UI : "อยู่นิ่งๆ... 1"
        Calibrator - -> Training : {status: "measuring"}
    end
end


group #E8F5E9 วัดสัดส่วน
    Calibrator -> Calibrator : calculateMetrics(landmarks)
    note right
        **ข้อมูลที่วัด:**
        - torsoHeight (ความสูงลำตัว)
        - shoulderWidth (ความกว้างไหล่)
        - armLength (ความยาวแขน)
    end note
    
    Calibrator -> Calibrator : saveToStorage()
    note right: เก็บใน LocalStorage
    
    Calibrator - -> Training : {status: "complete", data}
    deactivate Calibrator
    
    Training -> Heuristics : setCalibration(data)
    note right: ปรับ Dynamic Thresholds
    
    Training - -> UI : "✅ ปรับเทียบเสร็จสมบูรณ์!"
end

@enduml

PlantUML version 1.2021.00(Sun Jan 10 17:25:05 ICT 2021)
(MIT source distribution)
Java Runtime: OpenJDK Runtime Environment
JVM: OpenJDK 64-Bit Server VM
Default Encoding: UTF-8
Language: en
Country: US
--></g></svg>