<?xml version="1.0" encoding="UTF-8" standalone="no"?><svg xmlns="http://www.w3.org/2000/svg" xmlns:xlink="http://www.w3.org/1999/xlink" contentScriptType="application/ecmascript" contentStyleType="text/css" height="1496px" preserveAspectRatio="none" style="width:902px;height:1496px;background:#00000000;" version="1.1" viewBox="0 0 902 1496" width="902px" zoomAndPan="magnify"><defs><filter height="300%" id="fgd04wn0pirwt" width="300%" x="-1" y="-1"><feGaussianBlur result="blurOut" stdDeviation="2.0"/><feColorMatrix in="blurOut" result="blurOut2" type="matrix" values="0 0 0 0 0 0 0 0 0 0 0 0 0 0 0 0 0 0 .4 0"/><feOffset dx="4.0" dy="4.0" in="blurOut2" result="blurOut3"/><feBlend in="SourceGraphic" in2="blurOut3" mode="normal"/></filter></defs><g><rect fill="#FFFFFF" filter="url(#fgd04wn0pirwt)" height="1074.7" style="stroke:#A80036;stroke-width:1.0;" width="10" x="427.5" y="292.8"/><rect fill="#FFFFFF" filter="url(#fgd04wn0pirwt)" height="233.3" style="stroke:#A80036;stroke-width:1.0;" width="10" x="648.5" y="449.3"/><rect fill="#FFFFFF" filter="url(#fgd04wn0pirwt)" height="30.9" style="stroke:#A80036;stroke-width:1.0;" width="10" x="736" y="947.8"/><rect fill="#FFFFFF" filter="url(#fgd04wn0pirwt)" height="484.5" style="stroke:#A80036;stroke-width:1.0;" width="10" x="819" y="821.2"/><rect fill="#E3F2FD" filter="url(#fgd04wn0pirwt)" height="331.9" style="stroke:#000000;stroke-width:2.0;" width="692.5" x="10" y="125.4"/><rect fill="#FFFFFF" filter="url(#fgd04wn0pirwt)" height="80.7" style="stroke:#000000;stroke-width:2.0;" width="261" x="20" y="151.3"/><rect fill="#FFFFFF" filter="url(#fgd04wn0pirwt)" height="80.7" style="stroke:#000000;stroke-width:2.0;" width="233.5" x="246" y="307.8"/><rect fill="#FFF3E0" filter="url(#fgd04wn0pirwt)" height="294.1" style="stroke:#000000;stroke-width:2.0;" width="769.5" x="20" y="471.3"/><rect fill="#FFFFFF" filter="url(#fgd04wn0pirwt)" height="80.7" style="stroke:#000000;stroke-width:2.0;" width="317" x="385.5" y="572"/><rect fill="#E8F5E9" filter="url(#fgd04wn0pirwt)" height="283.1" style="stroke:#000000;stroke-width:2.0;" width="878.5" x="10" y="779.4"/><rect fill="#FFFFFF" filter="url(#fgd04wn0pirwt)" height="219.3" style="stroke:#000000;stroke-width:2.0;" width="858.5" x="20" y="836.2"/><rect fill="#FFFFFF" filter="url(#fgd04wn0pirwt)" height="142.5" style="stroke:#000000;stroke-width:2.0;" width="687.5" x="181" y="906"/><rect fill="#F3E5F5" filter="url(#fgd04wn0pirwt)" height="299" style="stroke:#000000;stroke-width:2.0;" width="848.5" x="20" y="1076.5"/><rect fill="#FFFFFF" filter="url(#fgd04wn0pirwt)" height="80.7" style="stroke:#000000;stroke-width:2.0;" width="233.5" x="246" y="1164.2"/><line style="stroke:#A80036;stroke-width:1.0;stroke-dasharray:5.0,5.0;" x1="50" x2="50" y1="108.4" y2="1392.5"/><line style="stroke:#A80036;stroke-width:1.0;stroke-dasharray:5.0,5.0;" x1="218" x2="218" y1="108.4" y2="1392.5"/><line style="stroke:#A80036;stroke-width:1.0;stroke-dasharray:5.0,5.0;" x1="291" x2="291" y1="108.4" y2="1392.5"/><line style="stroke:#A80036;stroke-width:1.0;stroke-dasharray:5.0,5.0;" x1="432.5" x2="432.5" y1="108.4" y2="1392.5"/><line style="stroke:#A80036;stroke-width:1.0;stroke-dasharray:5.0,5.0;" x1="653.5" x2="653.5" y1="108.4" y2="1392.5"/><line style="stroke:#A80036;stroke-width:1.0;stroke-dasharray:5.0,5.0;" x1="740.5" x2="740.5" y1="108.4" y2="1392.5"/><line style="stroke:#A80036;stroke-width:1.0;stroke-dasharray:5.0,5.0;" x1="823.5" x2="823.5" y1="108.4" y2="1392.5"/><text fill="#000000" font-family="Sarabun" font-size="14" lengthAdjust="spacing" textLength="26" x="34.5" y="86.952">ผู้ฝึก</text><text fill="#000000" font-family="Sarabun" font-size="14" lengthAdjust="spacing" textLength="35" x="30" y="105.152">(User)</text><ellipse cx="50.5" cy="15" fill="#FEFECE" filter="url(#fgd04wn0pirwt)" rx="8" ry="8" style="stroke:#A80036;stroke-width:2.0;"/><path d="M50.5,23 L50.5,50 M37.5,31 L63.5,31 M50.5,50 L37.5,65 M50.5,50 L63.5,65 " fill="none" filter="url(#fgd04wn0pirwt)" style="stroke:#A80036;stroke-width:2.0;"/><text fill="#000000" font-family="Sarabun" font-size="14" lengthAdjust="spacing" textLength="26" x="34.5" y="1406.452">ผู้ฝึก</text><text fill="#000000" font-family="Sarabun" font-size="14" lengthAdjust="spacing" textLength="35" x="30" y="1424.652">(User)</text><ellipse cx="50.5" cy="1437.9" fill="#FEFECE" filter="url(#fgd04wn0pirwt)" rx="8" ry="8" style="stroke:#A80036;stroke-width:2.0;"/><path d="M50.5,1445.9 L50.5,1472.9 M37.5,1453.9 L63.5,1453.9 M50.5,1472.9 L37.5,1487.9 M50.5,1472.9 L63.5,1487.9 " fill="none" filter="url(#fgd04wn0pirwt)" style="stroke:#A80036;stroke-width:2.0;"/><rect fill="#E8F5E9" filter="url(#fgd04wn0pirwt)" height="32.2" style="stroke:#A80036;stroke-width:1.5;" width="51" x="191" y="71.2"/><text fill="#000000" font-family="Sarabun" font-size="14" lengthAdjust="spacing" textLength="13" x="210" y="93.152">UI</text><rect fill="#E8F5E9" filter="url(#fgd04wn0pirwt)" height="32.2" style="stroke:#A80036;stroke-width:1.5;" width="51" x="191" y="1391.5"/><text fill="#000000" font-family="Sarabun" font-size="14" lengthAdjust="spacing" textLength="13" x="210" y="1413.452">UI</text><rect fill="#E8F5E9" filter="url(#fgd04wn0pirwt)" height="32.2" style="stroke:#A80036;stroke-width:1.5;" width="67" x="256" y="71.2"/><text fill="#000000" font-family="Sarabun" font-size="14" lengthAdjust="spacing" textLength="47" x="266" y="93.152">Gesture</text><rect fill="#E8F5E9" filter="url(#fgd04wn0pirwt)" height="32.2" style="stroke:#A80036;stroke-width:1.5;" width="67" x="256" y="1391.5"/><text fill="#000000" font-family="Sarabun" font-size="14" lengthAdjust="spacing" textLength="47" x="266" y="1413.452">Gesture</text><rect fill="#E3F2FD" filter="url(#fgd04wn0pirwt)" height="32.2" style="stroke:#A80036;stroke-width:1.5;" width="70" x="395.5" y="71.2"/><text fill="#000000" font-family="Sarabun" font-size="14" lengthAdjust="spacing" textLength="50" x="405.5" y="93.152">Training</text><rect fill="#E3F2FD" filter="url(#fgd04wn0pirwt)" height="32.2" style="stroke:#A80036;stroke-width:1.5;" width="70" x="395.5" y="1391.5"/><text fill="#000000" font-family="Sarabun" font-size="14" lengthAdjust="spacing" textLength="50" x="405.5" y="1413.452">Training</text><rect fill="#FFF3E0" filter="url(#fgd04wn0pirwt)" height="32.2" style="stroke:#A80036;stroke-width:1.5;" width="74" x="614.5" y="71.2"/><text fill="#000000" font-family="Sarabun" font-size="14" lengthAdjust="spacing" textLength="60" x="621.5" y="93.152">Calibrator</text><rect fill="#FFF3E0" filter="url(#fgd04wn0pirwt)" height="32.2" style="stroke:#A80036;stroke-width:1.5;" width="74" x="614.5" y="1391.5"/><text fill="#000000" font-family="Sarabun" font-size="14" lengthAdjust="spacing" textLength="60" x="621.5" y="1413.452">Calibrator</text><rect fill="#FFF3E0" filter="url(#fgd04wn0pirwt)" height="32.2" style="stroke:#A80036;stroke-width:1.5;" width="73" x="702.5" y="71.2"/><text fill="#000000" font-family="Sarabun" font-size="14" lengthAdjust="spacing" textLength="59" x="709.5" y="93.152">Heuristics</text><rect fill="#FFF3E0" filter="url(#fgd04wn0pirwt)" height="32.2" style="stroke:#A80036;stroke-width:1.5;" width="73" x="702.5" y="1391.5"/><text fill="#000000" font-family="Sarabun" font-size="14" lengthAdjust="spacing" textLength="59" x="709.5" y="1413.452">Heuristics</text><rect fill="#FFF3E0" filter="url(#fgd04wn0pirwt)" height="32.2" style="stroke:#A80036;stroke-width:1.5;" width="65" x="789.5" y="71.2"/><text fill="#000000" font-family="Sarabun" font-size="14" lengthAdjust="spacing" textLength="39" x="802.5" y="93.152">Scorer</text><rect fill="#FFF3E0" filter="url(#fgd04wn0pirwt)" height="32.2" style="stroke:#A80036;stroke-width:1.5;" width="65" x="789.5" y="1391.5"/><text fill="#000000" font-family="Sarabun" font-size="14" lengthAdjust="spacing" textLength="39" x="802.5" y="1413.452">Scorer</text><rect fill="#FFFFFF" filter="url(#fgd04wn0pirwt)" height="1074.7" style="stroke:#A80036;stroke-width:1.0;" width="10" x="427.5" y="292.8"/><rect fill="#FFFFFF" filter="url(#fgd04wn0pirwt)" height="233.3" style="stroke:#A80036;stroke-width:1.0;" width="10" x="648.5" y="449.3"/><rect fill="#FFFFFF" filter="url(#fgd04wn0pirwt)" height="30.9" style="stroke:#A80036;stroke-width:1.0;" width="10" x="736" y="947.8"/><rect fill="#FFFFFF" filter="url(#fgd04wn0pirwt)" height="484.5" style="stroke:#A80036;stroke-width:1.0;" width="10" x="819" y="821.2"/><path d="M10,125.4 L204,125.4 L204,133.4 L194,143.4 L10,143.4 L10,125.4 " fill="#EEEEEE" style="stroke:#000000;stroke-width:1.0;"/><rect fill="none" height="331.9" style="stroke:#000000;stroke-width:2.0;" width="692.5" x="10" y="125.4"/><text fill="#000000" font-family="Sarabun" font-size="13" font-weight="bold" lengthAdjust="spacing" textLength="149" x="25" y="140.284">เริ่มการฝึก (Start Training)</text><path d="M20,151.3 L85,151.3 L85,159.3 L75,169.3 L20,169.3 L20,151.3 " fill="#EEEEEE" style="stroke:#000000;stroke-width:1.0;"/><rect fill="none" height="80.7" style="stroke:#000000;stroke-width:2.0;" width="261" x="20" y="151.3"/><text fill="#000000" font-family="Sarabun" font-size="13" font-weight="bold" lengthAdjust="spacing" textLength="20" x="35" y="166.184">opt</text><text fill="#000000" font-family="Sarabun" font-size="11" font-weight="bold" lengthAdjust="spacing" textLength="176" x="100" y="165.048">[เลือกท่า/ระดับ (ถ้าไม่ใช้ค่า default)]</text><polygon fill="#A80036" points="206.5,189.1,216.5,193.1,206.5,197.1,210.5,193.1" style="stroke:#A80036;stroke-width:1.0;"/><line style="stroke:#A80036;stroke-width:1.0;" x1="50.5" x2="212.5" y1="193.1" y2="193.1"/><text fill="#000000" font-family="Sarabun" font-size="13" lengthAdjust="spacing" textLength="99" x="85" y="188.084">เลือกท่า (Exercise)</text><polygon fill="#A80036" points="206.5,220,216.5,224,206.5,228,210.5,224" style="stroke:#A80036;stroke-width:1.0;"/><line style="stroke:#A80036;stroke-width:1.0;" x1="50.5" x2="212.5" y1="224" y2="224"/><text fill="#000000" font-family="Sarabun" font-size="13" lengthAdjust="spacing" textLength="98" x="85.5" y="218.984">เลือกระดับ (Level)</text><polygon fill="#A80036" points="206.5,257.9,216.5,261.9,206.5,265.9,210.5,261.9" style="stroke:#A80036;stroke-width:1.0;"/><line style="stroke:#A80036;stroke-width:1.0;" x1="50.5" x2="212.5" y1="261.9" y2="261.9"/><text fill="#000000" font-family="Sarabun" font-size="13" lengthAdjust="spacing" textLength="144" x="62.5" y="256.884">กดปุ่ม Start / ยกนิ้วโป้ง &#128077;</text><polygon fill="#A80036" points="415.5,288.8,425.5,292.8,415.5,296.8,419.5,292.8" style="stroke:#A80036;stroke-width:1.0;"/><line style="stroke:#A80036;stroke-width:1.0;" x1="218.5" x2="421.5" y1="292.8" y2="292.8"/><text fill="#000000" font-family="Sarabun" font-size="13" lengthAdjust="spacing" textLength="108" x="269" y="287.784">startTrainingFlow()</text><path d="M246,307.8 L307,307.8 L307,315.8 L297,325.8 L246,325.8 L246,307.8 " fill="#EEEEEE" style="stroke:#000000;stroke-width:1.0;"/><rect fill="none" height="80.7" style="stroke:#000000;stroke-width:2.0;" width="233.5" x="246" y="307.8"/><text fill="#000000" font-family="Sarabun" font-size="13" font-weight="bold" lengthAdjust="spacing" textLength="16" x="261" y="322.684">alt</text><text fill="#000000" font-family="Sarabun" font-size="11" font-weight="bold" lengthAdjust="spacing" textLength="91" x="322" y="321.548">[ใช้ Gesture Start]</text><polygon fill="#A80036" points="302.5,345.6,292.5,349.6,302.5,353.6,298.5,349.6" style="stroke:#A80036;stroke-width:1.0;"/><line style="stroke:#A80036;stroke-width:1.0;" x1="296.5" x2="426.5" y1="349.6" y2="349.6"/><text fill="#000000" font-family="Sarabun" font-size="13" lengthAdjust="spacing" textLength="94" x="312.5" y="344.584">detectGestures()</text><polygon fill="#A80036" points="415.5,376.5,425.5,380.5,415.5,384.5,419.5,380.5" style="stroke:#A80036;stroke-width:1.0;"/><line style="stroke:#A80036;stroke-width:1.0;stroke-dasharray:2.0,2.0;" x1="291.5" x2="421.5" y1="380.5" y2="380.5"/><text fill="#000000" font-family="Sarabun" font-size="13" lengthAdjust="spacing" textLength="112" x="303.5" y="375.484">thumbsUp detected</text><polygon fill="#A80036" points="641.5,414.4,651.5,418.4,641.5,422.4,645.5,418.4" style="stroke:#A80036;stroke-width:1.0;"/><line style="stroke:#A80036;stroke-width:1.0;" x1="437.5" x2="647.5" y1="418.4" y2="418.4"/><text fill="#000000" font-family="Sarabun" font-size="13" lengthAdjust="spacing" textLength="129" x="481" y="413.384">setLevel(currentLevel)</text><polygon fill="#A80036" points="636.5,445.3,646.5,449.3,636.5,453.3,640.5,449.3" style="stroke:#A80036;stroke-width:1.0;"/><line style="stroke:#A80036;stroke-width:1.0;" x1="437.5" x2="642.5" y1="449.3" y2="449.3"/><text fill="#000000" font-family="Sarabun" font-size="13" lengthAdjust="spacing" textLength="35" x="525.5" y="444.284">start()</text><path d="M20,471.3 L185,471.3 L185,479.3 L175,489.3 L20,489.3 L20,471.3 " fill="#EEEEEE" style="stroke:#000000;stroke-width:1.0;"/><rect fill="none" height="294.1" style="stroke:#000000;stroke-width:2.0;" width="769.5" x="20" y="471.3"/><text fill="#000000" font-family="Sarabun" font-size="13" font-weight="bold" lengthAdjust="spacing" textLength="120" x="35" y="486.184">Calibration (T-Pose)</text><polygon fill="#A80036" points="229.5,509.1,219.5,513.1,229.5,517.1,225.5,513.1" style="stroke:#A80036;stroke-width:1.0;"/><line style="stroke:#A80036;stroke-width:1.0;stroke-dasharray:2.0,2.0;" x1="223.5" x2="647.5" y1="513.1" y2="513.1"/><text fill="#000000" font-family="Sarabun" font-size="13" lengthAdjust="spacing" textLength="111" x="378" y="508.084">แสดง "กางแขนท่า T"</text><line style="stroke:#A80036;stroke-width:1.0;" x1="50.5" x2="92.5" y1="544" y2="544"/><line style="stroke:#A80036;stroke-width:1.0;" x1="92.5" x2="92.5" y1="544" y2="557"/><line style="stroke:#A80036;stroke-width:1.0;" x1="51.5" x2="92.5" y1="557" y2="557"/><polygon fill="#A80036" points="61.5,553,51.5,557,61.5,561,57.5,557" style="stroke:#A80036;stroke-width:1.0;"/><text fill="#000000" font-family="Sarabun" font-size="13" lengthAdjust="spacing" textLength="90" x="57.5" y="538.984">ทำท่า T-Pose &#129485;</text><path d="M385.5,572 L457.5,572 L457.5,580 L447.5,590 L385.5,590 L385.5,572 " fill="#EEEEEE" style="stroke:#000000;stroke-width:1.0;"/><rect fill="none" height="80.7" style="stroke:#000000;stroke-width:2.0;" width="317" x="385.5" y="572"/><text fill="#000000" font-family="Sarabun" font-size="13" font-weight="bold" lengthAdjust="spacing" textLength="27" x="400.5" y="586.884">loop</text><text fill="#000000" font-family="Sarabun" font-size="11" font-weight="bold" lengthAdjust="spacing" textLength="177" x="472.5" y="585.748">[จนกว่าจะครบ 3 วินาที (Time-based)]</text><polygon fill="#A80036" points="636.5,609.8,646.5,613.8,636.5,617.8,640.5,613.8" style="stroke:#A80036;stroke-width:1.0;"/><line style="stroke:#A80036;stroke-width:1.0;" x1="437.5" x2="642.5" y1="613.8" y2="613.8"/><text fill="#000000" font-family="Sarabun" font-size="13" lengthAdjust="spacing" textLength="109" x="488.5" y="608.784">process(landmarks)</text><polygon fill="#A80036" points="448.5,640.7,438.5,644.7,448.5,648.7,444.5,644.7" style="stroke:#A80036;stroke-width:1.0;"/><line style="stroke:#A80036;stroke-width:1.0;stroke-dasharray:2.0,2.0;" x1="442.5" x2="647.5" y1="644.7" y2="644.7"/><text fill="#000000" font-family="Sarabun" font-size="13" lengthAdjust="spacing" textLength="187" x="449.5" y="639.684">{status: "adjusting" | "measuring"}</text><polygon fill="#A80036" points="448.5,678.6,438.5,682.6,448.5,686.6,444.5,682.6" style="stroke:#A80036;stroke-width:1.0;"/><line style="stroke:#A80036;stroke-width:1.0;stroke-dasharray:2.0,2.0;" x1="442.5" x2="652.5" y1="682.6" y2="682.6"/><text fill="#000000" font-family="Sarabun" font-size="13" lengthAdjust="spacing" textLength="144" x="473.5" y="677.584">{status: "complete", data}</text><polygon fill="#A80036" points="729,709.5,739,713.5,729,717.5,733,713.5" style="stroke:#A80036;stroke-width:1.0;"/><line style="stroke:#A80036;stroke-width:1.0;" x1="437.5" x2="735" y1="713.5" y2="713.5"/><text fill="#000000" font-family="Sarabun" font-size="13" lengthAdjust="spacing" textLength="114" x="532.25" y="708.484">setCalibration(data)</text><line style="stroke:#A80036;stroke-width:1.0;" x1="437.5" x2="479.5" y1="744.4" y2="744.4"/><line style="stroke:#A80036;stroke-width:1.0;" x1="479.5" x2="479.5" y1="744.4" y2="757.4"/><line style="stroke:#A80036;stroke-width:1.0;" x1="438.5" x2="479.5" y1="757.4" y2="757.4"/><polygon fill="#A80036" points="448.5,753.4,438.5,757.4,448.5,761.4,444.5,757.4" style="stroke:#A80036;stroke-width:1.0;"/><text fill="#000000" font-family="Sarabun" font-size="13" lengthAdjust="spacing" textLength="173" x="444.5" y="739.384">startTrainingAfterCalibration()</text><path d="M10,779.4 L187,779.4 L187,787.4 L177,797.4 L10,797.4 L10,779.4 " fill="#EEEEEE" style="stroke:#000000;stroke-width:1.0;"/><rect fill="none" height="283.1" style="stroke:#000000;stroke-width:2.0;" width="878.5" x="10" y="779.4"/><text fill="#000000" font-family="Sarabun" font-size="13" font-weight="bold" lengthAdjust="spacing" textLength="132" x="25" y="794.284">การฝึก (Training Loop)</text><polygon fill="#A80036" points="807,817.2,817,821.2,807,825.2,811,821.2" style="stroke:#A80036;stroke-width:1.0;"/><line style="stroke:#A80036;stroke-width:1.0;" x1="437.5" x2="813" y1="821.2" y2="821.2"/><text fill="#000000" font-family="Sarabun" font-size="13" lengthAdjust="spacing" textLength="35" x="610.75" y="816.184">start()</text><path d="M20,836.2 L92,836.2 L92,844.2 L82,854.2 L20,854.2 L20,836.2 " fill="#EEEEEE" style="stroke:#000000;stroke-width:1.0;"/><rect fill="none" height="219.3" style="stroke:#000000;stroke-width:2.0;" width="858.5" x="20" y="836.2"/><text fill="#000000" font-family="Sarabun" font-size="13" font-weight="bold" lengthAdjust="spacing" textLength="27" x="35" y="851.084">loop</text><text fill="#000000" font-family="Sarabun" font-size="11" font-weight="bold" lengthAdjust="spacing" textLength="110" x="107" y="849.948">[Frame Loop (30 FPS)]</text><line style="stroke:#A80036;stroke-width:1.0;" x1="50.5" x2="92.5" y1="878" y2="878"/><line style="stroke:#A80036;stroke-width:1.0;" x1="92.5" x2="92.5" y1="878" y2="891"/><line style="stroke:#A80036;stroke-width:1.0;" x1="51.5" x2="92.5" y1="891" y2="891"/><polygon fill="#A80036" points="61.5,887,51.5,891,61.5,895,57.5,891" style="stroke:#A80036;stroke-width:1.0;"/><text fill="#000000" font-family="Sarabun" font-size="13" lengthAdjust="spacing" textLength="94" x="57.5" y="872.984">ฝึกท่าม้วนไหม &#127744;</text><path d="M181,906 L246,906 L246,914 L236,924 L181,924 L181,906 " fill="#EEEEEE" style="stroke:#000000;stroke-width:1.0;"/><rect fill="none" height="142.5" style="stroke:#000000;stroke-width:2.0;" width="687.5" x="181" y="906"/><text fill="#000000" font-family="Sarabun" font-size="13" font-weight="bold" lengthAdjust="spacing" textLength="20" x="196" y="920.884">opt</text><text fill="#000000" font-family="Sarabun" font-size="11" font-weight="bold" lengthAdjust="spacing" textLength="153" x="261" y="919.748">[Throttled Analysis (~7.5 FPS)]</text><polygon fill="#A80036" points="724,943.8,734,947.8,724,951.8,728,947.8" style="stroke:#A80036;stroke-width:1.0;"/><line style="stroke:#A80036;stroke-width:1.0;" x1="437.5" x2="730" y1="947.8" y2="947.8"/><text fill="#000000" font-family="Sarabun" font-size="13" lengthAdjust="spacing" textLength="111" x="531.25" y="942.784">analyze(landmarks)</text><polygon fill="#A80036" points="448.5,974.7,438.5,978.7,448.5,982.7,444.5,978.7" style="stroke:#A80036;stroke-width:1.0;"/><line style="stroke:#A80036;stroke-width:1.0;stroke-dasharray:2.0,2.0;" x1="442.5" x2="740" y1="978.7" y2="978.7"/><text fill="#000000" font-family="Sarabun" font-size="13" lengthAdjust="spacing" textLength="64" x="557.25" y="973.684">feedbacks[]</text><polygon fill="#A80036" points="807,1005.6,817,1009.6,807,1013.6,811,1009.6" style="stroke:#A80036;stroke-width:1.0;"/><line style="stroke:#A80036;stroke-width:1.0;" x1="437.5" x2="813" y1="1009.6" y2="1009.6"/><text fill="#000000" font-family="Sarabun" font-size="13" lengthAdjust="spacing" textLength="138" x="559.25" y="1004.584">recordFrame(feedbacks)</text><polygon fill="#A80036" points="229.5,1036.5,219.5,1040.5,229.5,1044.5,225.5,1040.5" style="stroke:#A80036;stroke-width:1.0;"/><line style="stroke:#A80036;stroke-width:1.0;stroke-dasharray:2.0,2.0;" x1="223.5" x2="426.5" y1="1040.5" y2="1040.5"/><text fill="#000000" font-family="Sarabun" font-size="13" lengthAdjust="spacing" textLength="84" x="281" y="1035.484">แสดง feedback</text><path d="M20,1076.5 L220,1076.5 L220,1084.5 L210,1094.5 L20,1094.5 L20,1076.5 " fill="#EEEEEE" style="stroke:#000000;stroke-width:1.0;"/><rect fill="none" height="299" style="stroke:#000000;stroke-width:2.0;" width="848.5" x="20" y="1076.5"/><text fill="#000000" font-family="Sarabun" font-size="13" font-weight="bold" lengthAdjust="spacing" textLength="155" x="35" y="1091.384">สิ้นสุดการฝึก (End Training)</text><polygon fill="#A80036" points="206.5,1114.3,216.5,1118.3,206.5,1122.3,210.5,1118.3" style="stroke:#A80036;stroke-width:1.0;"/><line style="stroke:#A80036;stroke-width:1.0;" x1="50.5" x2="212.5" y1="1118.3" y2="1118.3"/><text fill="#000000" font-family="Sarabun" font-size="13" lengthAdjust="spacing" textLength="121" x="74" y="1113.284">กดปุ่ม Stop / กำมือ ✊</text><polygon fill="#A80036" points="415.5,1145.2,425.5,1149.2,415.5,1153.2,419.5,1149.2" style="stroke:#A80036;stroke-width:1.0;"/><line style="stroke:#A80036;stroke-width:1.0;" x1="218.5" x2="421.5" y1="1149.2" y2="1149.2"/><text fill="#000000" font-family="Sarabun" font-size="13" lengthAdjust="spacing" textLength="116" x="265" y="1144.184">endTrainingSession()</text><path d="M246,1164.2 L307,1164.2 L307,1172.2 L297,1182.2 L246,1182.2 L246,1164.2 " fill="#EEEEEE" style="stroke:#000000;stroke-width:1.0;"/><rect fill="none" height="80.7" style="stroke:#000000;stroke-width:2.0;" width="233.5" x="246" y="1164.2"/><text fill="#000000" font-family="Sarabun" font-size="13" font-weight="bold" lengthAdjust="spacing" textLength="16" x="261" y="1179.084">alt</text><text fill="#000000" font-family="Sarabun" font-size="11" font-weight="bold" lengthAdjust="spacing" textLength="88" x="322" y="1177.948">[ใช้ Gesture Stop]</text><polygon fill="#A80036" points="302.5,1202,292.5,1206,302.5,1210,298.5,1206" style="stroke:#A80036;stroke-width:1.0;"/><line style="stroke:#A80036;stroke-width:1.0;" x1="296.5" x2="426.5" y1="1206" y2="1206"/><text fill="#000000" font-family="Sarabun" font-size="13" lengthAdjust="spacing" textLength="94" x="312.5" y="1200.984">detectGestures()</text><polygon fill="#A80036" points="415.5,1232.9,425.5,1236.9,415.5,1240.9,419.5,1236.9" style="stroke:#A80036;stroke-width:1.0;"/><line style="stroke:#A80036;stroke-width:1.0;stroke-dasharray:2.0,2.0;" x1="291.5" x2="421.5" y1="1236.9" y2="1236.9"/><text fill="#000000" font-family="Sarabun" font-size="13" lengthAdjust="spacing" textLength="71" x="324" y="1231.884">fist detected</text><polygon fill="#A80036" points="807,1270.8,817,1274.8,807,1278.8,811,1274.8" style="stroke:#A80036;stroke-width:1.0;"/><line style="stroke:#A80036;stroke-width:1.0;" x1="437.5" x2="813" y1="1274.8" y2="1274.8"/><text fill="#000000" font-family="Sarabun" font-size="13" lengthAdjust="spacing" textLength="81" x="587.75" y="1269.784">getSummary()</text><polygon fill="#A80036" points="448.5,1301.7,438.5,1305.7,448.5,1309.7,444.5,1305.7" style="stroke:#A80036;stroke-width:1.0;"/><line style="stroke:#A80036;stroke-width:1.0;stroke-dasharray:2.0,2.0;" x1="442.5" x2="823" y1="1305.7" y2="1305.7"/><text fill="#000000" font-family="Sarabun" font-size="13" lengthAdjust="spacing" textLength="153" x="554.25" y="1300.684">{score, totalFrames, grade}</text><polygon fill="#A80036" points="229.5,1332.6,219.5,1336.6,229.5,1340.6,225.5,1336.6" style="stroke:#A80036;stroke-width:1.0;"/><line style="stroke:#A80036;stroke-width:1.0;stroke-dasharray:2.0,2.0;" x1="223.5" x2="426.5" y1="1336.6" y2="1336.6"/><text fill="#000000" font-family="Sarabun" font-size="13" lengthAdjust="spacing" textLength="105" x="270.5" y="1331.584">แสดงผลคะแนน &#128202;</text><polygon fill="#A80036" points="61.5,1363.5,51.5,1367.5,61.5,1371.5,57.5,1367.5" style="stroke:#A80036;stroke-width:1.0;"/><line style="stroke:#A80036;stroke-width:1.0;stroke-dasharray:2.0,2.0;" x1="55.5" x2="217.5" y1="1367.5" y2="1367.5"/><text fill="#000000" font-family="Sarabun" font-size="13" lengthAdjust="spacing" textLength="70" x="99.5" y="1362.484">Score Popup</text><!--MD5=[fafaf56157ac5e3be46d1cbf437cf8a4]
@startuml SequenceDiagram_TrainingFlow
' ============================================================================
' TaijiFlow AI - Sequence Diagram: Training Flow (Main)
' ============================================================================
' แสดง Flow หลักของการฝึกท่าม้วนไหมตั้งแต่เริ่มจนจบ
' อ้างอิง: UC-02 Perform Training
' ============================================================================

skinparam defaultFontName "Sarabun"
skinparam backgroundColor transparent
skinparam sequenceMessageAlign center

' === Participants (6 ตัวหลัก - ชื่อสั้นเพื่ออ่านง่าย) ===
actor "ผู้ฝึก\n(User)" as User
participant "    UI    " as UI #E8F5E9
participant " Gesture " as Gesture #E8F5E9
participant " Training " as Training #E3F2FD
participant "Calibrator" as Calibration #FFF3E0
participant "Heuristics" as Heuristics #FFF3E0
participant "  Scorer  " as Scoring #FFF3E0

' ============================================================================
' PHASE 1: START TRAINING
' ============================================================================

group #E3F2FD เริ่มการฝึก (Start Training)
    opt เลือกท่า/ระดับ (ถ้าไม่ใช้ค่า default)
        User -> UI : เลือกท่า (Exercise)
        User -> UI : เลือกระดับ (Level)
    end
    
    User -> UI : กดปุ่ม Start / ยกนิ้วโป้ง 👍
    UI -> Training : startTrainingFlow()
    activate Training
    
    alt ใช้ Gesture Start
        Training -> Gesture : detectGestures()
        Gesture - -> Training : thumbsUp detected
    end
    
    Training -> Calibration : setLevel(currentLevel)
    Training -> Calibration : start()
    activate Calibration
end

' ============================================================================
' PHASE 2: CALIBRATION (T-POSE)
' ============================================================================

group #FFF3E0 Calibration (T-Pose)
    Calibration - -> UI : แสดง "กางแขนท่า T"
    User -> User : ทำท่า T-Pose 🧍
    
    loop จนกว่าจะครบ 3 วินาที (Time-based)
        Training -> Calibration : process(landmarks)
        Calibration - -> Training : {status: "adjusting" | "measuring"}
    end
    
    Calibration - -> Training : {status: "complete", data}
    deactivate Calibration
    
    Training -> Heuristics : setCalibration(data)
    Training -> Training : startTrainingAfterCalibration()
end

' ============================================================================
' PHASE 3: TRAINING LOOP (MAIN)
' ============================================================================

group #E8F5E9 การฝึก (Training Loop)
    Training -> Scoring : start()
    activate Scoring
    
    loop Frame Loop (30 FPS)
        User -> User : ฝึกท่าม้วนไหม 🌀
        
        opt Throttled Analysis (~7.5 FPS)
            Training -> Heuristics : analyze(landmarks)
            activate Heuristics
            Heuristics - -> Training : feedbacks[]
            deactivate Heuristics
            
            Training -> Scoring : recordFrame(feedbacks)
            Training - -> UI : แสดง feedback
        end
    end
end

' ============================================================================
' PHASE 4: END & RESULT
' ============================================================================

group #F3E5F5 สิ้นสุดการฝึก (End Training)
    User -> UI : กดปุ่ม Stop / กำมือ ✊
    UI -> Training : endTrainingSession()
    
    alt ใช้ Gesture Stop
        Training -> Gesture : detectGestures()
        Gesture - -> Training : fist detected
    end
    
    Training -> Scoring : getSummary()
    Scoring - -> Training : {score, totalFrames, grade}
    deactivate Scoring
    
    Training - -> UI : แสดงผลคะแนน 📊
    UI - -> User : Score Popup
    deactivate Training
end

@enduml

@startuml SequenceDiagram_TrainingFlow

skinparam defaultFontName "Sarabun"
skinparam backgroundColor transparent
skinparam sequenceMessageAlign center

actor "ผู้ฝึก\n(User)" as User
participant "    UI    " as UI #E8F5E9
participant " Gesture " as Gesture #E8F5E9
participant " Training " as Training #E3F2FD
participant "Calibrator" as Calibration #FFF3E0
participant "Heuristics" as Heuristics #FFF3E0
participant "  Scorer  " as Scoring #FFF3E0


group #E3F2FD เริ่มการฝึก (Start Training)
    opt เลือกท่า/ระดับ (ถ้าไม่ใช้ค่า default)
        User -> UI : เลือกท่า (Exercise)
        User -> UI : เลือกระดับ (Level)
    end
    
    User -> UI : กดปุ่ม Start / ยกนิ้วโป้ง 👍
    UI -> Training : startTrainingFlow()
    activate Training
    
    alt ใช้ Gesture Start
        Training -> Gesture : detectGestures()
        Gesture - -> Training : thumbsUp detected
    end
    
    Training -> Calibration : setLevel(currentLevel)
    Training -> Calibration : start()
    activate Calibration
end


group #FFF3E0 Calibration (T-Pose)
    Calibration - -> UI : แสดง "กางแขนท่า T"
    User -> User : ทำท่า T-Pose 🧍
    
    loop จนกว่าจะครบ 3 วินาที (Time-based)
        Training -> Calibration : process(landmarks)
        Calibration - -> Training : {status: "adjusting" | "measuring"}
    end
    
    Calibration - -> Training : {status: "complete", data}
    deactivate Calibration
    
    Training -> Heuristics : setCalibration(data)
    Training -> Training : startTrainingAfterCalibration()
end


group #E8F5E9 การฝึก (Training Loop)
    Training -> Scoring : start()
    activate Scoring
    
    loop Frame Loop (30 FPS)
        User -> User : ฝึกท่าม้วนไหม 🌀
        
        opt Throttled Analysis (~7.5 FPS)
            Training -> Heuristics : analyze(landmarks)
            activate Heuristics
            Heuristics - -> Training : feedbacks[]
            deactivate Heuristics
            
            Training -> Scoring : recordFrame(feedbacks)
            Training - -> UI : แสดง feedback
        end
    end
end


group #F3E5F5 สิ้นสุดการฝึก (End Training)
    User -> UI : กดปุ่ม Stop / กำมือ ✊
    UI -> Training : endTrainingSession()
    
    alt ใช้ Gesture Stop
        Training -> Gesture : detectGestures()
        Gesture - -> Training : fist detected
    end
    
    Training -> Scoring : getSummary()
    Scoring - -> Training : {score, totalFrames, grade}
    deactivate Scoring
    
    Training - -> UI : แสดงผลคะแนน 📊
    UI - -> User : Score Popup
    deactivate Training
end

@enduml

PlantUML version 1.2021.00(Sun Jan 10 17:25:05 ICT 2021)
(MIT source distribution)
Java Runtime: OpenJDK Runtime Environment
JVM: OpenJDK 64-Bit Server VM
Default Encoding: UTF-8
Language: en
Country: US
--></g></svg>