<?xml version="1.0" encoding="UTF-8" standalone="no"?><svg xmlns="http://www.w3.org/2000/svg" xmlns:xlink="http://www.w3.org/1999/xlink" contentScriptType="application/ecmascript" contentStyleType="text/css" height="1463px" preserveAspectRatio="none" style="width:868px;height:1463px;background:#00000000;" version="1.1" viewBox="0 0 868 1463" width="868px" zoomAndPan="magnify"><defs><filter height="300%" id="f1w4inqgl3uix" width="300%" x="-1" y="-1"><feGaussianBlur result="blurOut" stdDeviation="2.0"/><feColorMatrix in="blurOut" result="blurOut2" type="matrix" values="0 0 0 0 0 0 0 0 0 0 0 0 0 0 0 0 0 0 .4 0"/><feOffset dx="4.0" dy="4.0" in="blurOut2" result="blurOut3"/><feBlend in="SourceGraphic" in2="blurOut3" mode="normal"/></filter></defs><g><rect fill="#FFFFFF" filter="url(#f1w4inqgl3uix)" height="1041.8" style="stroke:#A80036;stroke-width:1.0;" width="10" x="427.5" y="292.8"/><rect fill="#FFFFFF" filter="url(#f1w4inqgl3uix)" height="233.3" style="stroke:#A80036;stroke-width:1.0;" width="10" x="624.5" y="449.3"/><rect fill="#FFFFFF" filter="url(#f1w4inqgl3uix)" height="30.9" style="stroke:#A80036;stroke-width:1.0;" width="10" x="712" y="921.9"/><rect fill="#FFFFFF" filter="url(#f1w4inqgl3uix)" height="451.6" style="stroke:#A80036;stroke-width:1.0;" width="10" x="795" y="821.2"/><rect fill="#E3F2FD" filter="url(#f1w4inqgl3uix)" height="331.9" style="stroke:#000000;stroke-width:2.0;" width="668.5" x="10" y="125.4"/><rect fill="#FFFFFF" filter="url(#f1w4inqgl3uix)" height="80.7" style="stroke:#000000;stroke-width:2.0;" width="261" x="20" y="151.3"/><rect fill="#FFFFFF" filter="url(#f1w4inqgl3uix)" height="80.7" style="stroke:#000000;stroke-width:2.0;" width="233.5" x="246" y="307.8"/><rect fill="#FFF3E0" filter="url(#f1w4inqgl3uix)" height="294.1" style="stroke:#000000;stroke-width:2.0;" width="745.5" x="20" y="471.3"/><rect fill="#FFFFFF" filter="url(#f1w4inqgl3uix)" height="80.7" style="stroke:#000000;stroke-width:2.0;" width="293" x="385.5" y="572"/><rect fill="#E8F5E9" filter="url(#f1w4inqgl3uix)" height="250.2" style="stroke:#000000;stroke-width:2.0;" width="844.5" x="10" y="779.4"/><rect fill="#FFFFFF" filter="url(#f1w4inqgl3uix)" height="186.4" style="stroke:#000000;stroke-width:2.0;" width="824.5" x="20" y="836.2"/><rect fill="#F3E5F5" filter="url(#f1w4inqgl3uix)" height="299" style="stroke:#000000;stroke-width:2.0;" width="824.5" x="20" y="1043.6"/><rect fill="#FFFFFF" filter="url(#f1w4inqgl3uix)" height="80.7" style="stroke:#000000;stroke-width:2.0;" width="233.5" x="246" y="1131.3"/><line style="stroke:#A80036;stroke-width:1.0;stroke-dasharray:5.0,5.0;" x1="50" x2="50" y1="108.4" y2="1359.6"/><line style="stroke:#A80036;stroke-width:1.0;stroke-dasharray:5.0,5.0;" x1="218" x2="218" y1="108.4" y2="1359.6"/><line style="stroke:#A80036;stroke-width:1.0;stroke-dasharray:5.0,5.0;" x1="291" x2="291" y1="108.4" y2="1359.6"/><line style="stroke:#A80036;stroke-width:1.0;stroke-dasharray:5.0,5.0;" x1="432.5" x2="432.5" y1="108.4" y2="1359.6"/><line style="stroke:#A80036;stroke-width:1.0;stroke-dasharray:5.0,5.0;" x1="629.5" x2="629.5" y1="108.4" y2="1359.6"/><line style="stroke:#A80036;stroke-width:1.0;stroke-dasharray:5.0,5.0;" x1="716.5" x2="716.5" y1="108.4" y2="1359.6"/><line style="stroke:#A80036;stroke-width:1.0;stroke-dasharray:5.0,5.0;" x1="799.5" x2="799.5" y1="108.4" y2="1359.6"/><text fill="#000000" font-family="Sarabun" font-size="14" lengthAdjust="spacing" textLength="26" x="34.5" y="86.952">ผู้ฝึก</text><text fill="#000000" font-family="Sarabun" font-size="14" lengthAdjust="spacing" textLength="35" x="30" y="105.152">(User)</text><ellipse cx="50.5" cy="15" fill="#FEFECE" filter="url(#f1w4inqgl3uix)" rx="8" ry="8" style="stroke:#A80036;stroke-width:2.0;"/><path d="M50.5,23 L50.5,50 M37.5,31 L63.5,31 M50.5,50 L37.5,65 M50.5,50 L63.5,65 " fill="none" filter="url(#f1w4inqgl3uix)" style="stroke:#A80036;stroke-width:2.0;"/><text fill="#000000" font-family="Sarabun" font-size="14" lengthAdjust="spacing" textLength="26" x="34.5" y="1373.552">ผู้ฝึก</text><text fill="#000000" font-family="Sarabun" font-size="14" lengthAdjust="spacing" textLength="35" x="30" y="1391.752">(User)</text><ellipse cx="50.5" cy="1405" fill="#FEFECE" filter="url(#f1w4inqgl3uix)" rx="8" ry="8" style="stroke:#A80036;stroke-width:2.0;"/><path d="M50.5,1413 L50.5,1440 M37.5,1421 L63.5,1421 M50.5,1440 L37.5,1455 M50.5,1440 L63.5,1455 " fill="none" filter="url(#f1w4inqgl3uix)" style="stroke:#A80036;stroke-width:2.0;"/><rect fill="#E8F5E9" filter="url(#f1w4inqgl3uix)" height="32.2" style="stroke:#A80036;stroke-width:1.5;" width="51" x="191" y="71.2"/><text fill="#000000" font-family="Sarabun" font-size="14" lengthAdjust="spacing" textLength="13" x="210" y="93.152">UI</text><rect fill="#E8F5E9" filter="url(#f1w4inqgl3uix)" height="32.2" style="stroke:#A80036;stroke-width:1.5;" width="51" x="191" y="1358.6"/><text fill="#000000" font-family="Sarabun" font-size="14" lengthAdjust="spacing" textLength="13" x="210" y="1380.552">UI</text><rect fill="#E8F5E9" filter="url(#f1w4inqgl3uix)" height="32.2" style="stroke:#A80036;stroke-width:1.5;" width="67" x="256" y="71.2"/><text fill="#000000" font-family="Sarabun" font-size="14" lengthAdjust="spacing" textLength="47" x="266" y="93.152">Gesture</text><rect fill="#E8F5E9" filter="url(#f1w4inqgl3uix)" height="32.2" style="stroke:#A80036;stroke-width:1.5;" width="67" x="256" y="1358.6"/><text fill="#000000" font-family="Sarabun" font-size="14" lengthAdjust="spacing" textLength="47" x="266" y="1380.552">Gesture</text><rect fill="#E3F2FD" filter="url(#f1w4inqgl3uix)" height="32.2" style="stroke:#A80036;stroke-width:1.5;" width="70" x="395.5" y="71.2"/><text fill="#000000" font-family="Sarabun" font-size="14" lengthAdjust="spacing" textLength="50" x="405.5" y="93.152">Training</text><rect fill="#E3F2FD" filter="url(#f1w4inqgl3uix)" height="32.2" style="stroke:#A80036;stroke-width:1.5;" width="70" x="395.5" y="1358.6"/><text fill="#000000" font-family="Sarabun" font-size="14" lengthAdjust="spacing" textLength="50" x="405.5" y="1380.552">Training</text><rect fill="#FFF3E0" filter="url(#f1w4inqgl3uix)" height="32.2" style="stroke:#A80036;stroke-width:1.5;" width="74" x="590.5" y="71.2"/><text fill="#000000" font-family="Sarabun" font-size="14" lengthAdjust="spacing" textLength="60" x="597.5" y="93.152">Calibrator</text><rect fill="#FFF3E0" filter="url(#f1w4inqgl3uix)" height="32.2" style="stroke:#A80036;stroke-width:1.5;" width="74" x="590.5" y="1358.6"/><text fill="#000000" font-family="Sarabun" font-size="14" lengthAdjust="spacing" textLength="60" x="597.5" y="1380.552">Calibrator</text><rect fill="#FFF3E0" filter="url(#f1w4inqgl3uix)" height="32.2" style="stroke:#A80036;stroke-width:1.5;" width="73" x="678.5" y="71.2"/><text fill="#000000" font-family="Sarabun" font-size="14" lengthAdjust="spacing" textLength="59" x="685.5" y="93.152">Heuristics</text><rect fill="#FFF3E0" filter="url(#f1w4inqgl3uix)" height="32.2" style="stroke:#A80036;stroke-width:1.5;" width="73" x="678.5" y="1358.6"/><text fill="#000000" font-family="Sarabun" font-size="14" lengthAdjust="spacing" textLength="59" x="685.5" y="1380.552">Heuristics</text><rect fill="#FFF3E0" filter="url(#f1w4inqgl3uix)" height="32.2" style="stroke:#A80036;stroke-width:1.5;" width="65" x="765.5" y="71.2"/><text fill="#000000" font-family="Sarabun" font-size="14" lengthAdjust="spacing" textLength="39" x="778.5" y="93.152">Scorer</text><rect fill="#FFF3E0" filter="url(#f1w4inqgl3uix)" height="32.2" style="stroke:#A80036;stroke-width:1.5;" width="65" x="765.5" y="1358.6"/><text fill="#000000" font-family="Sarabun" font-size="14" lengthAdjust="spacing" textLength="39" x="778.5" y="1380.552">Scorer</text><rect fill="#FFFFFF" filter="url(#f1w4inqgl3uix)" height="1041.8" style="stroke:#A80036;stroke-width:1.0;" width="10" x="427.5" y="292.8"/><rect fill="#FFFFFF" filter="url(#f1w4inqgl3uix)" height="233.3" style="stroke:#A80036;stroke-width:1.0;" width="10" x="624.5" y="449.3"/><rect fill="#FFFFFF" filter="url(#f1w4inqgl3uix)" height="30.9" style="stroke:#A80036;stroke-width:1.0;" width="10" x="712" y="921.9"/><rect fill="#FFFFFF" filter="url(#f1w4inqgl3uix)" height="451.6" style="stroke:#A80036;stroke-width:1.0;" width="10" x="795" y="821.2"/><path d="M10,125.4 L204,125.4 L204,133.4 L194,143.4 L10,143.4 L10,125.4 " fill="#EEEEEE" style="stroke:#000000;stroke-width:1.0;"/><rect fill="none" height="331.9" style="stroke:#000000;stroke-width:2.0;" width="668.5" x="10" y="125.4"/><text fill="#000000" font-family="Sarabun" font-size="13" font-weight="bold" lengthAdjust="spacing" textLength="149" x="25" y="140.284">เริ่มการฝึก (Start Training)</text><path d="M20,151.3 L85,151.3 L85,159.3 L75,169.3 L20,169.3 L20,151.3 " fill="#EEEEEE" style="stroke:#000000;stroke-width:1.0;"/><rect fill="none" height="80.7" style="stroke:#000000;stroke-width:2.0;" width="261" x="20" y="151.3"/><text fill="#000000" font-family="Sarabun" font-size="13" font-weight="bold" lengthAdjust="spacing" textLength="20" x="35" y="166.184">opt</text><text fill="#000000" font-family="Sarabun" font-size="11" font-weight="bold" lengthAdjust="spacing" textLength="176" x="100" y="165.048">[เลือกท่า/ระดับ (ถ้าไม่ใช้ค่า default)]</text><polygon fill="#A80036" points="206.5,189.1,216.5,193.1,206.5,197.1,210.5,193.1" style="stroke:#A80036;stroke-width:1.0;"/><line style="stroke:#A80036;stroke-width:1.0;" x1="50.5" x2="212.5" y1="193.1" y2="193.1"/><text fill="#000000" font-family="Sarabun" font-size="13" lengthAdjust="spacing" textLength="99" x="85" y="188.084">เลือกท่า (Exercise)</text><polygon fill="#A80036" points="206.5,220,216.5,224,206.5,228,210.5,224" style="stroke:#A80036;stroke-width:1.0;"/><line style="stroke:#A80036;stroke-width:1.0;" x1="50.5" x2="212.5" y1="224" y2="224"/><text fill="#000000" font-family="Sarabun" font-size="13" lengthAdjust="spacing" textLength="98" x="85.5" y="218.984">เลือกระดับ (Level)</text><polygon fill="#A80036" points="206.5,257.9,216.5,261.9,206.5,265.9,210.5,261.9" style="stroke:#A80036;stroke-width:1.0;"/><line style="stroke:#A80036;stroke-width:1.0;" x1="50.5" x2="212.5" y1="261.9" y2="261.9"/><text fill="#000000" font-family="Sarabun" font-size="13" lengthAdjust="spacing" textLength="144" x="62.5" y="256.884">กดปุ่ม Start / ยกนิ้วโป้ง &#128077;</text><polygon fill="#A80036" points="415.5,288.8,425.5,292.8,415.5,296.8,419.5,292.8" style="stroke:#A80036;stroke-width:1.0;"/><line style="stroke:#A80036;stroke-width:1.0;" x1="218.5" x2="421.5" y1="292.8" y2="292.8"/><text fill="#000000" font-family="Sarabun" font-size="13" lengthAdjust="spacing" textLength="108" x="269" y="287.784">startTrainingFlow()</text><path d="M246,307.8 L307,307.8 L307,315.8 L297,325.8 L246,325.8 L246,307.8 " fill="#EEEEEE" style="stroke:#000000;stroke-width:1.0;"/><rect fill="none" height="80.7" style="stroke:#000000;stroke-width:2.0;" width="233.5" x="246" y="307.8"/><text fill="#000000" font-family="Sarabun" font-size="13" font-weight="bold" lengthAdjust="spacing" textLength="16" x="261" y="322.684">alt</text><text fill="#000000" font-family="Sarabun" font-size="11" font-weight="bold" lengthAdjust="spacing" textLength="91" x="322" y="321.548">[ใช้ Gesture Start]</text><polygon fill="#A80036" points="302.5,345.6,292.5,349.6,302.5,353.6,298.5,349.6" style="stroke:#A80036;stroke-width:1.0;"/><line style="stroke:#A80036;stroke-width:1.0;" x1="296.5" x2="426.5" y1="349.6" y2="349.6"/><text fill="#000000" font-family="Sarabun" font-size="13" lengthAdjust="spacing" textLength="94" x="312.5" y="344.584">detectGestures()</text><polygon fill="#A80036" points="415.5,376.5,425.5,380.5,415.5,384.5,419.5,380.5" style="stroke:#A80036;stroke-width:1.0;"/><line style="stroke:#A80036;stroke-width:1.0;stroke-dasharray:2.0,2.0;" x1="291.5" x2="421.5" y1="380.5" y2="380.5"/><text fill="#000000" font-family="Sarabun" font-size="13" lengthAdjust="spacing" textLength="112" x="303.5" y="375.484">thumbsUp detected</text><polygon fill="#A80036" points="617.5,414.4,627.5,418.4,617.5,422.4,621.5,418.4" style="stroke:#A80036;stroke-width:1.0;"/><line style="stroke:#A80036;stroke-width:1.0;" x1="437.5" x2="623.5" y1="418.4" y2="418.4"/><text fill="#000000" font-family="Sarabun" font-size="13" lengthAdjust="spacing" textLength="129" x="469" y="413.384">setLevel(currentLevel)</text><polygon fill="#A80036" points="612.5,445.3,622.5,449.3,612.5,453.3,616.5,449.3" style="stroke:#A80036;stroke-width:1.0;"/><line style="stroke:#A80036;stroke-width:1.0;" x1="437.5" x2="618.5" y1="449.3" y2="449.3"/><text fill="#000000" font-family="Sarabun" font-size="13" lengthAdjust="spacing" textLength="35" x="513.5" y="444.284">start()</text><path d="M20,471.3 L185,471.3 L185,479.3 L175,489.3 L20,489.3 L20,471.3 " fill="#EEEEEE" style="stroke:#000000;stroke-width:1.0;"/><rect fill="none" height="294.1" style="stroke:#000000;stroke-width:2.0;" width="745.5" x="20" y="471.3"/><text fill="#000000" font-family="Sarabun" font-size="13" font-weight="bold" lengthAdjust="spacing" textLength="120" x="35" y="486.184">Calibration (T-Pose)</text><polygon fill="#A80036" points="229.5,509.1,219.5,513.1,229.5,517.1,225.5,513.1" style="stroke:#A80036;stroke-width:1.0;"/><line style="stroke:#A80036;stroke-width:1.0;stroke-dasharray:2.0,2.0;" x1="223.5" x2="623.5" y1="513.1" y2="513.1"/><text fill="#000000" font-family="Sarabun" font-size="13" lengthAdjust="spacing" textLength="111" x="366" y="508.084">แสดง "กางแขนท่า T"</text><line style="stroke:#A80036;stroke-width:1.0;" x1="50.5" x2="92.5" y1="544" y2="544"/><line style="stroke:#A80036;stroke-width:1.0;" x1="92.5" x2="92.5" y1="544" y2="557"/><line style="stroke:#A80036;stroke-width:1.0;" x1="51.5" x2="92.5" y1="557" y2="557"/><polygon fill="#A80036" points="61.5,553,51.5,557,61.5,561,57.5,557" style="stroke:#A80036;stroke-width:1.0;"/><text fill="#000000" font-family="Sarabun" font-size="13" lengthAdjust="spacing" textLength="90" x="57.5" y="538.984">ทำท่า T-Pose &#129485;</text><path d="M385.5,572 L457.5,572 L457.5,580 L447.5,590 L385.5,590 L385.5,572 " fill="#EEEEEE" style="stroke:#000000;stroke-width:1.0;"/><rect fill="none" height="80.7" style="stroke:#000000;stroke-width:2.0;" width="293" x="385.5" y="572"/><text fill="#000000" font-family="Sarabun" font-size="13" font-weight="bold" lengthAdjust="spacing" textLength="27" x="400.5" y="586.884">loop</text><text fill="#000000" font-family="Sarabun" font-size="11" font-weight="bold" lengthAdjust="spacing" textLength="173" x="472.5" y="585.748">[ทุก frame จนกว่าจะ T-Pose ถูกต้อง]</text><polygon fill="#A80036" points="612.5,609.8,622.5,613.8,612.5,617.8,616.5,613.8" style="stroke:#A80036;stroke-width:1.0;"/><line style="stroke:#A80036;stroke-width:1.0;" x1="437.5" x2="618.5" y1="613.8" y2="613.8"/><text fill="#000000" font-family="Sarabun" font-size="13" lengthAdjust="spacing" textLength="109" x="476.5" y="608.784">process(landmarks)</text><polygon fill="#A80036" points="448.5,640.7,438.5,644.7,448.5,648.7,444.5,644.7" style="stroke:#A80036;stroke-width:1.0;"/><line style="stroke:#A80036;stroke-width:1.0;stroke-dasharray:2.0,2.0;" x1="442.5" x2="623.5" y1="644.7" y2="644.7"/><text fill="#000000" font-family="Sarabun" font-size="13" lengthAdjust="spacing" textLength="109" x="476.5" y="639.684">{status: "adjusting"}</text><polygon fill="#A80036" points="448.5,678.6,438.5,682.6,448.5,686.6,444.5,682.6" style="stroke:#A80036;stroke-width:1.0;"/><line style="stroke:#A80036;stroke-width:1.0;stroke-dasharray:2.0,2.0;" x1="442.5" x2="628.5" y1="682.6" y2="682.6"/><text fill="#000000" font-family="Sarabun" font-size="13" lengthAdjust="spacing" textLength="144" x="461.5" y="677.584">{status: "complete", data}</text><polygon fill="#A80036" points="705,709.5,715,713.5,705,717.5,709,713.5" style="stroke:#A80036;stroke-width:1.0;"/><line style="stroke:#A80036;stroke-width:1.0;" x1="437.5" x2="711" y1="713.5" y2="713.5"/><text fill="#000000" font-family="Sarabun" font-size="13" lengthAdjust="spacing" textLength="114" x="520.25" y="708.484">setCalibration(data)</text><line style="stroke:#A80036;stroke-width:1.0;" x1="437.5" x2="479.5" y1="744.4" y2="744.4"/><line style="stroke:#A80036;stroke-width:1.0;" x1="479.5" x2="479.5" y1="744.4" y2="757.4"/><line style="stroke:#A80036;stroke-width:1.0;" x1="438.5" x2="479.5" y1="757.4" y2="757.4"/><polygon fill="#A80036" points="448.5,753.4,438.5,757.4,448.5,761.4,444.5,757.4" style="stroke:#A80036;stroke-width:1.0;"/><text fill="#000000" font-family="Sarabun" font-size="13" lengthAdjust="spacing" textLength="173" x="444.5" y="739.384">startTrainingAfterCalibration()</text><path d="M10,779.4 L187,779.4 L187,787.4 L177,797.4 L10,797.4 L10,779.4 " fill="#EEEEEE" style="stroke:#000000;stroke-width:1.0;"/><rect fill="none" height="250.2" style="stroke:#000000;stroke-width:2.0;" width="844.5" x="10" y="779.4"/><text fill="#000000" font-family="Sarabun" font-size="13" font-weight="bold" lengthAdjust="spacing" textLength="132" x="25" y="794.284">การฝึก (Training Loop)</text><polygon fill="#A80036" points="783,817.2,793,821.2,783,825.2,787,821.2" style="stroke:#A80036;stroke-width:1.0;"/><line style="stroke:#A80036;stroke-width:1.0;" x1="437.5" x2="789" y1="821.2" y2="821.2"/><text fill="#000000" font-family="Sarabun" font-size="13" lengthAdjust="spacing" textLength="35" x="598.75" y="816.184">start()</text><path d="M20,836.2 L92,836.2 L92,844.2 L82,854.2 L20,854.2 L20,836.2 " fill="#EEEEEE" style="stroke:#000000;stroke-width:1.0;"/><rect fill="none" height="186.4" style="stroke:#000000;stroke-width:2.0;" width="824.5" x="20" y="836.2"/><text fill="#000000" font-family="Sarabun" font-size="13" font-weight="bold" lengthAdjust="spacing" textLength="27" x="35" y="851.084">loop</text><text fill="#000000" font-family="Sarabun" font-size="11" font-weight="bold" lengthAdjust="spacing" textLength="169" x="107" y="849.948">[ทุก frame (~30 fps) จนกว่าจะหยุด]</text><line style="stroke:#A80036;stroke-width:1.0;" x1="50.5" x2="92.5" y1="878" y2="878"/><line style="stroke:#A80036;stroke-width:1.0;" x1="92.5" x2="92.5" y1="878" y2="891"/><line style="stroke:#A80036;stroke-width:1.0;" x1="51.5" x2="92.5" y1="891" y2="891"/><polygon fill="#A80036" points="61.5,887,51.5,891,61.5,895,57.5,891" style="stroke:#A80036;stroke-width:1.0;"/><text fill="#000000" font-family="Sarabun" font-size="13" lengthAdjust="spacing" textLength="94" x="57.5" y="872.984">ฝึกท่าม้วนไหม &#127744;</text><polygon fill="#A80036" points="700,917.9,710,921.9,700,925.9,704,921.9" style="stroke:#A80036;stroke-width:1.0;"/><line style="stroke:#A80036;stroke-width:1.0;" x1="437.5" x2="706" y1="921.9" y2="921.9"/><text fill="#000000" font-family="Sarabun" font-size="13" lengthAdjust="spacing" textLength="111" x="519.25" y="916.884">analyze(landmarks)</text><polygon fill="#A80036" points="448.5,948.8,438.5,952.8,448.5,956.8,444.5,952.8" style="stroke:#A80036;stroke-width:1.0;"/><line style="stroke:#A80036;stroke-width:1.0;stroke-dasharray:2.0,2.0;" x1="442.5" x2="716" y1="952.8" y2="952.8"/><text fill="#000000" font-family="Sarabun" font-size="13" lengthAdjust="spacing" textLength="64" x="545.25" y="947.784">feedbacks[]</text><polygon fill="#A80036" points="783,979.7,793,983.7,783,987.7,787,983.7" style="stroke:#A80036;stroke-width:1.0;"/><line style="stroke:#A80036;stroke-width:1.0;" x1="437.5" x2="789" y1="983.7" y2="983.7"/><text fill="#000000" font-family="Sarabun" font-size="13" lengthAdjust="spacing" textLength="138" x="547.25" y="978.684">recordFrame(feedbacks)</text><polygon fill="#A80036" points="229.5,1010.6,219.5,1014.6,229.5,1018.6,225.5,1014.6" style="stroke:#A80036;stroke-width:1.0;"/><line style="stroke:#A80036;stroke-width:1.0;stroke-dasharray:2.0,2.0;" x1="223.5" x2="426.5" y1="1014.6" y2="1014.6"/><text fill="#000000" font-family="Sarabun" font-size="13" lengthAdjust="spacing" textLength="84" x="281" y="1009.584">แสดง feedback</text><path d="M20,1043.6 L220,1043.6 L220,1051.6 L210,1061.6 L20,1061.6 L20,1043.6 " fill="#EEEEEE" style="stroke:#000000;stroke-width:1.0;"/><rect fill="none" height="299" style="stroke:#000000;stroke-width:2.0;" width="824.5" x="20" y="1043.6"/><text fill="#000000" font-family="Sarabun" font-size="13" font-weight="bold" lengthAdjust="spacing" textLength="155" x="35" y="1058.484">สิ้นสุดการฝึก (End Training)</text><polygon fill="#A80036" points="206.5,1081.4,216.5,1085.4,206.5,1089.4,210.5,1085.4" style="stroke:#A80036;stroke-width:1.0;"/><line style="stroke:#A80036;stroke-width:1.0;" x1="50.5" x2="212.5" y1="1085.4" y2="1085.4"/><text fill="#000000" font-family="Sarabun" font-size="13" lengthAdjust="spacing" textLength="121" x="74" y="1080.384">กดปุ่ม Stop / กำมือ ✊</text><polygon fill="#A80036" points="415.5,1112.3,425.5,1116.3,415.5,1120.3,419.5,1116.3" style="stroke:#A80036;stroke-width:1.0;"/><line style="stroke:#A80036;stroke-width:1.0;" x1="218.5" x2="421.5" y1="1116.3" y2="1116.3"/><text fill="#000000" font-family="Sarabun" font-size="13" lengthAdjust="spacing" textLength="116" x="265" y="1111.284">endTrainingSession()</text><path d="M246,1131.3 L307,1131.3 L307,1139.3 L297,1149.3 L246,1149.3 L246,1131.3 " fill="#EEEEEE" style="stroke:#000000;stroke-width:1.0;"/><rect fill="none" height="80.7" style="stroke:#000000;stroke-width:2.0;" width="233.5" x="246" y="1131.3"/><text fill="#000000" font-family="Sarabun" font-size="13" font-weight="bold" lengthAdjust="spacing" textLength="16" x="261" y="1146.184">alt</text><text fill="#000000" font-family="Sarabun" font-size="11" font-weight="bold" lengthAdjust="spacing" textLength="88" x="322" y="1145.048">[ใช้ Gesture Stop]</text><polygon fill="#A80036" points="302.5,1169.1,292.5,1173.1,302.5,1177.1,298.5,1173.1" style="stroke:#A80036;stroke-width:1.0;"/><line style="stroke:#A80036;stroke-width:1.0;" x1="296.5" x2="426.5" y1="1173.1" y2="1173.1"/><text fill="#000000" font-family="Sarabun" font-size="13" lengthAdjust="spacing" textLength="94" x="312.5" y="1168.084">detectGestures()</text><polygon fill="#A80036" points="415.5,1200,425.5,1204,415.5,1208,419.5,1204" style="stroke:#A80036;stroke-width:1.0;"/><line style="stroke:#A80036;stroke-width:1.0;stroke-dasharray:2.0,2.0;" x1="291.5" x2="421.5" y1="1204" y2="1204"/><text fill="#000000" font-family="Sarabun" font-size="13" lengthAdjust="spacing" textLength="71" x="324" y="1198.984">fist detected</text><polygon fill="#A80036" points="783,1237.9,793,1241.9,783,1245.9,787,1241.9" style="stroke:#A80036;stroke-width:1.0;"/><line style="stroke:#A80036;stroke-width:1.0;" x1="437.5" x2="789" y1="1241.9" y2="1241.9"/><text fill="#000000" font-family="Sarabun" font-size="13" lengthAdjust="spacing" textLength="81" x="575.75" y="1236.884">getSummary()</text><polygon fill="#A80036" points="448.5,1268.8,438.5,1272.8,448.5,1276.8,444.5,1272.8" style="stroke:#A80036;stroke-width:1.0;"/><line style="stroke:#A80036;stroke-width:1.0;stroke-dasharray:2.0,2.0;" x1="442.5" x2="799" y1="1272.8" y2="1272.8"/><text fill="#000000" font-family="Sarabun" font-size="13" lengthAdjust="spacing" textLength="153" x="542.25" y="1267.784">{score, totalFrames, grade}</text><polygon fill="#A80036" points="229.5,1299.7,219.5,1303.7,229.5,1307.7,225.5,1303.7" style="stroke:#A80036;stroke-width:1.0;"/><line style="stroke:#A80036;stroke-width:1.0;stroke-dasharray:2.0,2.0;" x1="223.5" x2="426.5" y1="1303.7" y2="1303.7"/><text fill="#000000" font-family="Sarabun" font-size="13" lengthAdjust="spacing" textLength="105" x="270.5" y="1298.684">แสดงผลคะแนน &#128202;</text><polygon fill="#A80036" points="61.5,1330.6,51.5,1334.6,61.5,1338.6,57.5,1334.6" style="stroke:#A80036;stroke-width:1.0;"/><line style="stroke:#A80036;stroke-width:1.0;stroke-dasharray:2.0,2.0;" x1="55.5" x2="217.5" y1="1334.6" y2="1334.6"/><text fill="#000000" font-family="Sarabun" font-size="13" lengthAdjust="spacing" textLength="70" x="99.5" y="1329.584">Score Popup</text><!--MD5=[6b1e04fc66b0faf326dc09e7454e31ee]
@startuml SequenceDiagram_TrainingFlow
' ============================================================================
' TaijiFlow AI - Sequence Diagram: Training Flow (Main)
' ============================================================================
' แสดง Flow หลักของการฝึกท่าม้วนไหมตั้งแต่เริ่มจนจบ
' อ้างอิง: UC-02 Perform Training
' ============================================================================

skinparam defaultFontName "Sarabun"
skinparam backgroundColor transparent
skinparam sequenceMessageAlign center

' === Participants (6 ตัวหลัก - ชื่อสั้นเพื่ออ่านง่าย) ===
actor "ผู้ฝึก\n(User)" as User
participant "    UI    " as UI #E8F5E9
participant " Gesture " as Gesture #E8F5E9
participant " Training " as Training #E3F2FD
participant "Calibrator" as Calibration #FFF3E0
participant "Heuristics" as Heuristics #FFF3E0
participant "  Scorer  " as Scoring #FFF3E0

' ============================================================================
' PHASE 1: START TRAINING
' ============================================================================

group #E3F2FD เริ่มการฝึก (Start Training)
    opt เลือกท่า/ระดับ (ถ้าไม่ใช้ค่า default)
        User -> UI : เลือกท่า (Exercise)
        User -> UI : เลือกระดับ (Level)
    end
    
    User -> UI : กดปุ่ม Start / ยกนิ้วโป้ง 👍
    UI -> Training : startTrainingFlow()
    activate Training
    
    alt ใช้ Gesture Start
        Training -> Gesture : detectGestures()
        Gesture - -> Training : thumbsUp detected
    end
    
    Training -> Calibration : setLevel(currentLevel)
    Training -> Calibration : start()
    activate Calibration
end

' ============================================================================
' PHASE 2: CALIBRATION (T-POSE)
' ============================================================================

group #FFF3E0 Calibration (T-Pose)
    Calibration - -> UI : แสดง "กางแขนท่า T"
    User -> User : ทำท่า T-Pose 🧍
    
    loop ทุก frame จนกว่าจะ T-Pose ถูกต้อง
        Training -> Calibration : process(landmarks)
        Calibration - -> Training : {status: "adjusting"}
    end
    
    Calibration - -> Training : {status: "complete", data}
    deactivate Calibration
    
    Training -> Heuristics : setCalibration(data)
    Training -> Training : startTrainingAfterCalibration()
end

' ============================================================================
' PHASE 3: TRAINING LOOP (MAIN)
' ============================================================================

group #E8F5E9 การฝึก (Training Loop)
    Training -> Scoring : start()
    activate Scoring
    
    loop ทุก frame (~30 fps) จนกว่าจะหยุด
        User -> User : ฝึกท่าม้วนไหม 🌀
        
        Training -> Heuristics : analyze(landmarks)
        activate Heuristics
        Heuristics - -> Training : feedbacks[]
        deactivate Heuristics
        
        Training -> Scoring : recordFrame(feedbacks)
        Training - -> UI : แสดง feedback
    end
end

' ============================================================================
' PHASE 4: END & RESULT
' ============================================================================

group #F3E5F5 สิ้นสุดการฝึก (End Training)
    User -> UI : กดปุ่ม Stop / กำมือ ✊
    UI -> Training : endTrainingSession()
    
    alt ใช้ Gesture Stop
        Training -> Gesture : detectGestures()
        Gesture - -> Training : fist detected
    end
    
    Training -> Scoring : getSummary()
    Scoring - -> Training : {score, totalFrames, grade}
    deactivate Scoring
    
    Training - -> UI : แสดงผลคะแนน 📊
    UI - -> User : Score Popup
    deactivate Training
end

@enduml

@startuml SequenceDiagram_TrainingFlow

skinparam defaultFontName "Sarabun"
skinparam backgroundColor transparent
skinparam sequenceMessageAlign center

actor "ผู้ฝึก\n(User)" as User
participant "    UI    " as UI #E8F5E9
participant " Gesture " as Gesture #E8F5E9
participant " Training " as Training #E3F2FD
participant "Calibrator" as Calibration #FFF3E0
participant "Heuristics" as Heuristics #FFF3E0
participant "  Scorer  " as Scoring #FFF3E0


group #E3F2FD เริ่มการฝึก (Start Training)
    opt เลือกท่า/ระดับ (ถ้าไม่ใช้ค่า default)
        User -> UI : เลือกท่า (Exercise)
        User -> UI : เลือกระดับ (Level)
    end
    
    User -> UI : กดปุ่ม Start / ยกนิ้วโป้ง 👍
    UI -> Training : startTrainingFlow()
    activate Training
    
    alt ใช้ Gesture Start
        Training -> Gesture : detectGestures()
        Gesture - -> Training : thumbsUp detected
    end
    
    Training -> Calibration : setLevel(currentLevel)
    Training -> Calibration : start()
    activate Calibration
end


group #FFF3E0 Calibration (T-Pose)
    Calibration - -> UI : แสดง "กางแขนท่า T"
    User -> User : ทำท่า T-Pose 🧍
    
    loop ทุก frame จนกว่าจะ T-Pose ถูกต้อง
        Training -> Calibration : process(landmarks)
        Calibration - -> Training : {status: "adjusting"}
    end
    
    Calibration - -> Training : {status: "complete", data}
    deactivate Calibration
    
    Training -> Heuristics : setCalibration(data)
    Training -> Training : startTrainingAfterCalibration()
end


group #E8F5E9 การฝึก (Training Loop)
    Training -> Scoring : start()
    activate Scoring
    
    loop ทุก frame (~30 fps) จนกว่าจะหยุด
        User -> User : ฝึกท่าม้วนไหม 🌀
        
        Training -> Heuristics : analyze(landmarks)
        activate Heuristics
        Heuristics - -> Training : feedbacks[]
        deactivate Heuristics
        
        Training -> Scoring : recordFrame(feedbacks)
        Training - -> UI : แสดง feedback
    end
end


group #F3E5F5 สิ้นสุดการฝึก (End Training)
    User -> UI : กดปุ่ม Stop / กำมือ ✊
    UI -> Training : endTrainingSession()
    
    alt ใช้ Gesture Stop
        Training -> Gesture : detectGestures()
        Gesture - -> Training : fist detected
    end
    
    Training -> Scoring : getSummary()
    Scoring - -> Training : {score, totalFrames, grade}
    deactivate Scoring
    
    Training - -> UI : แสดงผลคะแนน 📊
    UI - -> User : Score Popup
    deactivate Training
end

@enduml

PlantUML version 1.2021.00(Sun Jan 10 17:25:05 ICT 2021)
(MIT source distribution)
Java Runtime: OpenJDK Runtime Environment
JVM: OpenJDK 64-Bit Server VM
Default Encoding: UTF-8
Language: en
Country: US
--></g></svg>