<?xml version="1.0" encoding="UTF-8" standalone="no"?><svg xmlns="http://www.w3.org/2000/svg" xmlns:xlink="http://www.w3.org/1999/xlink" contentScriptType="application/ecmascript" contentStyleType="text/css" height="906px" preserveAspectRatio="none" style="width:2014px;height:906px;" version="1.1" viewBox="0 0 2014 906" width="2014px" zoomAndPan="magnify"><defs><filter height="300%" id="fxbvsas3oh5yr" width="300%" x="-1" y="-1"><feGaussianBlur result="blurOut" stdDeviation="2.0"/><feColorMatrix in="blurOut" result="blurOut2" type="matrix" values="0 0 0 0 0 0 0 0 0 0 0 0 0 0 0 0 0 0 .4 0"/><feOffset dx="4.0" dy="4.0" in="blurOut2" result="blurOut3"/><feBlend in="SourceGraphic" in2="blurOut3" mode="normal"/></filter></defs><g><ellipse cx="1002" cy="20" fill="#000000" filter="url(#fxbvsas3oh5yr)" rx="10" ry="10" style="stroke:none;stroke-width:1.0;"/><rect fill="#FFFFFF" filter="url(#fxbvsas3oh5yr)" height="35.6" rx="12.5" ry="12.5" style="stroke:#000000;stroke-width:1.5;" width="248" x="878" y="50"/><text fill="#000000" font-family="sarabun" font-size="12" lengthAdjust="spacing" textLength="228" x="888" y="72.816">ผู้ใช้งานคลิกปุ่มตั้งค่า (Settings/Display/Rules)</text><polygon fill="#FEFECE" filter="url(#fxbvsas3oh5yr)" points="975,105.6,1029,105.6,1041,117.6,1029,129.6,975,129.6,963,117.6,975,105.6" style="stroke:#A80036;stroke-width:1.5;"/><text fill="#000000" font-family="sarabun" font-size="11" lengthAdjust="spacing" textLength="54" x="975" y="122.198">เลือกเมนูใด?</text><rect fill="#FFFFFF" filter="url(#fxbvsas3oh5yr)" height="51.2" rx="12.5" ry="12.5" style="stroke:#000000;stroke-width:1.5;" width="116" x="30" y="153.9"/><text fill="#000000" font-family="sarabun" font-size="12" lengthAdjust="spacing" textLength="62" x="40" y="176.716">สลับค่าภาษา</text><text fill="#000000" font-family="sarabun" font-size="12" lengthAdjust="spacing" textLength="93" x="43" y="192.316">(Thai &lt;-&gt; English)</text><rect fill="#FFFFFF" filter="url(#fxbvsas3oh5yr)" height="35.6" rx="12.5" ry="12.5" style="stroke:#000000;stroke-width:1.5;" width="154" x="11" y="240.1"/><text fill="#000000" font-family="sarabun" font-size="12" lengthAdjust="spacing" textLength="134" x="21" y="262.916">อัปเดตข้อความ UI และเสียง</text><rect fill="#FFFFFF" filter="url(#fxbvsas3oh5yr)" height="51.2" rx="12.5" ry="12.5" style="stroke:#000000;stroke-width:1.5;" width="106" x="203" y="153.9"/><text fill="#000000" font-family="sarabun" font-size="12" lengthAdjust="spacing" textLength="74" x="213" y="176.716">สลับค่า Theme</text><text fill="#000000" font-family="sarabun" font-size="12" lengthAdjust="spacing" textLength="83" x="216" y="192.316">(Dark &lt;-&gt; Light)</text><rect fill="#FFFFFF" filter="url(#fxbvsas3oh5yr)" height="35.6" rx="12.5" ry="12.5" style="stroke:#000000;stroke-width:1.5;" width="152" x="180" y="240.1"/><text fill="#000000" font-family="sarabun" font-size="12" lengthAdjust="spacing" textLength="132" x="190" y="262.916">อัปเดต CSS Global Classes</text><rect fill="#FFFFFF" filter="url(#fxbvsas3oh5yr)" height="51.2" rx="12.5" ry="12.5" style="stroke:#000000;stroke-width:1.5;" width="126" x="342" y="153.9"/><text fill="#000000" font-family="sarabun" font-size="12" lengthAdjust="spacing" textLength="69" x="352" y="176.716">สลับค่า Audio</text><text fill="#000000" font-family="sarabun" font-size="12" lengthAdjust="spacing" textLength="103" x="355" y="192.316">(Mute &lt;-&gt; Unmute)</text><rect fill="#FFFFFF" filter="url(#fxbvsas3oh5yr)" height="35.6" rx="12.5" ry="12.5" style="stroke:#000000;stroke-width:1.5;" width="119" x="345.5" y="240.1"/><text fill="#000000" font-family="sarabun" font-size="12" lengthAdjust="spacing" textLength="99" x="355.5" y="262.916">อัปเดตไอคอนลำโพง</text><rect fill="#FFFFFF" filter="url(#fxbvsas3oh5yr)" height="35.6" rx="12.5" ry="12.5" style="stroke:#000000;stroke-width:1.5;" width="196" x="604" y="153.9"/><text fill="#000000" font-family="sarabun" font-size="12" lengthAdjust="spacing" textLength="176" x="614" y="176.716">แสดง Dropdown "Display Options"</text><polygon fill="#FEFECE" filter="url(#fxbvsas3oh5yr)" points="668.5,224.5,735.5,224.5,747.5,236.5,735.5,248.5,668.5,248.5,656.5,236.5,668.5,224.5" style="stroke:#A80036;stroke-width:1.5;"/><text fill="#000000" font-family="sarabun" font-size="11" lengthAdjust="spacing" textLength="67" x="668.5" y="241.098">เลือกหมวดหมู่?</text><rect fill="#FFFFFF" filter="url(#fxbvsas3oh5yr)" height="51.2" rx="12.5" ry="12.5" style="stroke:#000000;stroke-width:1.5;" width="85" x="488" y="272.8"/><text fill="#000000" font-family="sarabun" font-size="12" lengthAdjust="spacing" textLength="65" x="498" y="295.616">Side-by-Side</text><text fill="#000000" font-family="sarabun" font-size="12" lengthAdjust="spacing" textLength="43" x="501" y="311.216">(จอแยก)</text><rect fill="#FFFFFF" filter="url(#fxbvsas3oh5yr)" height="51.2" rx="12.5" ry="12.5" style="stroke:#000000;stroke-width:1.5;" width="85" x="488" y="359"/><text fill="#000000" font-family="sarabun" font-size="12" lengthAdjust="spacing" textLength="65" x="498" y="381.816">Mirror Mode</text><text fill="#000000" font-family="sarabun" font-size="12" lengthAdjust="spacing" textLength="41" x="501" y="397.416">(กระจก)</text><rect fill="#FFFFFF" filter="url(#fxbvsas3oh5yr)" height="51.2" rx="12.5" ry="12.5" style="stroke:#000000;stroke-width:1.5;" width="84" x="488.5" y="445.2"/><text fill="#000000" font-family="sarabun" font-size="12" lengthAdjust="spacing" textLength="64" x="498.5" y="468.016">Grid Overlay</text><text fill="#000000" font-family="sarabun" font-size="12" lengthAdjust="spacing" textLength="38" x="501.5" y="483.616">(ตาราง)</text><rect fill="#FFFFFF" filter="url(#fxbvsas3oh5yr)" height="51.2" rx="12.5" ry="12.5" style="stroke:#000000;stroke-width:1.5;" width="94" x="593" y="272.8"/><text fill="#000000" font-family="sarabun" font-size="12" lengthAdjust="spacing" textLength="74" x="603" y="295.616">Ghost Overlay</text><text fill="#000000" font-family="sarabun" font-size="12" lengthAdjust="spacing" textLength="36" x="606" y="311.216">(เงาครู)</text><rect fill="#FFFFFF" filter="url(#fxbvsas3oh5yr)" height="51.2" rx="12.5" ry="12.5" style="stroke:#000000;stroke-width:1.5;" width="94" x="593" y="359"/><text fill="#000000" font-family="sarabun" font-size="12" lengthAdjust="spacing" textLength="74" x="603" y="381.816">Instructor PiP</text><text fill="#000000" font-family="sarabun" font-size="12" lengthAdjust="spacing" textLength="40" x="606" y="397.416">(จอเล็ก)</text><rect fill="#FFFFFF" filter="url(#fxbvsas3oh5yr)" height="51.2" rx="12.5" ry="12.5" style="stroke:#000000;stroke-width:1.5;" width="79" x="600.5" y="445.2"/><text fill="#000000" font-family="sarabun" font-size="12" lengthAdjust="spacing" textLength="59" x="610.5" y="468.016">Path Guide</text><text fill="#000000" font-family="sarabun" font-size="12" lengthAdjust="spacing" textLength="41" x="613.5" y="483.616">(เส้นนำ)</text><rect fill="#FFFFFF" filter="url(#fxbvsas3oh5yr)" height="51.2" rx="12.5" ry="12.5" style="stroke:#000000;stroke-width:1.5;" width="87" x="714.5" y="272.8"/><text fill="#000000" font-family="sarabun" font-size="12" lengthAdjust="spacing" textLength="46" x="724.5" y="295.616">Skeleton</text><text fill="#000000" font-family="sarabun" font-size="12" lengthAdjust="spacing" textLength="64" x="727.5" y="311.216">(โครงกระดูก)</text><rect fill="#FFFFFF" filter="url(#fxbvsas3oh5yr)" height="51.2" rx="12.5" ry="12.5" style="stroke:#000000;stroke-width:1.5;" width="102" x="707" y="359"/><text fill="#000000" font-family="sarabun" font-size="12" lengthAdjust="spacing" textLength="82" x="717" y="381.816">Error Highlights</text><text fill="#000000" font-family="sarabun" font-size="12" lengthAdjust="spacing" textLength="41" x="720" y="397.416">(จุดแดง)</text><rect fill="#FFFFFF" filter="url(#fxbvsas3oh5yr)" height="51.2" rx="12.5" ry="12.5" style="stroke:#000000;stroke-width:1.5;" width="85" x="715.5" y="445.2"/><text fill="#000000" font-family="sarabun" font-size="12" lengthAdjust="spacing" textLength="65" x="725.5" y="468.016">Motion Trail</text><text fill="#000000" font-family="sarabun" font-size="12" lengthAdjust="spacing" textLength="46" x="728.5" y="483.616">(เส้นทาง)</text><rect fill="#FFFFFF" filter="url(#fxbvsas3oh5yr)" height="51.2" rx="12.5" ry="12.5" style="stroke:#000000;stroke-width:1.5;" width="87" x="819" y="272.8"/><text fill="#000000" font-family="sarabun" font-size="12" lengthAdjust="spacing" textLength="58" x="829" y="295.616">Debug Info</text><text fill="#000000" font-family="sarabun" font-size="12" lengthAdjust="spacing" textLength="64" x="832" y="311.216">(ข้อมูลระบบ)</text><polygon fill="#FEFECE" filter="url(#fxbvsas3oh5yr)" points="702,567,702,567,714,579,702,591,702,591,690,579,702,567" style="stroke:#A80036;stroke-width:1.5;"/><rect fill="#FFFFFF" filter="url(#fxbvsas3oh5yr)" height="35.6" rx="12.5" ry="12.5" style="stroke:#000000;stroke-width:1.5;" width="140" x="632" y="611"/><text fill="#000000" font-family="sarabun" font-size="12" lengthAdjust="spacing" textLength="120" x="642" y="633.816">Toggle Checkbox state</text><rect fill="#FFFFFF" filter="url(#fxbvsas3oh5yr)" height="35.6" rx="12.5" ry="12.5" style="stroke:#000000;stroke-width:1.5;" width="180" x="612" y="666.6"/><text fill="#000000" font-family="sarabun" font-size="12" lengthAdjust="spacing" textLength="160" x="622" y="689.416">อัปเดตตัวแปร DisplayController</text><rect fill="#FFFFFF" filter="url(#fxbvsas3oh5yr)" height="35.6" rx="12.5" ry="12.5" style="stroke:#000000;stroke-width:1.5;" width="157" x="1145.5" y="153.9"/><text fill="#000000" font-family="sarabun" font-size="12" lengthAdjust="spacing" textLength="137" x="1155.5" y="176.716">แสดง Dropdown "Settings"</text><polygon fill="#FEFECE" filter="url(#fxbvsas3oh5yr)" points="1190.5,224.5,1257.5,224.5,1269.5,236.5,1257.5,248.5,1190.5,248.5,1178.5,236.5,1190.5,224.5" style="stroke:#A80036;stroke-width:1.5;"/><text fill="#000000" font-family="sarabun" font-size="11" lengthAdjust="spacing" textLength="67" x="1190.5" y="241.098">เลือกหมวดหมู่?</text><rect fill="#FFFFFF" filter="url(#fxbvsas3oh5yr)" height="35.6" rx="12.5" ry="12.5" style="stroke:#000000;stroke-width:1.5;" width="204" x="926" y="272.8"/><text fill="#000000" font-family="sarabun" font-size="12" lengthAdjust="spacing" textLength="184" x="936" y="295.616">เลือกโหมด Lite / Balanced / Quality</text><rect fill="#FFFFFF" filter="url(#fxbvsas3oh5yr)" height="35.6" rx="12.5" ry="12.5" style="stroke:#000000;stroke-width:1.5;" width="204" x="926" y="343.4"/><text fill="#000000" font-family="sarabun" font-size="12" lengthAdjust="spacing" textLength="184" x="936" y="366.216">ปรับความละเอียดกล้อง (480p/720p)</text><rect fill="#FFFFFF" filter="url(#fxbvsas3oh5yr)" height="35.6" rx="12.5" ry="12.5" style="stroke:#000000;stroke-width:1.5;" width="134" x="961" y="414"/><text fill="#000000" font-family="sarabun" font-size="12" lengthAdjust="spacing" textLength="114" x="971" y="436.816">ปรับ Sampling Rate AI</text><rect fill="#FFFFFF" filter="url(#fxbvsas3oh5yr)" height="35.6" rx="12.5" ry="12.5" style="stroke:#000000;stroke-width:1.5;" width="153" x="1140" y="272.8"/><text fill="#000000" font-family="sarabun" font-size="12" lengthAdjust="spacing" textLength="133" x="1150" y="295.616">Toggle Auto-Adjust Light</text><rect fill="#FFFFFF" filter="url(#fxbvsas3oh5yr)" height="51.2" rx="12.5" ry="12.5" style="stroke:#000000;stroke-width:1.5;" width="219" x="1312.5" y="272.8"/><text fill="#000000" font-family="sarabun" font-size="12" lengthAdjust="spacing" textLength="162" x="1322.5" y="295.616">เลือก None / Blur / Silhouette /</text><text fill="#000000" font-family="sarabun" font-size="12" lengthAdjust="spacing" textLength="196" x="1325.5" y="311.216">Virtual Image (Nature/Arch/Abstract)</text><rect fill="#FFFFFF" filter="url(#fxbvsas3oh5yr)" height="35.6" rx="12.5" ry="12.5" style="stroke:#000000;stroke-width:1.5;" width="210" x="1317" y="359"/><text fill="#000000" font-family="sarabun" font-size="12" lengthAdjust="spacing" textLength="190" x="1327" y="381.816">BackgroundManager อัปเดต Masking</text><polygon fill="#FEFECE" filter="url(#fxbvsas3oh5yr)" points="1224,533,1224,533,1236,545,1224,557,1224,557,1212,545,1224,533" style="stroke:#A80036;stroke-width:1.5;"/><rect fill="#FFFFFF" filter="url(#fxbvsas3oh5yr)" height="35.6" rx="12.5" ry="12.5" style="stroke:#000000;stroke-width:1.5;" width="142" x="1698.5" y="153.9"/><text fill="#000000" font-family="sarabun" font-size="12" lengthAdjust="spacing" textLength="122" x="1708.5" y="176.716">แสดง Dropdown "Rules"</text><polygon fill="#FEFECE" filter="url(#fxbvsas3oh5yr)" points="1751.5,224.5,1787.5,224.5,1799.5,236.5,1787.5,248.5,1751.5,248.5,1739.5,236.5,1751.5,224.5" style="stroke:#A80036;stroke-width:1.5;"/><text fill="#000000" font-family="sarabun" font-size="11" lengthAdjust="spacing" textLength="36" x="1751.5" y="241.098">Action?</text><rect fill="#FFFFFF" filter="url(#fxbvsas3oh5yr)" height="35.6" rx="12.5" ry="12.5" style="stroke:#000000;stroke-width:1.5;" width="138" x="1541.5" y="272.8"/><text fill="#000000" font-family="sarabun" font-size="12" lengthAdjust="spacing" textLength="118" x="1551.5" y="295.616">เปิด/ปิด กฎรายข้อ (1-9)</text><rect fill="#FFFFFF" filter="url(#fxbvsas3oh5yr)" height="35.6" rx="12.5" ry="12.5" style="stroke:#000000;stroke-width:1.5;" width="147" x="1699.5" y="272.8"/><text fill="#000000" font-family="sarabun" font-size="12" lengthAdjust="spacing" textLength="127" x="1709.5" y="295.616">ปรับความยาก (แถบเลื่อน)</text><rect fill="#FFFFFF" filter="url(#fxbvsas3oh5yr)" height="35.6" rx="12.5" ry="12.5" style="stroke:#000000;stroke-width:1.5;" width="131" x="1866.5" y="272.8"/><text fill="#000000" font-family="sarabun" font-size="12" lengthAdjust="spacing" textLength="111" x="1876.5" y="295.616">คืนค่าเริ่มต้นตาม Level</text><polygon fill="#FEFECE" filter="url(#fxbvsas3oh5yr)" points="1769.5,418.4,1769.5,418.4,1781.5,430.4,1769.5,442.4,1769.5,442.4,1757.5,430.4,1769.5,418.4" style="stroke:#A80036;stroke-width:1.5;"/><rect fill="#FFFFFF" filter="url(#fxbvsas3oh5yr)" height="35.6" rx="12.5" ry="12.5" style="stroke:#000000;stroke-width:1.5;" width="197" x="1671" y="477.4"/><text fill="#000000" font-family="sarabun" font-size="12" lengthAdjust="spacing" textLength="177" x="1681" y="500.216">อัปเดต Config ใน HeuristicsEngine</text><polygon fill="#FEFECE" filter="url(#fxbvsas3oh5yr)" points="1002,712.2,1002,712.2,1014,724.2,1002,736.2,1002,736.2,990,724.2,1002,712.2" style="stroke:#A80036;stroke-width:1.5;"/><rect fill="#FFFFFF" filter="url(#fxbvsas3oh5yr)" height="35.6" rx="12.5" ry="12.5" style="stroke:#000000;stroke-width:1.5;" width="192" x="906" y="756.2"/><text fill="#000000" font-family="sarabun" font-size="12" lengthAdjust="spacing" textLength="172" x="916" y="779.016">บันทึกค่าการตั้งค่าลง LocalStorage</text><rect fill="#FFFFFF" filter="url(#fxbvsas3oh5yr)" height="35.6" rx="12.5" ry="12.5" style="stroke:#000000;stroke-width:1.5;" width="188" x="908" y="811.8"/><text fill="#000000" font-family="sarabun" font-size="12" lengthAdjust="spacing" textLength="168" x="918" y="834.616">อัปเดตการแสดงผลบนหน้าจอทันที</text><ellipse cx="1002" cy="878.4" fill="#FFFFFF" filter="url(#fxbvsas3oh5yr)" rx="11" ry="11" style="stroke:#000000;stroke-width:1.0;"/><ellipse cx="1002" cy="878.4" fill="#000000" rx="6" ry="6" style="stroke:#7F7F7F;stroke-width:1.0;"/><line style="stroke:#000000;stroke-width:1.5;" x1="1002" x2="1002" y1="30" y2="50"/><polygon fill="#000000" points="998,40,1002,50,1006,40,1002,44" style="stroke:#000000;stroke-width:1.0;"/><line style="stroke:#000000;stroke-width:1.5;" x1="88" x2="88" y1="205.1" y2="240.1"/><polygon fill="#000000" points="84,230.1,88,240.1,92,230.1,88,234.1" style="stroke:#000000;stroke-width:1.0;"/><line style="stroke:#000000;stroke-width:1.5;" x1="256" x2="256" y1="205.1" y2="240.1"/><polygon fill="#000000" points="252,230.1,256,240.1,260,230.1,256,234.1" style="stroke:#000000;stroke-width:1.0;"/><line style="stroke:#000000;stroke-width:1.5;" x1="405" x2="405" y1="205.1" y2="240.1"/><polygon fill="#000000" points="401,230.1,405,240.1,409,230.1,405,234.1" style="stroke:#000000;stroke-width:1.0;"/><line style="stroke:#000000;stroke-width:1.5;" x1="530.5" x2="530.5" y1="324" y2="359"/><polygon fill="#000000" points="526.5,349,530.5,359,534.5,349,530.5,353" style="stroke:#000000;stroke-width:1.0;"/><line style="stroke:#000000;stroke-width:1.5;" x1="530.5" x2="530.5" y1="410.2" y2="445.2"/><polygon fill="#000000" points="526.5,435.2,530.5,445.2,534.5,435.2,530.5,439.2" style="stroke:#000000;stroke-width:1.0;"/><line style="stroke:#000000;stroke-width:1.5;" x1="640" x2="640" y1="324" y2="359"/><polygon fill="#000000" points="636,349,640,359,644,349,640,353" style="stroke:#000000;stroke-width:1.0;"/><line style="stroke:#000000;stroke-width:1.5;" x1="640" x2="640" y1="410.2" y2="445.2"/><polygon fill="#000000" points="636,435.2,640,445.2,644,435.2,640,439.2" style="stroke:#000000;stroke-width:1.0;"/><line style="stroke:#000000;stroke-width:1.5;" x1="758" x2="758" y1="324" y2="359"/><polygon fill="#000000" points="754,349,758,359,762,349,758,353" style="stroke:#000000;stroke-width:1.0;"/><line style="stroke:#000000;stroke-width:1.5;" x1="758" x2="758" y1="410.2" y2="445.2"/><polygon fill="#000000" points="754,435.2,758,445.2,762,435.2,758,439.2" style="stroke:#000000;stroke-width:1.0;"/><line style="stroke:#000000;stroke-width:1.5;" x1="656.5" x2="530.5" y1="236.5" y2="236.5"/><line style="stroke:#000000;stroke-width:1.5;" x1="530.5" x2="530.5" y1="236.5" y2="272.8"/><polygon fill="#000000" points="526.5,262.8,530.5,272.8,534.5,262.8,530.5,266.8" style="stroke:#000000;stroke-width:1.0;"/><text fill="#000000" font-family="sarabun" font-size="11" lengthAdjust="spacing" textLength="53" x="533.5" y="259.248">View Mode</text><line style="stroke:#000000;stroke-width:1.5;" x1="747.5" x2="862.5" y1="236.5" y2="236.5"/><line style="stroke:#000000;stroke-width:1.5;" x1="862.5" x2="862.5" y1="236.5" y2="272.8"/><polygon fill="#000000" points="858.5,262.8,862.5,272.8,866.5,262.8,862.5,266.8" style="stroke:#000000;stroke-width:1.0;"/><text fill="#000000" font-family="sarabun" font-size="11" lengthAdjust="spacing" textLength="49" x="865.5" y="259.248">Developer</text><line style="stroke:#000000;stroke-width:1.5;" x1="530.5" x2="530.5" y1="496.4" y2="579"/><line style="stroke:#000000;stroke-width:1.5;" x1="530.5" x2="690" y1="579" y2="579"/><polygon fill="#000000" points="680,575,690,579,680,583,684,579" style="stroke:#000000;stroke-width:1.0;"/><line style="stroke:#000000;stroke-width:1.5;" x1="862.5" x2="862.5" y1="324" y2="579"/><line style="stroke:#000000;stroke-width:1.5;" x1="862.5" x2="714" y1="579" y2="579"/><polygon fill="#000000" points="724,575,714,579,724,583,720,579" style="stroke:#000000;stroke-width:1.0;"/><line style="stroke:#000000;stroke-width:1.5;" x1="640" x2="640" y1="236.5" y2="272.8"/><polygon fill="#000000" points="636,262.8,640,272.8,644,262.8,640,266.8" style="stroke:#000000;stroke-width:1.0;"/><text fill="#000000" font-family="sarabun" font-size="11" lengthAdjust="spacing" textLength="47" x="643" y="259.248">Instructor</text><line style="stroke:#000000;stroke-width:1.5;" x1="640" x2="640" y1="496.4" y2="579"/><polygon fill="#000000" points="636,569,640,579,644,569,640,573" style="stroke:#000000;stroke-width:1.0;"/><line style="stroke:#000000;stroke-width:1.5;" x1="758" x2="758" y1="236.5" y2="272.8"/><polygon fill="#000000" points="754,262.8,758,272.8,762,262.8,758,266.8" style="stroke:#000000;stroke-width:1.0;"/><text fill="#000000" font-family="sarabun" font-size="11" lengthAdjust="spacing" textLength="37" x="761" y="259.248">Trainee</text><line style="stroke:#000000;stroke-width:1.5;" x1="758" x2="758" y1="496.4" y2="579"/><polygon fill="#000000" points="754,569,758,579,762,569,758,573" style="stroke:#000000;stroke-width:1.0;"/><line style="stroke:#000000;stroke-width:1.5;" x1="702" x2="702" y1="189.5" y2="224.5"/><polygon fill="#000000" points="698,214.5,702,224.5,706,214.5,702,218.5" style="stroke:#000000;stroke-width:1.0;"/><line style="stroke:#000000;stroke-width:1.5;" x1="702" x2="702" y1="591" y2="611"/><polygon fill="#000000" points="698,601,702,611,706,601,702,605" style="stroke:#000000;stroke-width:1.0;"/><line style="stroke:#000000;stroke-width:1.5;" x1="702" x2="702" y1="646.6" y2="666.6"/><polygon fill="#000000" points="698,656.6,702,666.6,706,656.6,702,660.6" style="stroke:#000000;stroke-width:1.0;"/><line style="stroke:#000000;stroke-width:1.5;" x1="1028" x2="1028" y1="308.4" y2="343.4"/><polygon fill="#000000" points="1024,333.4,1028,343.4,1032,333.4,1028,337.4" style="stroke:#000000;stroke-width:1.0;"/><line style="stroke:#000000;stroke-width:1.5;" x1="1028" x2="1028" y1="379" y2="414"/><polygon fill="#000000" points="1024,404,1028,414,1032,404,1028,408" style="stroke:#000000;stroke-width:1.0;"/><line style="stroke:#000000;stroke-width:1.5;" x1="1422" x2="1422" y1="324" y2="359"/><polygon fill="#000000" points="1418,349,1422,359,1426,349,1422,353" style="stroke:#000000;stroke-width:1.0;"/><line style="stroke:#000000;stroke-width:1.5;" x1="1178.5" x2="1028" y1="236.5" y2="236.5"/><line style="stroke:#000000;stroke-width:1.5;" x1="1028" x2="1028" y1="236.5" y2="272.8"/><polygon fill="#000000" points="1024,262.8,1028,272.8,1032,262.8,1028,266.8" style="stroke:#000000;stroke-width:1.0;"/><text fill="#000000" font-family="sarabun" font-size="11" lengthAdjust="spacing" textLength="80" x="1031" y="259.248">⚡ Performance</text><line style="stroke:#000000;stroke-width:1.5;" x1="1269.5" x2="1422" y1="236.5" y2="236.5"/><line style="stroke:#000000;stroke-width:1.5;" x1="1422" x2="1422" y1="236.5" y2="272.8"/><polygon fill="#000000" points="1418,262.8,1422,272.8,1426,262.8,1422,266.8" style="stroke:#000000;stroke-width:1.0;"/><text fill="#000000" font-family="sarabun" font-size="11" lengthAdjust="spacing" textLength="79" x="1425" y="259.248">&#128444;️ Backgrounds</text><line style="stroke:#000000;stroke-width:1.5;" x1="1028" x2="1028" y1="449.6" y2="545"/><line style="stroke:#000000;stroke-width:1.5;" x1="1028" x2="1212" y1="545" y2="545"/><polygon fill="#000000" points="1202,541,1212,545,1202,549,1206,545" style="stroke:#000000;stroke-width:1.0;"/><line style="stroke:#000000;stroke-width:1.5;" x1="1422" x2="1422" y1="394.6" y2="545"/><line style="stroke:#000000;stroke-width:1.5;" x1="1422" x2="1236" y1="545" y2="545"/><polygon fill="#000000" points="1246,541,1236,545,1246,549,1242,545" style="stroke:#000000;stroke-width:1.0;"/><line style="stroke:#000000;stroke-width:1.5;" x1="1224" x2="1224" y1="248.5" y2="256.6"/><line style="stroke:#000000;stroke-width:1.5;" x1="1224" x2="1216.5" y1="256.6" y2="256.6"/><line style="stroke:#000000;stroke-width:1.5;" x1="1216.5" x2="1216.5" y1="256.6" y2="272.8"/><polygon fill="#000000" points="1212.5,262.8,1216.5,272.8,1220.5,262.8,1216.5,266.8" style="stroke:#000000;stroke-width:1.0;"/><text fill="#000000" font-family="sarabun" font-size="11" lengthAdjust="spacing" textLength="52" x="1219.5" y="257.148">&#128262; Effects</text><line style="stroke:#000000;stroke-width:1.5;" x1="1216.5" x2="1216.5" y1="308.4" y2="434"/><line style="stroke:#000000;stroke-width:1.5;" x1="1216.5" x2="1224" y1="434" y2="434"/><line style="stroke:#000000;stroke-width:1.5;" x1="1224" x2="1224" y1="434" y2="533"/><polygon fill="#000000" points="1220,523,1224,533,1228,523,1224,527" style="stroke:#000000;stroke-width:1.0;"/><line style="stroke:#000000;stroke-width:1.5;" x1="1224" x2="1224" y1="189.5" y2="224.5"/><polygon fill="#000000" points="1220,214.5,1224,224.5,1228,214.5,1224,218.5" style="stroke:#000000;stroke-width:1.0;"/><line style="stroke:#000000;stroke-width:1.5;" x1="1739.5" x2="1610.5" y1="236.5" y2="236.5"/><line style="stroke:#000000;stroke-width:1.5;" x1="1610.5" x2="1610.5" y1="236.5" y2="272.8"/><polygon fill="#000000" points="1606.5,262.8,1610.5,272.8,1614.5,262.8,1610.5,266.8" style="stroke:#000000;stroke-width:1.0;"/><text fill="#000000" font-family="sarabun" font-size="11" lengthAdjust="spacing" textLength="57" x="1613.5" y="259.248">Toggle Rule</text><line style="stroke:#000000;stroke-width:1.5;" x1="1799.5" x2="1932" y1="236.5" y2="236.5"/><line style="stroke:#000000;stroke-width:1.5;" x1="1932" x2="1932" y1="236.5" y2="272.8"/><polygon fill="#000000" points="1928,262.8,1932,272.8,1936,262.8,1932,266.8" style="stroke:#000000;stroke-width:1.0;"/><text fill="#000000" font-family="sarabun" font-size="11" lengthAdjust="spacing" textLength="27" x="1935" y="259.248">Reset</text><line style="stroke:#000000;stroke-width:1.5;" x1="1610.5" x2="1610.5" y1="308.4" y2="430.4"/><line style="stroke:#000000;stroke-width:1.5;" x1="1610.5" x2="1757.5" y1="430.4" y2="430.4"/><polygon fill="#000000" points="1747.5,426.4,1757.5,430.4,1747.5,434.4,1751.5,430.4" style="stroke:#000000;stroke-width:1.0;"/><line style="stroke:#000000;stroke-width:1.5;" x1="1932" x2="1932" y1="308.4" y2="430.4"/><line style="stroke:#000000;stroke-width:1.5;" x1="1932" x2="1781.5" y1="430.4" y2="430.4"/><polygon fill="#000000" points="1791.5,426.4,1781.5,430.4,1791.5,434.4,1787.5,430.4" style="stroke:#000000;stroke-width:1.0;"/><line style="stroke:#000000;stroke-width:1.5;" x1="1769.5" x2="1769.5" y1="248.5" y2="256.6"/><line style="stroke:#000000;stroke-width:1.5;" x1="1769.5" x2="1773" y1="256.6" y2="256.6"/><line style="stroke:#000000;stroke-width:1.5;" x1="1773" x2="1773" y1="256.6" y2="272.8"/><polygon fill="#000000" points="1769,262.8,1773,272.8,1777,262.8,1773,266.8" style="stroke:#000000;stroke-width:1.0;"/><text fill="#000000" font-family="sarabun" font-size="11" lengthAdjust="spacing" textLength="82" x="1776" y="257.148">Adjust Threshold</text><line style="stroke:#000000;stroke-width:1.5;" x1="1773" x2="1773" y1="308.4" y2="363.4"/><line style="stroke:#000000;stroke-width:1.5;" x1="1773" x2="1769.5" y1="363.4" y2="363.4"/><line style="stroke:#000000;stroke-width:1.5;" x1="1769.5" x2="1769.5" y1="363.4" y2="418.4"/><polygon fill="#000000" points="1765.5,408.4,1769.5,418.4,1773.5,408.4,1769.5,412.4" style="stroke:#000000;stroke-width:1.0;"/><line style="stroke:#000000;stroke-width:1.5;" x1="1769.5" x2="1769.5" y1="189.5" y2="224.5"/><polygon fill="#000000" points="1765.5,214.5,1769.5,224.5,1773.5,214.5,1769.5,218.5" style="stroke:#000000;stroke-width:1.0;"/><line style="stroke:#000000;stroke-width:1.5;" x1="1769.5" x2="1769.5" y1="442.4" y2="477.4"/><polygon fill="#000000" points="1765.5,467.4,1769.5,477.4,1773.5,467.4,1769.5,471.4" style="stroke:#000000;stroke-width:1.0;"/><line style="stroke:#000000;stroke-width:1.5;" x1="963" x2="88" y1="117.6" y2="117.6"/><line style="stroke:#000000;stroke-width:1.5;" x1="88" x2="88" y1="117.6" y2="153.9"/><polygon fill="#000000" points="84,143.9,88,153.9,92,143.9,88,147.9" style="stroke:#000000;stroke-width:1.0;"/><text fill="#000000" font-family="sarabun" font-size="11" lengthAdjust="spacing" textLength="76" x="91" y="140.348">ปุ่มภาษา &#127481;&#127469;/&#127468;&#127463;</text><line style="stroke:#000000;stroke-width:1.5;" x1="1041" x2="1769.5" y1="117.6" y2="117.6"/><line style="stroke:#000000;stroke-width:1.5;" x1="1769.5" x2="1769.5" y1="117.6" y2="153.9"/><polygon fill="#000000" points="1765.5,143.9,1769.5,153.9,1773.5,143.9,1769.5,147.9" style="stroke:#000000;stroke-width:1.0;"/><text fill="#000000" font-family="sarabun" font-size="11" lengthAdjust="spacing" textLength="61" x="1772.5" y="140.348">ปุ่ม Rules &#128295;</text><line style="stroke:#000000;stroke-width:1.5;" x1="88" x2="88" y1="275.7" y2="724.2"/><line style="stroke:#000000;stroke-width:1.5;" x1="88" x2="990" y1="724.2" y2="724.2"/><polygon fill="#000000" points="980,720.2,990,724.2,980,728.2,984,724.2" style="stroke:#000000;stroke-width:1.0;"/><line style="stroke:#000000;stroke-width:1.5;" x1="1769.5" x2="1769.5" y1="513" y2="724.2"/><line style="stroke:#000000;stroke-width:1.5;" x1="1769.5" x2="1014" y1="724.2" y2="724.2"/><polygon fill="#000000" points="1024,720.2,1014,724.2,1024,728.2,1020,724.2" style="stroke:#000000;stroke-width:1.0;"/><line style="stroke:#000000;stroke-width:1.5;" x1="256" x2="256" y1="117.6" y2="153.9"/><polygon fill="#000000" points="252,143.9,256,153.9,260,143.9,256,147.9" style="stroke:#000000;stroke-width:1.0;"/><text fill="#000000" font-family="sarabun" font-size="11" lengthAdjust="spacing" textLength="57" x="259" y="140.348">ปุ่มธีม &#127769;/☀️</text><line style="stroke:#000000;stroke-width:1.5;" x1="256" x2="256" y1="275.7" y2="724.2"/><polygon fill="#000000" points="252,714.2,256,724.2,260,714.2,256,718.2" style="stroke:#000000;stroke-width:1.0;"/><line style="stroke:#000000;stroke-width:1.5;" x1="405" x2="405" y1="117.6" y2="153.9"/><polygon fill="#000000" points="401,143.9,405,153.9,409,143.9,405,147.9" style="stroke:#000000;stroke-width:1.0;"/><text fill="#000000" font-family="sarabun" font-size="11" lengthAdjust="spacing" textLength="72" x="408" y="140.348">ปุ่มเสียง &#128266;/&#128263;</text><line style="stroke:#000000;stroke-width:1.5;" x1="405" x2="405" y1="275.7" y2="724.2"/><polygon fill="#000000" points="401,714.2,405,724.2,409,714.2,405,718.2" style="stroke:#000000;stroke-width:1.0;"/><line style="stroke:#000000;stroke-width:1.5;" x1="702" x2="702" y1="117.6" y2="153.9"/><polygon fill="#000000" points="698,143.9,702,153.9,706,143.9,702,147.9" style="stroke:#000000;stroke-width:1.0;"/><text fill="#000000" font-family="sarabun" font-size="11" lengthAdjust="spacing" textLength="70" x="705" y="140.348">ปุ่ม Display &#128065;️</text><line style="stroke:#000000;stroke-width:1.5;" x1="702" x2="702" y1="702.2" y2="724.2"/><polygon fill="#000000" points="698,714.2,702,724.2,706,714.2,702,718.2" style="stroke:#000000;stroke-width:1.0;"/><line style="stroke:#000000;stroke-width:1.5;" x1="1224" x2="1224" y1="117.6" y2="153.9"/><polygon fill="#000000" points="1220,143.9,1224,153.9,1228,143.9,1224,147.9" style="stroke:#000000;stroke-width:1.0;"/><text fill="#000000" font-family="sarabun" font-size="11" lengthAdjust="spacing" textLength="67" x="1227" y="140.348">ปุ่ม Settings ⚙️</text><line style="stroke:#000000;stroke-width:1.5;" x1="1224" x2="1224" y1="557" y2="724.2"/><polygon fill="#000000" points="1220,714.2,1224,724.2,1228,714.2,1224,718.2" style="stroke:#000000;stroke-width:1.0;"/><line style="stroke:#000000;stroke-width:1.5;" x1="1002" x2="1002" y1="85.6" y2="105.6"/><polygon fill="#000000" points="998,95.6,1002,105.6,1006,95.6,1002,99.6" style="stroke:#000000;stroke-width:1.0;"/><line style="stroke:#000000;stroke-width:1.5;" x1="1002" x2="1002" y1="736.2" y2="756.2"/><polygon fill="#000000" points="998,746.2,1002,756.2,1006,746.2,1002,750.2" style="stroke:#000000;stroke-width:1.0;"/><line style="stroke:#000000;stroke-width:1.5;" x1="1002" x2="1002" y1="791.8" y2="811.8"/><polygon fill="#000000" points="998,801.8,1002,811.8,1006,801.8,1002,805.8" style="stroke:#000000;stroke-width:1.0;"/><line style="stroke:#000000;stroke-width:1.5;" x1="1002" x2="1002" y1="847.4" y2="867.4"/><polygon fill="#000000" points="998,857.4,1002,867.4,1006,857.4,1002,861.4" style="stroke:#000000;stroke-width:1.0;"/><!--MD5=[91223ffcb171013cbf68a26d592f2d99]
@startuml TaijiFlow_Activity_Diagram_UC05
' ============================================================================
' TaijiFlow AI - Activity Diagram: UC-05 Manage Settings
' ============================================================================
' อัปเดต: 2026-01-24 (Reflects new Settings/Display hierarchy)
' ============================================================================

skinparam defaultFontName "sarabun"
skinparam activity {
    BackgroundColor White
    BorderColor Black
    ArrowColor Black
}

start
:ผู้ใช้งานคลิกปุ่มตั้งค่า (Settings/Display/Rules);

switch (เลือกเมนูใด?)

' ============================================================================
' 1. Quick Toggles (บน Navbar)
' ============================================================================
case ( ปุ่มภาษา 🇹🇭/🇬🇧 )
    :สลับค่าภาษา\n (Thai <-> English);
    :อัปเดตข้อความ UI และเสียง;
    
case ( ปุ่มธีม 🌙/☀️ )
    :สลับค่า Theme\n (Dark <-> Light);
    :อัปเดต CSS Global Classes;
    
case ( ปุ่มเสียง 🔊/🔇 )
    :สลับค่า Audio\n (Mute <-> Unmute);
    :อัปเดตไอคอนลำโพง;

' ============================================================================
' 2. Display Menu 👁️ (View Options)
' ============================================================================
case ( ปุ่ม Display 👁️ )
    :แสดง Dropdown "Display Options";
    
    switch (เลือกหมวดหมู่?)
    case ( View Mode )
        :Side-by-Side\n (จอแยก);
        :Mirror Mode\n (กระจก);
        :Grid Overlay\n (ตาราง);
    case ( Instructor )
        :Ghost Overlay\n (เงาครู);
        :Instructor PiP\n (จอเล็ก);
        :Path Guide\n (เส้นนำ);
    case ( Trainee )
        :Skeleton\n (โครงกระดูก);
        :Error Highlights\n (จุดแดง);
        :Motion Trail\n (เส้นทาง);
    case ( Developer )
        :Debug Info\n (ข้อมูลระบบ);
    endswitch
    
    :Toggle Checkbox state;
    :อัปเดตตัวแปร DisplayController;

' ============================================================================
' 3. Settings Menu ⚙️ (System & Effects)
' ============================================================================
case ( ปุ่ม Settings ⚙️ )
    :แสดง Dropdown "Settings";
    
    switch (เลือกหมวดหมู่?)
    case ( ⚡ Performance )
        :เลือกโหมด Lite / Balanced / Quality;
        :ปรับความละเอียดกล้อง (480p/720p);
        :ปรับ Sampling Rate AI;
    case ( 🔆 Effects )
        :Toggle Auto-Adjust Light;
    case ( 🖼️ Backgrounds )
        :เลือก None / Blur / Silhouette / \n Virtual Image (Nature/Arch/Abstract);
        :BackgroundManager อัปเดต Masking;
    endswitch

' ============================================================================
' 4. Rules Menu 🔧 (Heuristics)
' ============================================================================
case ( ปุ่ม Rules 🔧 )
    :แสดง Dropdown "Rules";
    
    switch (Action?)
    case ( Toggle Rule )
        :เปิด/ปิด กฎรายข้อ (1-9);
    case ( Adjust Threshold )
        :ปรับความยาก (แถบเลื่อน);
    case ( Reset )
        :คืนค่าเริ่มต้นตาม Level;
    endswitch
    
    :อัปเดต Config ใน HeuristicsEngine;

endswitch

:บันทึกค่าการตั้งค่าลง LocalStorage;
:อัปเดตการแสดงผลบนหน้าจอทันที;

stop
@enduml

@startuml TaijiFlow_Activity_Diagram_UC05

skinparam defaultFontName "sarabun"
skinparam activity {
    BackgroundColor White
    BorderColor Black
    ArrowColor Black
}

start
:ผู้ใช้งานคลิกปุ่มตั้งค่า (Settings/Display/Rules);

switch (เลือกเมนูใด?)

case ( ปุ่มภาษา 🇹🇭/🇬🇧 )
    :สลับค่าภาษา\n (Thai <-> English);
    :อัปเดตข้อความ UI และเสียง;
    
case ( ปุ่มธีม 🌙/☀️ )
    :สลับค่า Theme\n (Dark <-> Light);
    :อัปเดต CSS Global Classes;
    
case ( ปุ่มเสียง 🔊/🔇 )
    :สลับค่า Audio\n (Mute <-> Unmute);
    :อัปเดตไอคอนลำโพง;

case ( ปุ่ม Display 👁️ )
    :แสดง Dropdown "Display Options";
    
    switch (เลือกหมวดหมู่?)
    case ( View Mode )
        :Side-by-Side\n (จอแยก);
        :Mirror Mode\n (กระจก);
        :Grid Overlay\n (ตาราง);
    case ( Instructor )
        :Ghost Overlay\n (เงาครู);
        :Instructor PiP\n (จอเล็ก);
        :Path Guide\n (เส้นนำ);
    case ( Trainee )
        :Skeleton\n (โครงกระดูก);
        :Error Highlights\n (จุดแดง);
        :Motion Trail\n (เส้นทาง);
    case ( Developer )
        :Debug Info\n (ข้อมูลระบบ);
    endswitch
    
    :Toggle Checkbox state;
    :อัปเดตตัวแปร DisplayController;

case ( ปุ่ม Settings ⚙️ )
    :แสดง Dropdown "Settings";
    
    switch (เลือกหมวดหมู่?)
    case ( ⚡ Performance )
        :เลือกโหมด Lite / Balanced / Quality;
        :ปรับความละเอียดกล้อง (480p/720p);
        :ปรับ Sampling Rate AI;
    case ( 🔆 Effects )
        :Toggle Auto-Adjust Light;
    case ( 🖼️ Backgrounds )
        :เลือก None / Blur / Silhouette / \n Virtual Image (Nature/Arch/Abstract);
        :BackgroundManager อัปเดต Masking;
    endswitch

case ( ปุ่ม Rules 🔧 )
    :แสดง Dropdown "Rules";
    
    switch (Action?)
    case ( Toggle Rule )
        :เปิด/ปิด กฎรายข้อ (1-9);
    case ( Adjust Threshold )
        :ปรับความยาก (แถบเลื่อน);
    case ( Reset )
        :คืนค่าเริ่มต้นตาม Level;
    endswitch
    
    :อัปเดต Config ใน HeuristicsEngine;

endswitch

:บันทึกค่าการตั้งค่าลง LocalStorage;
:อัปเดตการแสดงผลบนหน้าจอทันที;

stop
@enduml

PlantUML version 1.2021.00(Sun Jan 10 17:25:05 ICT 2021)
(MIT source distribution)
Java Runtime: OpenJDK Runtime Environment
JVM: OpenJDK 64-Bit Server VM
Default Encoding: UTF-8
Language: en
Country: US
--></g></svg>