<?xml version="1.0" encoding="UTF-8" standalone="no"?><svg xmlns="http://www.w3.org/2000/svg" xmlns:xlink="http://www.w3.org/1999/xlink" contentScriptType="application/ecmascript" contentStyleType="text/css" height="656px" preserveAspectRatio="none" style="width:1107px;height:656px;" version="1.1" viewBox="0 0 1107 656" width="1107px" zoomAndPan="magnify"><defs><filter height="300%" id="f1dyhyz2rktig3" width="300%" x="-1" y="-1"><feGaussianBlur result="blurOut" stdDeviation="2.0"/><feColorMatrix in="blurOut" result="blurOut2" type="matrix" values="0 0 0 0 0 0 0 0 0 0 0 0 0 0 0 0 0 0 .4 0"/><feOffset dx="4.0" dy="4.0" in="blurOut2" result="blurOut3"/><feBlend in="SourceGraphic" in2="blurOut3" mode="normal"/></filter></defs><g><ellipse cx="545.5" cy="20" fill="#000000" filter="url(#f1dyhyz2rktig3)" rx="10" ry="10" style="stroke:none;stroke-width:1.0;"/><path d="M660,40 L660,66.35 L640,70.35 L660,74.35 L660,100.7 A0,0 0 0 0 660,100.7 L825,100.7 A0,0 0 0 0 825,100.7 L825,50 L815,40 L660,40 A0,0 0 0 0 660,40 " fill="#D3D3D3" filter="url(#f1dyhyz2rktig3)" style="stroke:#A80036;stroke-width:1.0;"/><path d="M815,40 L815,50 L825,50 L815,40 " fill="#D3D3D3" style="stroke:#A80036;stroke-width:1.0;"/><text fill="#000000" font-family="sarabun" font-size="13" font-weight="bold" lengthAdjust="spacing" textLength="144" x="666" y="58.884">Development Mode Only</text><text fill="#000000" font-family="sarabun" font-size="13" lengthAdjust="spacing" textLength="131" x="666" y="75.784">Display &#128065;️ และ Rules ⚙️</text><text fill="#000000" font-family="sarabun" font-size="13" lengthAdjust="spacing" textLength="101" x="666" y="92.684">ซ่อนใน Production</text><rect fill="#FFFFFF" filter="url(#f1dyhyz2rktig3)" height="35.6" rx="12.5" ry="12.5" style="stroke:#000000;stroke-width:1.5;" width="189" x="451" y="52.55"/><text fill="#000000" font-family="sarabun" font-size="12" lengthAdjust="spacing" textLength="169" x="461" y="75.366">ผู้ใช้งานเลือกกดปุ่มตั้งค่าบนหน้าจอ</text><polygon fill="#FEFECE" filter="url(#f1dyhyz2rktig3)" points="511.5,120.7,579.5,120.7,591.5,132.7,579.5,144.7,511.5,144.7,499.5,132.7,511.5,120.7" style="stroke:#A80036;stroke-width:1.5;"/><text fill="#000000" font-family="sarabun" font-size="11" lengthAdjust="spacing" textLength="68" x="511.5" y="137.298">เลือกปรับค่าใด?</text><rect fill="#FFFFFF" filter="url(#f1dyhyz2rktig3)" height="35.6" rx="12.5" ry="12.5" style="stroke:#000000;stroke-width:1.5;" width="178" x="11" y="169"/><text fill="#000000" font-family="sarabun" font-size="12" lengthAdjust="spacing" textLength="158" x="21" y="191.816">สลับค่าภาษา (Thai &lt;-&gt; English)</text><rect fill="#FFFFFF" filter="url(#f1dyhyz2rktig3)" height="35.6" rx="12.5" ry="12.5" style="stroke:#000000;stroke-width:1.5;" width="154" x="23" y="224.6"/><text fill="#000000" font-family="sarabun" font-size="12" lengthAdjust="spacing" textLength="134" x="33" y="247.416">อัปเดตข้อความ UI และเสียง</text><rect fill="#FFFFFF" filter="url(#f1dyhyz2rktig3)" height="35.6" rx="12.5" ry="12.5" style="stroke:#000000;stroke-width:1.5;" width="180" x="199" y="169"/><text fill="#000000" font-family="sarabun" font-size="12" lengthAdjust="spacing" textLength="160" x="209" y="191.816">สลับค่า Theme (Dark &lt;-&gt; Light)</text><rect fill="#FFFFFF" filter="url(#f1dyhyz2rktig3)" height="35.6" rx="12.5" ry="12.5" style="stroke:#000000;stroke-width:1.5;" width="115" x="231.5" y="224.6"/><text fill="#000000" font-family="sarabun" font-size="12" lengthAdjust="spacing" textLength="95" x="241.5" y="247.416">อัปเดต CSS Classes</text><rect fill="#FFFFFF" filter="url(#f1dyhyz2rktig3)" height="35.6" rx="12.5" ry="12.5" style="stroke:#000000;stroke-width:1.5;" width="195" x="389" y="169"/><text fill="#000000" font-family="sarabun" font-size="12" lengthAdjust="spacing" textLength="175" x="399" y="191.816">สลับค่า Audio (Mute &lt;-&gt; Unmute)</text><rect fill="#FFFFFF" filter="url(#f1dyhyz2rktig3)" height="35.6" rx="12.5" ry="12.5" style="stroke:#000000;stroke-width:1.5;" width="119" x="427" y="224.6"/><text fill="#000000" font-family="sarabun" font-size="12" lengthAdjust="spacing" textLength="99" x="437" y="247.416">อัปเดตไอคอนลำโพง</text><rect fill="#FFFFFF" filter="url(#f1dyhyz2rktig3)" height="35.6" rx="12.5" ry="12.5" style="stroke:#000000;stroke-width:1.5;" width="136" x="604" y="169"/><text fill="#000000" font-family="sarabun" font-size="12" lengthAdjust="spacing" textLength="116" x="614" y="191.816">แสดง Dropdown Menu</text><rect fill="#FFFFFF" filter="url(#f1dyhyz2rktig3)" height="35.6" rx="12.5" ry="12.5" style="stroke:#000000;stroke-width:1.5;" width="123" x="610.5" y="224.6"/><text fill="#000000" font-family="sarabun" font-size="12" lengthAdjust="spacing" textLength="103" x="620.5" y="247.416">เลือก Toggle Option</text><rect fill="#FFFFFF" filter="url(#f1dyhyz2rktig3)" height="35.6" rx="12.5" ry="12.5" style="stroke:#000000;stroke-width:1.5;" width="110" x="617" y="295.2"/><text fill="#000000" font-family="sarabun" font-size="12" lengthAdjust="spacing" textLength="90" x="627" y="318.016">สลับค่า Checkbox</text><rect fill="#FFFFFF" filter="url(#f1dyhyz2rktig3)" height="35.6" rx="12.5" ry="12.5" style="stroke:#000000;stroke-width:1.5;" width="110" x="875" y="169"/><text fill="#000000" font-family="sarabun" font-size="12" lengthAdjust="spacing" textLength="90" x="885" y="191.816">แสดง Rules Menu</text><polygon fill="#FEFECE" filter="url(#f1dyhyz2rktig3)" points="912,224.6,948,224.6,960,236.6,948,248.6,912,248.6,900,236.6,912,224.6" style="stroke:#A80036;stroke-width:1.5;"/><text fill="#000000" font-family="sarabun" font-size="11" lengthAdjust="spacing" textLength="36" x="912" y="241.198">Action?</text><rect fill="#FFFFFF" filter="url(#f1dyhyz2rktig3)" height="35.6" rx="12.5" ry="12.5" style="stroke:#000000;stroke-width:1.5;" width="109" x="760" y="272.9"/><text fill="#000000" font-family="sarabun" font-size="12" lengthAdjust="spacing" textLength="89" x="770" y="295.716">เปิด/ปิด กฎที่เลือก</text><rect fill="#FFFFFF" filter="url(#f1dyhyz2rktig3)" height="35.6" rx="12.5" ry="12.5" style="stroke:#000000;stroke-width:1.5;" width="111" x="889" y="272.9"/><text fill="#000000" font-family="sarabun" font-size="12" lengthAdjust="spacing" textLength="91" x="899" y="295.716">ปรับค่า Threshold</text><rect fill="#FFFFFF" filter="url(#f1dyhyz2rktig3)" height="35.6" rx="12.5" ry="12.5" style="stroke:#000000;stroke-width:1.5;" width="80" x="1010" y="272.9"/><text fill="#000000" font-family="sarabun" font-size="12" lengthAdjust="spacing" textLength="60" x="1020" y="295.716">คืนค่าเริ่มต้น</text><polygon fill="#FEFECE" filter="url(#f1dyhyz2rktig3)" points="930,350.8,930,350.8,942,362.8,930,374.8,930,374.8,918,362.8,930,350.8" style="stroke:#A80036;stroke-width:1.5;"/><polygon fill="#FEFECE" filter="url(#f1dyhyz2rktig3)" points="545.5,384.8,545.5,384.8,557.5,396.8,545.5,408.8,545.5,408.8,533.5,396.8,545.5,384.8" style="stroke:#A80036;stroke-width:1.5;"/><path d="M661.5,418.8 L661.5,504.3 L641.5,508.3 L661.5,512.3 L661.5,597.8 A0,0 0 0 0 661.5,597.8 L889.5,597.8 A0,0 0 0 0 889.5,597.8 L889.5,428.8 L879.5,418.8 L661.5,418.8 A0,0 0 0 0 661.5,418.8 " fill="#FBFB77" filter="url(#f1dyhyz2rktig3)" style="stroke:#A80036;stroke-width:1.0;"/><path d="M879.5,418.8 L879.5,428.8 L889.5,428.8 L879.5,418.8 " fill="#FBFB77" style="stroke:#A80036;stroke-width:1.0;"/><text fill="#000000" font-family="sarabun" font-size="13" lengthAdjust="spacing" text-decoration="underline" textLength="42" x="667.5" y="437.684">Legend</text><ellipse cx="673" cy="450.1" fill="#000000" rx="2.5" ry="2.5" style="stroke:#000000;stroke-width:0.0;"/><text fill="#000000" font-family="sarabun" font-size="13" lengthAdjust="spacing" textLength="116" x="678.5" y="454.584">= Development Only</text><text fill="#000000" font-family="sarabun" font-size="13" lengthAdjust="spacing" textLength="0" x="670.5" y="471.484"/><text fill="#000000" font-family="sarabun" font-size="13" font-weight="bold" lengthAdjust="spacing" textLength="116" x="667.5" y="488.384">Display Options (7):</text><text fill="#000000" font-family="sarabun" font-size="13" lengthAdjust="spacing" textLength="129" x="667.5" y="505.284">Path, Instructor, Ghost,</text><text fill="#000000" font-family="sarabun" font-size="13" lengthAdjust="spacing" textLength="189" x="667.5" y="522.184">Skeleton, Trail, Silhouette, Debug</text><text fill="#000000" font-family="sarabun" font-size="13" lengthAdjust="spacing" textLength="0" x="670.5" y="539.084"/><text fill="#000000" font-family="sarabun" font-size="13" font-weight="bold" lengthAdjust="spacing" textLength="56" x="667.5" y="555.984">Rules (8):</text><text fill="#000000" font-family="sarabun" font-size="13" lengthAdjust="spacing" textLength="161" x="667.5" y="572.884">Path, Rotation, Elbow, Waist,</text><text fill="#000000" font-family="sarabun" font-size="13" lengthAdjust="spacing" textLength="207" x="667.5" y="589.784">Stability, Smooth, Continuity, Weight</text><rect fill="#FFFFFF" filter="url(#f1dyhyz2rktig3)" height="35.6" rx="12.5" ry="12.5" style="stroke:#000000;stroke-width:1.5;" width="192" x="449.5" y="490.5"/><text fill="#000000" font-family="sarabun" font-size="12" lengthAdjust="spacing" textLength="172" x="459.5" y="513.316">บันทึกค่าการตั้งค่าลง LocalStorage</text><ellipse cx="545.5" cy="628.8" fill="#FFFFFF" filter="url(#f1dyhyz2rktig3)" rx="11" ry="11" style="stroke:#000000;stroke-width:1.0;"/><ellipse cx="545.5" cy="628.8" fill="#000000" rx="6" ry="6" style="stroke:#7F7F7F;stroke-width:1.0;"/><line style="stroke:#000000;stroke-width:1.5;" x1="545.5" x2="545.5" y1="30" y2="52.55"/><polygon fill="#000000" points="541.5,42.55,545.5,52.55,549.5,42.55,545.5,46.55" style="stroke:#000000;stroke-width:1.0;"/><line style="stroke:#000000;stroke-width:1.5;" x1="100" x2="100" y1="204.6" y2="224.6"/><polygon fill="#000000" points="96,214.6,100,224.6,104,214.6,100,218.6" style="stroke:#000000;stroke-width:1.0;"/><line style="stroke:#000000;stroke-width:1.5;" x1="289" x2="289" y1="204.6" y2="224.6"/><polygon fill="#000000" points="285,214.6,289,224.6,293,214.6,289,218.6" style="stroke:#000000;stroke-width:1.0;"/><line style="stroke:#000000;stroke-width:1.5;" x1="486.5" x2="486.5" y1="204.6" y2="224.6"/><polygon fill="#000000" points="482.5,214.6,486.5,224.6,490.5,214.6,486.5,218.6" style="stroke:#000000;stroke-width:1.0;"/><line style="stroke:#000000;stroke-width:1.5;" x1="672" x2="672" y1="204.6" y2="224.6"/><polygon fill="#000000" points="668,214.6,672,224.6,676,214.6,672,218.6" style="stroke:#000000;stroke-width:1.0;"/><line style="stroke:#000000;stroke-width:1.5;" x1="672" x2="672" y1="260.2" y2="295.2"/><polygon fill="#000000" points="668,285.2,672,295.2,676,285.2,672,289.2" style="stroke:#000000;stroke-width:1.0;"/><line style="stroke:#000000;stroke-width:1.5;" x1="900" x2="814.5" y1="236.6" y2="236.6"/><line style="stroke:#000000;stroke-width:1.5;" x1="814.5" x2="814.5" y1="236.6" y2="272.9"/><polygon fill="#000000" points="810.5,262.9,814.5,272.9,818.5,262.9,814.5,266.9" style="stroke:#000000;stroke-width:1.0;"/><text fill="#000000" font-family="sarabun" font-size="11" lengthAdjust="spacing" textLength="33" x="817.5" y="259.348">Toggle</text><line style="stroke:#000000;stroke-width:1.5;" x1="960" x2="1050" y1="236.6" y2="236.6"/><line style="stroke:#000000;stroke-width:1.5;" x1="1050" x2="1050" y1="236.6" y2="272.9"/><polygon fill="#000000" points="1046,262.9,1050,272.9,1054,262.9,1050,266.9" style="stroke:#000000;stroke-width:1.0;"/><text fill="#000000" font-family="sarabun" font-size="11" lengthAdjust="spacing" textLength="27" x="1053" y="259.348">Reset</text><line style="stroke:#000000;stroke-width:1.5;" x1="814.5" x2="814.5" y1="308.5" y2="362.8"/><line style="stroke:#000000;stroke-width:1.5;" x1="814.5" x2="918" y1="362.8" y2="362.8"/><polygon fill="#000000" points="908,358.8,918,362.8,908,366.8,912,362.8" style="stroke:#000000;stroke-width:1.0;"/><line style="stroke:#000000;stroke-width:1.5;" x1="1050" x2="1050" y1="308.5" y2="362.8"/><line style="stroke:#000000;stroke-width:1.5;" x1="1050" x2="942" y1="362.8" y2="362.8"/><polygon fill="#000000" points="952,358.8,942,362.8,952,366.8,948,362.8" style="stroke:#000000;stroke-width:1.0;"/><line style="stroke:#000000;stroke-width:1.5;" x1="930" x2="930" y1="248.6" y2="256.7"/><line style="stroke:#000000;stroke-width:1.5;" x1="930" x2="944.5" y1="256.7" y2="256.7"/><line style="stroke:#000000;stroke-width:1.5;" x1="944.5" x2="944.5" y1="256.7" y2="272.9"/><polygon fill="#000000" points="940.5,262.9,944.5,272.9,948.5,262.9,944.5,266.9" style="stroke:#000000;stroke-width:1.0;"/><text fill="#000000" font-family="sarabun" font-size="11" lengthAdjust="spacing" textLength="31" x="947.5" y="257.248">Adjust</text><line style="stroke:#000000;stroke-width:1.5;" x1="944.5" x2="944.5" y1="308.5" y2="335.8"/><line style="stroke:#000000;stroke-width:1.5;" x1="944.5" x2="930" y1="335.8" y2="335.8"/><line style="stroke:#000000;stroke-width:1.5;" x1="930" x2="930" y1="335.8" y2="350.8"/><polygon fill="#000000" points="926,340.8,930,350.8,934,340.8,930,344.8" style="stroke:#000000;stroke-width:1.0;"/><line style="stroke:#000000;stroke-width:1.5;" x1="930" x2="930" y1="204.6" y2="224.6"/><polygon fill="#000000" points="926,214.6,930,224.6,934,214.6,930,218.6" style="stroke:#000000;stroke-width:1.0;"/><line style="stroke:#000000;stroke-width:1.5;" x1="499.5" x2="100" y1="132.7" y2="132.7"/><line style="stroke:#000000;stroke-width:1.5;" x1="100" x2="100" y1="132.7" y2="169"/><polygon fill="#000000" points="96,159,100,169,104,159,100,163" style="stroke:#000000;stroke-width:1.0;"/><text fill="#000000" font-family="sarabun" font-size="11" lengthAdjust="spacing" textLength="76" x="103" y="155.448">ปุ่มภาษา &#127481;&#127469;/&#127468;&#127463;</text><line style="stroke:#000000;stroke-width:1.5;" x1="591.5" x2="930" y1="132.7" y2="132.7"/><line style="stroke:#000000;stroke-width:1.5;" x1="930" x2="930" y1="132.7" y2="169"/><polygon fill="#000000" points="926,159,930,169,934,159,930,163" style="stroke:#000000;stroke-width:1.0;"/><text fill="#000000" font-family="sarabun" font-size="11" lengthAdjust="spacing" textLength="61" x="933" y="155.448">ปุ่ม Rules ⚙️ *</text><line style="stroke:#000000;stroke-width:1.5;" x1="100" x2="100" y1="260.2" y2="396.8"/><line style="stroke:#000000;stroke-width:1.5;" x1="100" x2="533.5" y1="396.8" y2="396.8"/><polygon fill="#000000" points="523.5,392.8,533.5,396.8,523.5,400.8,527.5,396.8" style="stroke:#000000;stroke-width:1.0;"/><line style="stroke:#000000;stroke-width:1.5;" x1="930" x2="930" y1="374.8" y2="396.8"/><line style="stroke:#000000;stroke-width:1.5;" x1="930" x2="557.5" y1="396.8" y2="396.8"/><polygon fill="#000000" points="567.5,392.8,557.5,396.8,567.5,400.8,563.5,396.8" style="stroke:#000000;stroke-width:1.0;"/><line style="stroke:#000000;stroke-width:1.5;" x1="289" x2="289" y1="132.7" y2="169"/><polygon fill="#000000" points="285,159,289,169,293,159,289,163" style="stroke:#000000;stroke-width:1.0;"/><text fill="#000000" font-family="sarabun" font-size="11" lengthAdjust="spacing" textLength="57" x="292" y="155.448">ปุ่มธีม &#127769;/☀️</text><line style="stroke:#000000;stroke-width:1.5;" x1="289" x2="289" y1="260.2" y2="396.8"/><polygon fill="#000000" points="285,386.8,289,396.8,293,386.8,289,390.8" style="stroke:#000000;stroke-width:1.0;"/><line style="stroke:#000000;stroke-width:1.5;" x1="486.5" x2="486.5" y1="132.7" y2="169"/><polygon fill="#000000" points="482.5,159,486.5,169,490.5,159,486.5,163" style="stroke:#000000;stroke-width:1.0;"/><text fill="#000000" font-family="sarabun" font-size="11" lengthAdjust="spacing" textLength="72" x="489.5" y="155.448">ปุ่มเสียง &#128266;/&#128263;</text><line style="stroke:#000000;stroke-width:1.5;" x1="486.5" x2="486.5" y1="260.2" y2="396.8"/><polygon fill="#000000" points="482.5,386.8,486.5,396.8,490.5,386.8,486.5,390.8" style="stroke:#000000;stroke-width:1.0;"/><line style="stroke:#000000;stroke-width:1.5;" x1="672" x2="672" y1="132.7" y2="169"/><polygon fill="#000000" points="668,159,672,169,676,159,672,163" style="stroke:#000000;stroke-width:1.0;"/><text fill="#000000" font-family="sarabun" font-size="11" lengthAdjust="spacing" textLength="78" x="675" y="155.448">ปุ่ม Display &#128065;️ *</text><line style="stroke:#000000;stroke-width:1.5;" x1="672" x2="672" y1="330.8" y2="396.8"/><polygon fill="#000000" points="668,386.8,672,396.8,676,386.8,672,390.8" style="stroke:#000000;stroke-width:1.0;"/><line style="stroke:#000000;stroke-width:1.5;" x1="545.5" x2="545.5" y1="88.15" y2="120.7"/><polygon fill="#000000" points="541.5,110.7,545.5,120.7,549.5,110.7,545.5,114.7" style="stroke:#000000;stroke-width:1.0;"/><line style="stroke:#000000;stroke-width:1.5;" x1="545.5" x2="545.5" y1="408.8" y2="490.5"/><polygon fill="#000000" points="541.5,480.5,545.5,490.5,549.5,480.5,545.5,484.5" style="stroke:#000000;stroke-width:1.0;"/><line style="stroke:#000000;stroke-width:1.5;" x1="545.5" x2="545.5" y1="526.1" y2="617.8"/><polygon fill="#000000" points="541.5,607.8,545.5,617.8,549.5,607.8,545.5,611.8" style="stroke:#000000;stroke-width:1.0;"/><!--MD5=[ab4fd794634ecefab20fd7a8ef9dab20]
@startuml TaijiFlow_Activity_Diagram_UC05
' ============================================================================
' TaijiFlow AI - Activity Diagram: UC-05 Manage Settings
' ============================================================================
' อัปเดต: เพิ่ม Display Options และ Rules Config (Development Only)
' ============================================================================

skinparam defaultFontName "sarabun"
skinparam activity {
    BackgroundColor White
    BorderColor Black
    ArrowColor Black
}

start
:ผู้ใช้งานเลือกกดปุ่มตั้งค่าบนหน้าจอ;

' Floating Notes สำหรับ Development Features
note right #LightGray
    **Development Mode Only**
    Display 👁️ และ Rules ⚙️
    ซ่อนใน Production
end note

switch (เลือกปรับค่าใด?)

case ( ปุ่มภาษา 🇹🇭/🇬🇧 )
    :สลับค่าภาษา (Thai <-> English);
    :อัปเดตข้อความ UI และเสียง;
    
case ( ปุ่มธีม 🌙/☀️ )
    :สลับค่า Theme (Dark <-> Light);
    :อัปเดต CSS Classes;
    
case ( ปุ่มเสียง 🔊/🔇 )
    :สลับค่า Audio (Mute <-> Unmute);
    :อัปเดตไอคอนลำโพง;

case ( ปุ่ม Display 👁️ * )
    :แสดง Dropdown Menu;
    :เลือก Toggle Option;
    :สลับค่า Checkbox;

case ( ปุ่ม Rules ⚙️ * )
    :แสดง Rules Menu;
    
    switch (Action?)
    case ( Toggle )
        :เปิด/ปิด กฎที่เลือก;
    case ( Adjust )
        :ปรับค่า Threshold;
    case ( Reset )
        :คืนค่าเริ่มต้น;
    endswitch

endswitch

:บันทึกค่าการตั้งค่าลง LocalStorage;

' Legend
note right
    __Legend__
    * = Development Only
    
    **Display Options (7):**
    Path, Instructor, Ghost,
    Skeleton, Trail, Silhouette, Debug
    
    **Rules (8):**
    Path, Rotation, Elbow, Waist,
    Stability, Smooth, Continuity, Weight
end note

stop
@enduml

@startuml TaijiFlow_Activity_Diagram_UC05

skinparam defaultFontName "sarabun"
skinparam activity {
    BackgroundColor White
    BorderColor Black
    ArrowColor Black
}

start
:ผู้ใช้งานเลือกกดปุ่มตั้งค่าบนหน้าจอ;

note right #LightGray
    **Development Mode Only**
    Display 👁️ และ Rules ⚙️
    ซ่อนใน Production
end note

switch (เลือกปรับค่าใด?)

case ( ปุ่มภาษา 🇹🇭/🇬🇧 )
    :สลับค่าภาษา (Thai <-> English);
    :อัปเดตข้อความ UI และเสียง;
    
case ( ปุ่มธีม 🌙/☀️ )
    :สลับค่า Theme (Dark <-> Light);
    :อัปเดต CSS Classes;
    
case ( ปุ่มเสียง 🔊/🔇 )
    :สลับค่า Audio (Mute <-> Unmute);
    :อัปเดตไอคอนลำโพง;

case ( ปุ่ม Display 👁️ * )
    :แสดง Dropdown Menu;
    :เลือก Toggle Option;
    :สลับค่า Checkbox;

case ( ปุ่ม Rules ⚙️ * )
    :แสดง Rules Menu;
    
    switch (Action?)
    case ( Toggle )
        :เปิด/ปิด กฎที่เลือก;
    case ( Adjust )
        :ปรับค่า Threshold;
    case ( Reset )
        :คืนค่าเริ่มต้น;
    endswitch

endswitch

:บันทึกค่าการตั้งค่าลง LocalStorage;

note right
    __Legend__
    * = Development Only
    
    **Display Options (7):**
    Path, Instructor, Ghost,
    Skeleton, Trail, Silhouette, Debug
    
    **Rules (8):**
    Path, Rotation, Elbow, Waist,
    Stability, Smooth, Continuity, Weight
end note

stop
@enduml

PlantUML version 1.2021.00(Sun Jan 10 17:25:05 ICT 2021)
(MIT source distribution)
Java Runtime: OpenJDK Runtime Environment
JVM: OpenJDK 64-Bit Server VM
Default Encoding: UTF-8
Language: en
Country: US
--></g></svg>