<?xml version="1.0" encoding="UTF-8" standalone="no"?><svg xmlns="http://www.w3.org/2000/svg" xmlns:xlink="http://www.w3.org/1999/xlink" contentScriptType="application/ecmascript" contentStyleType="text/css" height="1122px" preserveAspectRatio="none" style="width:609px;height:1122px;" version="1.1" viewBox="0 0 609 1122" width="609px" zoomAndPan="magnify"><defs><filter height="300%" id="f725oc999kxz3" width="300%" x="-1" y="-1"><feGaussianBlur result="blurOut" stdDeviation="2.0"/><feColorMatrix in="blurOut" result="blurOut2" type="matrix" values="0 0 0 0 0 0 0 0 0 0 0 0 0 0 0 0 0 0 .4 0"/><feOffset dx="4.0" dy="4.0" in="blurOut2" result="blurOut3"/><feBlend in="SourceGraphic" in2="blurOut3" mode="normal"/></filter></defs><g><ellipse cx="231.5" cy="20" fill="#000000" filter="url(#f725oc999kxz3)" rx="10" ry="10" style="stroke:none;stroke-width:1.0;"/><rect fill="#FFFFFF" filter="url(#f725oc999kxz3)" height="35.6" rx="12.5" ry="12.5" style="stroke:#000000;stroke-width:1.5;" width="182" x="140.5" y="50"/><text fill="#000000" font-family="sarabun" font-size="12" lengthAdjust="spacing" textLength="162" x="150.5" y="72.816">ผู้ใช้งานกดปุ่ม "ปรับเทียบสัดส่วน"</text><rect fill="#FFFFFF" filter="url(#f725oc999kxz3)" height="35.6" rx="12.5" ry="12.5" style="stroke:#000000;stroke-width:1.5;" width="241" x="111" y="105.6"/><text fill="#000000" font-family="sarabun" font-size="12" lengthAdjust="spacing" textLength="221" x="121" y="128.416">แสดงคำแนะนำ "ยืนตัวตรง กางแขน (T-Pose)"</text><rect fill="#FFFFFF" filter="url(#f725oc999kxz3)" height="514.35" style="stroke:#000000;stroke-width:2.0;" width="581" x="11" y="151.2"/><path d="M122,151.2 L122,162.4 L112,172.4 L11,172.4 " fill="none" style="stroke:#000000;stroke-width:2.0;"/><text fill="#000000" font-family="sarabun" font-size="14" lengthAdjust="spacing" textLength="101" x="14" y="167.152">Calibration Loop</text><rect fill="#FFFFFF" filter="url(#f725oc999kxz3)" height="35.6" rx="12.5" ry="12.5" style="stroke:#000000;stroke-width:1.5;" width="102" x="180.5" y="233.4"/><text fill="#000000" font-family="sarabun" font-size="12" lengthAdjust="spacing" textLength="82" x="190.5" y="256.216">รับภาพจากกล้อง</text><polygon fill="#FEFECE" filter="url(#f725oc999kxz3)" points="202.5,289,260.5,289,272.5,301,260.5,313,202.5,313,190.5,301,202.5,289" style="stroke:#A80036;stroke-width:1.5;"/><text fill="#000000" font-family="sarabun" font-size="11" lengthAdjust="spacing" textLength="58" x="202.5" y="305.598">ระดับที่เลือก?</text><text fill="#000000" font-family="sarabun" font-size="11" lengthAdjust="spacing" textLength="29" x="161.5" y="298.448">L1/L2</text><text fill="#000000" font-family="sarabun" font-size="11" lengthAdjust="spacing" textLength="12" x="272.5" y="298.448">L3</text><rect fill="#FFFFFF" filter="url(#f725oc999kxz3)" height="35.6" rx="12.5" ry="12.5" style="stroke:#000000;stroke-width:1.5;" width="149" x="37" y="372.15"/><text fill="#000000" font-family="sarabun" font-size="12" lengthAdjust="spacing" textLength="129" x="47" y="394.966">แจ้งเตือน "ถอยหลังอีกนิด!"</text><polygon fill="#FEFECE" filter="url(#f725oc999kxz3)" points="35,323,188,323,200,335,188,347,35,347,23,335,35,323" style="stroke:#A80036;stroke-width:1.5;"/><text fill="#000000" font-family="sarabun" font-size="11" lengthAdjust="spacing" textLength="30" x="115.5" y="358.748">ไม่ครบ</text><text fill="#000000" font-family="sarabun" font-size="11" lengthAdjust="spacing" textLength="153" x="35" y="339.598">เห็นร่างกายครบถ้วน? (ไหล่/สะโพก)</text><text fill="#000000" font-family="sarabun" font-size="11" lengthAdjust="spacing" textLength="19" x="200" y="332.448">ครบ</text><polygon fill="#FEFECE" filter="url(#f725oc999kxz3)" points="111.5,427.75,123.5,439.75,111.5,451.75,99.5,439.75,111.5,427.75" style="stroke:#A80036;stroke-width:1.5;"/><rect fill="#FFFFFF" filter="url(#f725oc999kxz3)" height="35.6" rx="12.5" ry="12.5" style="stroke:#000000;stroke-width:1.5;" width="219" x="242" y="372.15"/><text fill="#000000" font-family="sarabun" font-size="12" lengthAdjust="spacing" textLength="199" x="252" y="394.966">แจ้งเตือน "ถอยหลังอีกนิด! (ให้เห็นทั้งตัว)"</text><polygon fill="#FEFECE" filter="url(#f725oc999kxz3)" points="265,323,438,323,450,335,438,347,265,347,253,335,265,323" style="stroke:#A80036;stroke-width:1.5;"/><text fill="#000000" font-family="sarabun" font-size="11" lengthAdjust="spacing" textLength="30" x="355.5" y="358.748">ไม่ครบ</text><text fill="#000000" font-family="sarabun" font-size="11" lengthAdjust="spacing" textLength="173" x="265" y="339.598">เห็นร่างกายครบถ้วน? (ไหล่/สะโพก/เท้า)</text><text fill="#000000" font-family="sarabun" font-size="11" lengthAdjust="spacing" textLength="19" x="450" y="332.448">ครบ</text><polygon fill="#FEFECE" filter="url(#f725oc999kxz3)" points="351.5,427.75,363.5,439.75,351.5,451.75,339.5,439.75,351.5,427.75" style="stroke:#A80036;stroke-width:1.5;"/><polygon fill="#FEFECE" filter="url(#f725oc999kxz3)" points="231.5,457.75,243.5,469.75,231.5,481.75,219.5,469.75,231.5,457.75" style="stroke:#A80036;stroke-width:1.5;"/><polygon fill="#FEFECE" filter="url(#f725oc999kxz3)" points="193.5,501.75,269.5,501.75,281.5,513.75,269.5,525.75,193.5,525.75,181.5,513.75,193.5,501.75" style="stroke:#A80036;stroke-width:1.5;"/><text fill="#000000" font-family="sarabun" font-size="11" lengthAdjust="spacing" textLength="76" x="193.5" y="518.348">อยู่ในท่า T-Pose?</text><text fill="#000000" font-family="sarabun" font-size="11" lengthAdjust="spacing" textLength="22" x="159.5" y="511.198">ไม่ใช่</text><text fill="#000000" font-family="sarabun" font-size="11" lengthAdjust="spacing" textLength="30" x="281.5" y="511.198">ถูกต้อง</text><rect fill="#FFFFFF" filter="url(#f725oc999kxz3)" height="35.6" rx="12.5" ry="12.5" style="stroke:#000000;stroke-width:1.5;" width="192" x="32" y="535.75"/><text fill="#000000" font-family="sarabun" font-size="12" lengthAdjust="spacing" textLength="172" x="42" y="558.566">แจ้งเตือน "กรุณากางแขนระดับไหล่"</text><path d="M446,535.75 L446,553.65 L426,557.65 L446,561.65 L446,579.55 A0,0 0 0 0 446,579.55 L562,579.55 A0,0 0 0 0 562,579.55 L562,545.75 L552,535.75 L446,535.75 A0,0 0 0 0 446,535.75 " fill="#FBFB77" filter="url(#f725oc999kxz3)" style="stroke:#A80036;stroke-width:1.0;"/><path d="M552,535.75 L552,545.75 L562,545.75 L552,535.75 " fill="#FBFB77" style="stroke:#A80036;stroke-width:1.0;"/><text fill="#000000" font-family="sarabun" font-size="13" lengthAdjust="spacing" textLength="78" x="452" y="554.634">ต้องนิ่งต่อเนื่อง</text><text fill="#000000" font-family="sarabun" font-size="13" lengthAdjust="spacing" textLength="95" x="452" y="571.534">90 เฟรม (3 วินาที)</text><rect fill="#FFFFFF" filter="url(#f725oc999kxz3)" height="35.6" rx="12.5" ry="12.5" style="stroke:#000000;stroke-width:1.5;" width="182" x="244" y="539.85"/><text fill="#000000" font-family="sarabun" font-size="12" lengthAdjust="spacing" textLength="162" x="254" y="562.666">เริ่มนับความนิ่ง (Stability Check)</text><polygon fill="#FEFECE" filter="url(#f725oc999kxz3)" points="231.5,585.55,243.5,597.55,231.5,609.55,219.5,597.55,231.5,585.55" style="stroke:#A80036;stroke-width:1.5;"/><polygon fill="#FEFECE" filter="url(#f725oc999kxz3)" points="231.5,189.4,243.5,201.4,231.5,213.4,219.5,201.4,231.5,189.4" style="stroke:#A80036;stroke-width:1.5;"/><polygon fill="#FEFECE" filter="url(#f725oc999kxz3)" points="195,629.55,268,629.55,280,641.55,268,653.55,195,653.55,183,641.55,195,629.55" style="stroke:#A80036;stroke-width:1.5;"/><text fill="#000000" font-family="sarabun" font-size="11" lengthAdjust="spacing" textLength="73" x="195" y="646.148">นิ่งครบ 3 วินาที?</text><text fill="#000000" font-family="sarabun" font-size="11" lengthAdjust="spacing" textLength="41" x="280" y="638.998">ยังไม่ครบ</text><rect fill="#FFFFFF" filter="url(#f725oc999kxz3)" height="252.6" style="stroke:#000000;stroke-width:2.0;" width="183" x="140" y="699.302"/><path d="M262,699.302 L262,710.502 L252,720.502 L140,720.502 " fill="none" style="stroke:#000000;stroke-width:2.0;"/><text fill="#000000" font-family="sarabun" font-size="14" lengthAdjust="spacing" textLength="112" x="143" y="715.254">Calculation &amp; Save</text><rect fill="#FFFFFF" filter="url(#f725oc999kxz3)" height="35.6" rx="12.5" ry="12.5" style="stroke:#000000;stroke-width:1.5;" width="128" x="167.5" y="737.502"/><text fill="#000000" font-family="sarabun" font-size="12" lengthAdjust="spacing" textLength="108" x="177.5" y="760.318">คำนวณ Torso Height</text><rect fill="#FFFFFF" filter="url(#f725oc999kxz3)" height="35.6" rx="12.5" ry="12.5" style="stroke:#000000;stroke-width:1.5;" width="142" x="160.5" y="793.102"/><text fill="#000000" font-family="sarabun" font-size="12" lengthAdjust="spacing" textLength="122" x="170.5" y="815.918">คำนวณ Shoulder Width</text><rect fill="#FFFFFF" filter="url(#f725oc999kxz3)" height="35.6" rx="12.5" ry="12.5" style="stroke:#000000;stroke-width:1.5;" width="122" x="170.5" y="848.702"/><text fill="#000000" font-family="sarabun" font-size="12" lengthAdjust="spacing" textLength="102" x="180.5" y="871.518">คำนวณ Arm Length</text><rect fill="#FFFFFF" filter="url(#f725oc999kxz3)" height="35.6" rx="12.5" ry="12.5" style="stroke:#000000;stroke-width:1.5;" width="163" x="150" y="904.302"/><text fill="#000000" font-family="sarabun" font-size="12" lengthAdjust="spacing" textLength="143" x="160" y="927.118">บันทึกข้อมูลลง LocalStorage</text><rect fill="#FFFFFF" filter="url(#f725oc999kxz3)" height="35.6" rx="12.5" ry="12.5" style="stroke:#000000;stroke-width:1.5;" width="176" x="143.5" y="971.902"/><text fill="#000000" font-family="sarabun" font-size="12" lengthAdjust="spacing" textLength="156" x="153.5" y="994.718">แสดงข้อความ "ปรับเทียบสำเร็จ"</text><rect fill="#FFFFFF" filter="url(#f725oc999kxz3)" height="35.6" rx="12.5" ry="12.5" style="stroke:#000000;stroke-width:1.5;" width="100" x="181.5" y="1027.502"/><text fill="#000000" font-family="sarabun" font-size="12" lengthAdjust="spacing" textLength="80" x="191.5" y="1050.318">ส่งเสียงแจ้งเตือน</text><ellipse cx="231.5" cy="1094.102" fill="#FFFFFF" filter="url(#f725oc999kxz3)" rx="11" ry="11" style="stroke:#000000;stroke-width:1.0;"/><ellipse cx="231.5" cy="1094.102" fill="#000000" rx="6" ry="6" style="stroke:#7F7F7F;stroke-width:1.0;"/><line style="stroke:#000000;stroke-width:1.5;" x1="231.5" x2="231.5" y1="30" y2="50"/><polygon fill="#000000" points="227.5,40,231.5,50,235.5,40,231.5,44" style="stroke:#000000;stroke-width:1.0;"/><line style="stroke:#000000;stroke-width:1.5;" x1="231.5" x2="231.5" y1="85.6" y2="105.6"/><polygon fill="#000000" points="227.5,95.6,231.5,105.6,235.5,95.6,231.5,99.6" style="stroke:#000000;stroke-width:1.0;"/><line style="stroke:#000000;stroke-width:1.5;" x1="111.5" x2="111.5" y1="347" y2="372.15"/><polygon fill="#000000" points="107.5,362.15,111.5,372.15,115.5,362.15,111.5,366.15" style="stroke:#000000;stroke-width:1.0;"/><line style="stroke:#000000;stroke-width:1.5;" x1="200" x2="212" y1="335" y2="335"/><polygon fill="#000000" points="208,379.95,212,389.95,216,379.95,212,383.95" style="stroke:#000000;stroke-width:1.5;"/><line style="stroke:#000000;stroke-width:1.5;" x1="212" x2="212" y1="335" y2="439.75"/><line style="stroke:#000000;stroke-width:1.5;" x1="212" x2="123.5" y1="439.75" y2="439.75"/><polygon fill="#000000" points="133.5,435.75,123.5,439.75,133.5,443.75,129.5,439.75" style="stroke:#000000;stroke-width:1.0;"/><line style="stroke:#000000;stroke-width:1.5;" x1="111.5" x2="111.5" y1="407.75" y2="427.75"/><polygon fill="#000000" points="107.5,417.75,111.5,427.75,115.5,417.75,111.5,421.75" style="stroke:#000000;stroke-width:1.0;"/><line style="stroke:#000000;stroke-width:1.5;" x1="351.5" x2="351.5" y1="347" y2="372.15"/><polygon fill="#000000" points="347.5,362.15,351.5,372.15,355.5,362.15,351.5,366.15" style="stroke:#000000;stroke-width:1.0;"/><line style="stroke:#000000;stroke-width:1.5;" x1="450" x2="471" y1="335" y2="335"/><polygon fill="#000000" points="467,379.95,471,389.95,475,379.95,471,383.95" style="stroke:#000000;stroke-width:1.5;"/><line style="stroke:#000000;stroke-width:1.5;" x1="471" x2="471" y1="335" y2="439.75"/><line style="stroke:#000000;stroke-width:1.5;" x1="471" x2="363.5" y1="439.75" y2="439.75"/><polygon fill="#000000" points="373.5,435.75,363.5,439.75,373.5,443.75,369.5,439.75" style="stroke:#000000;stroke-width:1.0;"/><line style="stroke:#000000;stroke-width:1.5;" x1="351.5" x2="351.5" y1="407.75" y2="427.75"/><polygon fill="#000000" points="347.5,417.75,351.5,427.75,355.5,417.75,351.5,421.75" style="stroke:#000000;stroke-width:1.0;"/><line style="stroke:#000000;stroke-width:1.5;" x1="190.5" x2="111.5" y1="301" y2="301"/><line style="stroke:#000000;stroke-width:1.5;" x1="111.5" x2="111.5" y1="301" y2="323"/><polygon fill="#000000" points="107.5,313,111.5,323,115.5,313,111.5,317" style="stroke:#000000;stroke-width:1.0;"/><line style="stroke:#000000;stroke-width:1.5;" x1="272.5" x2="351.5" y1="301" y2="301"/><line style="stroke:#000000;stroke-width:1.5;" x1="351.5" x2="351.5" y1="301" y2="323"/><polygon fill="#000000" points="347.5,313,351.5,323,355.5,313,351.5,317" style="stroke:#000000;stroke-width:1.0;"/><line style="stroke:#000000;stroke-width:1.5;" x1="111.5" x2="111.5" y1="451.75" y2="469.75"/><line style="stroke:#000000;stroke-width:1.5;" x1="111.5" x2="219.5" y1="469.75" y2="469.75"/><polygon fill="#000000" points="209.5,465.75,219.5,469.75,209.5,473.75,213.5,469.75" style="stroke:#000000;stroke-width:1.0;"/><line style="stroke:#000000;stroke-width:1.5;" x1="351.5" x2="351.5" y1="451.75" y2="469.75"/><line style="stroke:#000000;stroke-width:1.5;" x1="351.5" x2="243.5" y1="469.75" y2="469.75"/><polygon fill="#000000" points="253.5,465.75,243.5,469.75,253.5,473.75,249.5,469.75" style="stroke:#000000;stroke-width:1.0;"/><line style="stroke:#000000;stroke-width:1.5;" x1="231.5" x2="231.5" y1="269" y2="289"/><polygon fill="#000000" points="227.5,279,231.5,289,235.5,279,231.5,283" style="stroke:#000000;stroke-width:1.0;"/><line style="stroke:#000000;stroke-width:1.5;" x1="181.5" x2="128" y1="513.75" y2="513.75"/><line style="stroke:#000000;stroke-width:1.5;" x1="128" x2="128" y1="513.75" y2="535.75"/><polygon fill="#000000" points="124,525.75,128,535.75,132,525.75,128,529.75" style="stroke:#000000;stroke-width:1.0;"/><line style="stroke:#000000;stroke-width:1.5;" x1="281.5" x2="335" y1="513.75" y2="513.75"/><line style="stroke:#000000;stroke-width:1.5;" x1="335" x2="335" y1="513.75" y2="539.85"/><polygon fill="#000000" points="331,529.85,335,539.85,339,529.85,335,533.85" style="stroke:#000000;stroke-width:1.0;"/><line style="stroke:#000000;stroke-width:1.5;" x1="128" x2="128" y1="571.35" y2="597.55"/><line style="stroke:#000000;stroke-width:1.5;" x1="128" x2="219.5" y1="597.55" y2="597.55"/><polygon fill="#000000" points="209.5,593.55,219.5,597.55,209.5,601.55,213.5,597.55" style="stroke:#000000;stroke-width:1.0;"/><line style="stroke:#000000;stroke-width:1.5;" x1="335" x2="335" y1="575.45" y2="597.55"/><line style="stroke:#000000;stroke-width:1.5;" x1="335" x2="243.5" y1="597.55" y2="597.55"/><polygon fill="#000000" points="253.5,593.55,243.5,597.55,253.5,601.55,249.5,597.55" style="stroke:#000000;stroke-width:1.0;"/><line style="stroke:#000000;stroke-width:1.5;" x1="231.5" x2="231.5" y1="481.75" y2="501.75"/><polygon fill="#000000" points="227.5,491.75,231.5,501.75,235.5,491.75,231.5,495.75" style="stroke:#000000;stroke-width:1.0;"/><line style="stroke:#000000;stroke-width:1.5;" x1="231.5" x2="231.5" y1="213.4" y2="233.4"/><polygon fill="#000000" points="227.5,223.4,231.5,233.4,235.5,223.4,231.5,227.4" style="stroke:#000000;stroke-width:1.0;"/><line style="stroke:#000000;stroke-width:1.5;" x1="280" x2="576" y1="641.55" y2="641.55"/><polygon fill="#000000" points="572,428.9,576,418.9,580,428.9,576,424.9" style="stroke:#000000;stroke-width:1.5;"/><line style="stroke:#000000;stroke-width:1.5;" x1="576" x2="576" y1="201.4" y2="641.55"/><line style="stroke:#000000;stroke-width:1.5;" x1="576" x2="243.5" y1="201.4" y2="201.4"/><polygon fill="#000000" points="253.5,197.4,243.5,201.4,253.5,205.4,249.5,201.4" style="stroke:#000000;stroke-width:1.0;"/><line style="stroke:#000000;stroke-width:1.5;" x1="231.5" x2="231.5" y1="609.55" y2="629.55"/><polygon fill="#000000" points="227.5,619.55,231.5,629.55,235.5,619.55,231.5,623.55" style="stroke:#000000;stroke-width:1.0;"/><line style="stroke:#000000;stroke-width:1.5;" x1="231.5" x2="231.5" y1="141.2" y2="189.4"/><polygon fill="#000000" points="227.5,179.4,231.5,189.4,235.5,179.4,231.5,183.4" style="stroke:#000000;stroke-width:1.0;"/><line style="stroke:#000000;stroke-width:1.5;" x1="231.5" x2="231.5" y1="773.102" y2="793.102"/><polygon fill="#000000" points="227.5,783.102,231.5,793.102,235.5,783.102,231.5,787.102" style="stroke:#000000;stroke-width:1.0;"/><line style="stroke:#000000;stroke-width:1.5;" x1="231.5" x2="231.5" y1="828.702" y2="848.702"/><polygon fill="#000000" points="227.5,838.702,231.5,848.702,235.5,838.702,231.5,842.702" style="stroke:#000000;stroke-width:1.0;"/><line style="stroke:#000000;stroke-width:1.5;" x1="231.5" x2="231.5" y1="884.302" y2="904.302"/><polygon fill="#000000" points="227.5,894.302,231.5,904.302,235.5,894.302,231.5,898.302" style="stroke:#000000;stroke-width:1.0;"/><line style="stroke:#000000;stroke-width:1.5;" x1="231.5" x2="231.5" y1="653.55" y2="737.502"/><polygon fill="#000000" points="227.5,727.502,231.5,737.502,235.5,727.502,231.5,731.502" style="stroke:#000000;stroke-width:1.0;"/><text fill="#000000" font-family="sarabun" font-size="11" lengthAdjust="spacing" textLength="37" x="235.5" y="688.35">ครบแล้ว</text><line style="stroke:#000000;stroke-width:1.5;" x1="231.5" x2="231.5" y1="939.902" y2="971.902"/><polygon fill="#000000" points="227.5,961.902,231.5,971.902,235.5,961.902,231.5,965.902" style="stroke:#000000;stroke-width:1.0;"/><line style="stroke:#000000;stroke-width:1.5;" x1="231.5" x2="231.5" y1="1007.502" y2="1027.502"/><polygon fill="#000000" points="227.5,1017.502,231.5,1027.502,235.5,1017.502,231.5,1021.502" style="stroke:#000000;stroke-width:1.0;"/><line style="stroke:#000000;stroke-width:1.5;" x1="231.5" x2="231.5" y1="1063.102" y2="1083.102"/><polygon fill="#000000" points="227.5,1073.102,231.5,1083.102,235.5,1073.102,231.5,1077.102" style="stroke:#000000;stroke-width:1.0;"/><!--MD5=[c792f1bf8b8da682be091daf7f0e43c6]
@startuml TaijiFlow_Activity_Diagram_UC01
skinparam defaultFontName "sarabun"
skinparam activity {
    BackgroundColor White
    BorderColor Black
    ArrowColor Black
}

start

:ผู้ใช้งานกดปุ่ม "ปรับเทียบสัดส่วน";
:แสดงคำแนะนำ "ยืนตัวตรง กางแขน (T-Pose)";

partition "Calibration Loop" {
    repeat
        :รับภาพจากกล้อง;
        
        if (ระดับที่เลือก?) then (L1/L2)
            if (เห็นร่างกายครบถ้วน? (ไหล่/สะโพก)) then (ไม่ครบ)
                :แจ้งเตือน "ถอยหลังอีกนิด!";
            else (ครบ)
            endif
        else (L3)
            if (เห็นร่างกายครบถ้วน? (ไหล่/สะโพก/เท้า)) then (ไม่ครบ)
                :แจ้งเตือน "ถอยหลังอีกนิด! (ให้เห็นทั้งตัว)";
            else (ครบ)
            endif
        endif
        
        if (อยู่ในท่า T-Pose?) then (ไม่ใช่)
            :แจ้งเตือน "กรุณากางแขนระดับไหล่";
        else (ถูกต้อง)
            :เริ่มนับความนิ่ง (Stability Check);
            note right
                ต้องนิ่งต่อเนื่อง 
                90 เฟรม (3 วินาที)
            end note
        endif
        
    repeat while (นิ่งครบ 3 วินาที?) is (ยังไม่ครบ)
    -> ครบแล้ว;
}

partition "Calculation & Save" {
    :คำนวณ Torso Height;
    :คำนวณ Shoulder Width;
    :คำนวณ Arm Length;
    :บันทึกข้อมูลลง LocalStorage;
}

:แสดงข้อความ "ปรับเทียบสำเร็จ";
:ส่งเสียงแจ้งเตือน;

stop
@enduml

PlantUML version 1.2021.00(Sun Jan 10 17:25:05 ICT 2021)
(MIT source distribution)
Java Runtime: OpenJDK Runtime Environment
JVM: OpenJDK 64-Bit Server VM
Default Encoding: UTF-8
Language: en
Country: US
--></g></svg>