<?xml version="1.0" encoding="UTF-8" standalone="no"?><svg xmlns="http://www.w3.org/2000/svg" xmlns:xlink="http://www.w3.org/1999/xlink" contentScriptType="application/ecmascript" contentStyleType="text/css" height="924px" preserveAspectRatio="none" style="width:2802px;height:924px;background:#00000000;" version="1.1" viewBox="0 0 2802 924" width="2802px" zoomAndPan="magnify"><defs><filter height="300%" id="f1rv4jeqor6tj4" width="300%" x="-1" y="-1"><feGaussianBlur result="blurOut" stdDeviation="2.0"/><feColorMatrix in="blurOut" result="blurOut2" type="matrix" values="0 0 0 0 0 0 0 0 0 0 0 0 0 0 0 0 0 0 .4 0"/><feOffset dx="4.0" dy="4.0" in="blurOut2" result="blurOut3"/><feBlend in="SourceGraphic" in2="blurOut3" mode="normal"/></filter></defs><g><!--MD5=[5d524885402328335b4a35312f24b204]
cluster 🖥️ PRESENTATION LAYER--><rect fill="#E3F2FD" filter="url(#f1rv4jeqor6tj4)" height="344.4" style="stroke:#666666;stroke-width:1.5;" width="1795" x="7" y="7"/><text fill="#000000" font-family="Sarabun" font-size="14" font-style="italic" lengthAdjust="spacing" textLength="92" x="858.5" y="23.952">«presentation»</text><text fill="#000000" font-family="Sarabun" font-size="14" font-weight="bold" lengthAdjust="spacing" textLength="167" x="821" y="42.152">&#128421;️ PRESENTATION LAYER</text><!--MD5=[4146f06eddd723180e542942bab06c6c]
cluster ⚙️ BUSINESS LOGIC LAYER--><rect fill="#FFF3E0" filter="url(#f1rv4jeqor6tj4)" height="346.4" style="stroke:#666666;stroke-width:1.5;" width="724" x="1826" y="203.2"/><text fill="#000000" font-family="Sarabun" font-size="14" font-style="italic" lengthAdjust="spacing" textLength="66" x="2155" y="220.152">«business»</text><text fill="#000000" font-family="Sarabun" font-size="14" font-weight="bold" lengthAdjust="spacing" textLength="174" x="2101" y="238.352">⚙️ BUSINESS LOGIC LAYER</text><!--MD5=[35a8a102f8bf62aa0b787c95d0596ead]
cluster 💾 DATA LAYER--><rect fill="#E8F5E9" filter="url(#f1rv4jeqor6tj4)" height="346.4" style="stroke:#666666;stroke-width:1.5;" width="891" x="802" y="401.4"/><text fill="#000000" font-family="Sarabun" font-size="14" font-style="italic" lengthAdjust="spacing" textLength="43" x="1226" y="418.352">«data»</text><text fill="#000000" font-family="Sarabun" font-size="14" font-weight="bold" lengthAdjust="spacing" textLength="102" x="1196.5" y="436.552">&#128190; DATA LAYER</text><!--MD5=[965b9c49da50dcd8501a0eef92ddec32]
cluster 🌐 EXTERNAL APIs--><rect fill="#FFEBEE" filter="url(#f1rv4jeqor6tj4)" height="148.2" style="stroke:#666666;stroke-width:1.5;" width="585" x="2047" y="599.6"/><text fill="#000000" font-family="Sarabun" font-size="14" font-style="italic" lengthAdjust="spacing" textLength="64" x="2307.5" y="616.552">«external»</text><text fill="#000000" font-family="Sarabun" font-size="14" font-weight="bold" lengthAdjust="spacing" textLength="118" x="2280.5" y="634.752">&#127760; EXTERNAL APIs</text><!--MD5=[2e693b820b9a8c0f0d64ba1301bdd186]
entity IndexHtml--><rect fill="#FEFECE" filter="url(#f1rv4jeqor6tj4)" height="38.2" style="stroke:#000000;stroke-width:1.5;" width="85" x="23.5" y="101"/><text fill="#000000" font-family="Sarabun" font-size="14" lengthAdjust="spacing" textLength="65" x="33.5" y="125.952">index.html</text><!--MD5=[4b768be5da11e8ceab754911fdd9c219]
entity UIManager--><rect fill="#FEFECE" filter="url(#f1rv4jeqor6tj4)" height="38.2" style="stroke:#000000;stroke-width:1.5;" width="103" x="307.5" y="101"/><text fill="#000000" font-family="Sarabun" font-size="14" lengthAdjust="spacing" textLength="83" x="317.5" y="125.952">ui_manager.js</text><!--MD5=[b68ba1295c5270b62f61db130833e3a0]
entity DrawingManager--><rect fill="#FEFECE" filter="url(#f1rv4jeqor6tj4)" height="38.2" style="stroke:#000000;stroke-width:1.5;" width="140" x="668" y="297.2"/><text fill="#000000" font-family="Sarabun" font-size="14" lengthAdjust="spacing" textLength="120" x="678" y="322.152">drawing_manager.js</text><!--MD5=[4b52e12aa25e55c110106330f07904ec]
entity TutorialManager--><rect fill="#FEFECE" filter="url(#f1rv4jeqor6tj4)" height="38.2" style="stroke:#000000;stroke-width:1.5;" width="137" x="630.5" y="101"/><text fill="#000000" font-family="Sarabun" font-size="14" lengthAdjust="spacing" textLength="117" x="640.5" y="125.952">tutorial_manager.js</text><!--MD5=[13b78e0465d0724dd360060cf842e6a1]
entity ScorePopup--><rect fill="#FEFECE" filter="url(#f1rv4jeqor6tj4)" height="38.2" style="stroke:#000000;stroke-width:1.5;" width="170" x="1334" y="101"/><text fill="#000000" font-family="Sarabun" font-size="14" lengthAdjust="spacing" textLength="150" x="1344" y="125.952">score_popup_manager.js</text><!--MD5=[6c1038c56275e06a0f9aecf03cf54920]
entity Chatbot--><rect fill="#FEFECE" filter="url(#f1rv4jeqor6tj4)" height="38.2" style="stroke:#000000;stroke-width:1.5;" width="81" x="1704.5" y="101"/><text fill="#000000" font-family="Sarabun" font-size="14" lengthAdjust="spacing" textLength="61" x="1714.5" y="125.952">chatbot.js</text><!--MD5=[a7eccb9ca3f79f3e9774f03e61b08981]
entity FeedbackManager--><rect fill="#FEFECE" filter="url(#f1rv4jeqor6tj4)" height="38.2" style="stroke:#000000;stroke-width:1.5;" width="148" x="803" y="101"/><text fill="#000000" font-family="Sarabun" font-size="14" lengthAdjust="spacing" textLength="128" x="813" y="125.952">feedback_manager.js</text><!--MD5=[30b7b1562c85ecbe9a0361db8e7a0d98]
entity Lighting--><rect fill="#FEFECE" filter="url(#f1rv4jeqor6tj4)" height="38.2" style="stroke:#000000;stroke-width:1.5;" width="139" x="986.5" y="101"/><text fill="#000000" font-family="Sarabun" font-size="14" lengthAdjust="spacing" textLength="119" x="996.5" y="125.952">lighting_manager.js</text><!--MD5=[3d57eac3cac8e23720822365a9577388]
entity Debug--><rect fill="#FEFECE" filter="url(#f1rv4jeqor6tj4)" height="38.2" style="stroke:#000000;stroke-width:1.5;" width="131" x="1538.5" y="101"/><text fill="#000000" font-family="Sarabun" font-size="14" lengthAdjust="spacing" textLength="111" x="1548.5" y="125.952">debug_manager.js</text><!--MD5=[e0bcaa670aa5036c3461a3803b9f3f9b]
entity Wisdom--><rect fill="#FEFECE" filter="url(#f1rv4jeqor6tj4)" height="38.2" style="stroke:#000000;stroke-width:1.5;" width="138" x="1161" y="101"/><text fill="#000000" font-family="Sarabun" font-size="14" lengthAdjust="spacing" textLength="118" x="1171" y="125.952">wisdom_manager.js</text><!--MD5=[0d5ea8baa95befbce1a737de2e377b90]
entity Shortcuts--><rect fill="#FEFECE" filter="url(#f1rv4jeqor6tj4)" height="38.2" style="stroke:#000000;stroke-width:1.5;" width="150" x="446" y="101"/><text fill="#000000" font-family="Sarabun" font-size="14" lengthAdjust="spacing" textLength="130" x="456" y="125.952">shortcuts_manager.js</text><!--MD5=[f4c6b9373aad896f395bb97ffc7eb56b]
entity WebGL--><rect fill="#FEFECE" filter="url(#f1rv4jeqor6tj4)" height="38.2" style="stroke:#000000;stroke-width:1.5;" width="128" x="144" y="101"/><text fill="#000000" font-family="Sarabun" font-size="14" lengthAdjust="spacing" textLength="108" x="154" y="125.952">webgl_manager.js</text><!--MD5=[d2c3bb4e3bf44be22fe413c310a84ccc]
entity Script--><rect fill="#FEFECE" filter="url(#f1rv4jeqor6tj4)" height="38.2" style="stroke:#000000;stroke-width:1.5;" width="67" x="2014.5" y="297.2"/><text fill="#000000" font-family="Sarabun" font-size="14" lengthAdjust="spacing" textLength="47" x="2024.5" y="322.152">script.js</text><!--MD5=[ed4857f8eaf740408a3e23246f050753]
entity Heuristics--><rect fill="#FEFECE" filter="url(#f1rv4jeqor6tj4)" height="38.2" style="stroke:#000000;stroke-width:1.5;" width="137" x="1842.5" y="297.2"/><text fill="#000000" font-family="Sarabun" font-size="14" lengthAdjust="spacing" textLength="117" x="1852.5" y="322.152">heuristics_engine.js</text><!--MD5=[ab4d02a5ae885086a6874c8053cbe896]
entity Calibration--><rect fill="#FEFECE" filter="url(#f1rv4jeqor6tj4)" height="38.2" style="stroke:#000000;stroke-width:1.5;" width="157" x="1842.5" y="495.4"/><text fill="#000000" font-family="Sarabun" font-size="14" lengthAdjust="spacing" textLength="137" x="1852.5" y="520.352">calibration_manager.js</text><!--MD5=[0e8aaa35e1d7378bac8692a5c3e9af2f]
entity Scoring--><rect fill="#FEFECE" filter="url(#f1rv4jeqor6tj4)" height="38.2" style="stroke:#000000;stroke-width:1.5;" width="137" x="2116.5" y="297.2"/><text fill="#000000" font-family="Sarabun" font-size="14" lengthAdjust="spacing" textLength="117" x="2126.5" y="322.152">scoring_manager.js</text><!--MD5=[0e98fb2cf4384dd54966e0f70c39677c]
entity Gesture--><rect fill="#FEFECE" filter="url(#f1rv4jeqor6tj4)" height="38.2" style="stroke:#000000;stroke-width:1.5;" width="138" x="2289" y="297.2"/><text fill="#000000" font-family="Sarabun" font-size="14" lengthAdjust="spacing" textLength="118" x="2299" y="322.152">gesture_manager.js</text><!--MD5=[9bf38e2b6fa784581ad2b7a500786e52]
entity Audio--><rect fill="#FEFECE" filter="url(#f1rv4jeqor6tj4)" height="38.2" style="stroke:#000000;stroke-width:1.5;" width="126" x="2207" y="495.4"/><text fill="#000000" font-family="Sarabun" font-size="14" lengthAdjust="spacing" textLength="106" x="2217" y="520.352">audio_manager.js</text><!--MD5=[c8f729b8e352a0860913e8756c4779b6]
entity Camera--><rect fill="#FEFECE" filter="url(#f1rv4jeqor6tj4)" height="38.2" style="stroke:#000000;stroke-width:1.5;" width="137" x="2034.5" y="495.4"/><text fill="#000000" font-family="Sarabun" font-size="14" lengthAdjust="spacing" textLength="117" x="2044.5" y="520.352">camera_manager.js</text><!--MD5=[08975c3eef56000ff826e606cf2a3b15]
entity PerfMon--><rect fill="#FEFECE" filter="url(#f1rv4jeqor6tj4)" height="38.2" style="stroke:#000000;stroke-width:1.5;" width="166" x="2368" y="495.4"/><text fill="#000000" font-family="Sarabun" font-size="14" lengthAdjust="spacing" textLength="146" x="2378" y="520.352">performance_monitor.js</text><!--MD5=[ec12e68d482471526d41adfe4cff0e6f]
entity Session--><rect fill="#FEFECE" filter="url(#f1rv4jeqor6tj4)" height="38.2" style="stroke:#000000;stroke-width:1.5;" width="136" x="1229" y="495.4"/><text fill="#000000" font-family="Sarabun" font-size="14" lengthAdjust="spacing" textLength="116" x="1239" y="520.352">session_manager.js</text><!--MD5=[edcdcc4a1bbe04bafa0ded76de3de705]
entity Exporter--><rect fill="#FEFECE" filter="url(#f1rv4jeqor6tj4)" height="38.2" style="stroke:#000000;stroke-width:1.5;" width="116" x="1400" y="495.4"/><text fill="#000000" font-family="Sarabun" font-size="14" lengthAdjust="spacing" textLength="96" x="1410" y="520.352">data_exporter.js</text><!--MD5=[cf2cf022f979d75c501201842129ac17]
entity LocalStorage--><rect fill="#FEFECE" filter="url(#f1rv4jeqor6tj4)" height="38.2" style="stroke:#000000;stroke-width:1.5;" width="101" x="1056.5" y="693.6"/><text fill="#000000" font-family="Sarabun" font-size="14" lengthAdjust="spacing" textLength="81" x="1066.5" y="718.552">LocalStorage</text><!--MD5=[b6715f68abc5ceb99b5a1d5d1c8cd4fd]
entity PathGen--><rect fill="#FEFECE" filter="url(#f1rv4jeqor6tj4)" height="38.2" style="stroke:#000000;stroke-width:1.5;" width="126" x="1551" y="495.4"/><text fill="#000000" font-family="Sarabun" font-size="14" lengthAdjust="spacing" textLength="106" x="1561" y="520.352">path_generator.js</text><!--MD5=[a15921272b0ba6be1c0e0fbbb47c631e]
entity Translations--><rect fill="#FEFECE" filter="url(#f1rv4jeqor6tj4)" height="38.2" style="stroke:#000000;stroke-width:1.5;" width="105" x="825.5" y="693.6"/><text fill="#000000" font-family="Sarabun" font-size="14" lengthAdjust="spacing" textLength="85" x="835.5" y="718.552">translations.js</text><!--MD5=[785622be957bd52ba17895f5076f61cc]
entity I18n--><rect fill="#FEFECE" filter="url(#f1rv4jeqor6tj4)" height="38.2" style="stroke:#000000;stroke-width:1.5;" width="119" x="818.5" y="495.4"/><text fill="#000000" font-family="Sarabun" font-size="14" lengthAdjust="spacing" textLength="99" x="828.5" y="520.352">i18n_manager.js</text><!--MD5=[0c2df79a1e499e1b07578ac3e3431e29]
entity TimeUtils--><rect fill="#FEFECE" filter="url(#f1rv4jeqor6tj4)" height="38.2" style="stroke:#000000;stroke-width:1.5;" width="91" x="1102.5" y="495.4"/><text fill="#000000" font-family="Sarabun" font-size="14" lengthAdjust="spacing" textLength="71" x="1112.5" y="520.352">time_utils.js</text><!--MD5=[8f771eac260c65a718c3a25459f8bd44]
entity MathUtils--><rect fill="#FEFECE" filter="url(#f1rv4jeqor6tj4)" height="38.2" style="stroke:#000000;stroke-width:1.5;" width="96" x="972" y="495.4"/><text fill="#000000" font-family="Sarabun" font-size="14" lengthAdjust="spacing" textLength="76" x="982" y="520.352">math_utils.js</text><!--MD5=[e86360a2a0b2b59313154159dd50eceb]
entity MPPose--><rect fill="#FEFECE" filter="url(#f1rv4jeqor6tj4)" height="38.2" style="stroke:#000000;stroke-width:1.5;" width="114" x="2063" y="693.6"/><text fill="#000000" font-family="Sarabun" font-size="14" lengthAdjust="spacing" textLength="94" x="2073" y="718.552">MediaPipe Pose</text><!--MD5=[26fe4ee09733cd8b05f5dc198f526905]
entity MPGesture--><rect fill="#FEFECE" filter="url(#f1rv4jeqor6tj4)" height="38.2" style="stroke:#000000;stroke-width:1.5;" width="132" x="2363" y="693.6"/><text fill="#000000" font-family="Sarabun" font-size="14" lengthAdjust="spacing" textLength="112" x="2373" y="718.552">MediaPipe Gesture</text><!--MD5=[8ce744e8092058499958f6e5d5e77a38]
entity WebSpeech--><rect fill="#FEFECE" filter="url(#f1rv4jeqor6tj4)" height="38.2" style="stroke:#000000;stroke-width:1.5;" width="117" x="2211.5" y="693.6"/><text fill="#000000" font-family="Sarabun" font-size="14" lengthAdjust="spacing" textLength="97" x="2221.5" y="718.552">Web Speech API</text><!--MD5=[7a37ba3f7713e16f7df05a1c781e9ab7]
entity Gemini--><rect fill="#FEFECE" filter="url(#f1rv4jeqor6tj4)" height="38.2" style="stroke:#000000;stroke-width:1.5;" width="85" x="2530.5" y="693.6"/><text fill="#000000" font-family="Sarabun" font-size="14" lengthAdjust="spacing" textLength="65" x="2540.5" y="718.552">Gemini API</text><!--MD5=[0360544c992450fffa8e9dbea13224a5]
link UIManager to Script--><path d="M341.83,139.44 C341.83,181.55 341.83,277.8 341.83,277.8 C341.83,277.8 2024.07,277.8 2024.07,277.8 C2024.07,277.8 2024.07,290.54 2024.07,290.54 " fill="none" id="UIManager-to-Script" style="stroke:#A80036;stroke-width:1.0;"/><polygon fill="#A80036" points="2024.07,295.54,2028.07,286.54,2024.07,290.54,2020.07,286.54,2024.07,295.54" style="stroke:#A80036;stroke-width:1.0;"/><text fill="#000000" font-family="Sarabun" font-size="13" lengthAdjust="spacing" textLength="33" x="1009" y="184.084">ใช้งาน</text><!--MD5=[61c4d8fdf8fe82e9a5a4071df80bf255]
link DrawingManager to Heuristics--><path d="M808.3,309.8 C808.3,309.8 1835.8,309.8 1835.8,309.8 " fill="none" id="DrawingManager-to-Heuristics" style="stroke:#A80036;stroke-width:1.0;"/><polygon fill="#A80036" points="1840.8,309.8,1831.8,305.8,1835.8,309.8,1831.8,313.8,1840.8,309.8" style="stroke:#A80036;stroke-width:1.0;"/><text fill="#000000" font-family="Sarabun" font-size="13" lengthAdjust="spacing" textLength="76" x="1053" y="184.084">รับผลวิเคราะห์</text><!--MD5=[88e399026a7cd10edbada62dd148ef38]
link ScorePopup to Scoring--><path d="M1452,139.45 C1452,149.12 1452,158.8 1452,158.8 C1452,158.8 2185,158.8 2185,158.8 C2185,158.8 2185,290.47 2185,290.47 " fill="none" id="ScorePopup-to-Scoring" style="stroke:#A80036;stroke-width:1.0;"/><polygon fill="#A80036" points="2185,295.47,2189,286.47,2185,290.47,2181,286.47,2185,295.47" style="stroke:#A80036;stroke-width:1.0;"/><text fill="#000000" font-family="Sarabun" font-size="13" lengthAdjust="spacing" textLength="69" x="2025" y="184.084">แสดงคะแนน</text><!--MD5=[e37bb8e1842647a8163351ac121b3cea]
link TutorialManager to Script--><path d="M717.75,139.54 C717.75,172.97 717.75,237.8 717.75,237.8 C717.75,237.8 2043.21,237.8 2043.21,237.8 C2043.21,237.8 2043.21,290.38 2043.21,290.38 " fill="none" id="TutorialManager-to-Script" style="stroke:#A80036;stroke-width:1.0;"/><polygon fill="#A80036" points="2043.21,295.38,2047.21,286.38,2043.21,290.38,2039.21,286.38,2043.21,295.38" style="stroke:#A80036;stroke-width:1.0;"/><text fill="#000000" font-family="Sarabun" font-size="13" lengthAdjust="spacing" textLength="39" x="1269" y="184.084">ควบคุม</text><!--MD5=[7374e733661d55588038575c05785c1f]
link Shortcuts to Script--><path d="M521,139.54 C521,177.49 521,257.8 521,257.8 C521,257.8 2033.64,257.8 2033.64,257.8 C2033.64,257.8 2033.64,290.31 2033.64,290.31 " fill="none" id="Shortcuts-to-Script" style="stroke:#A80036;stroke-width:1.0;"/><polygon fill="#A80036" points="2033.64,295.31,2037.64,286.31,2033.64,290.31,2029.64,286.31,2033.64,295.31" style="stroke:#A80036;stroke-width:1.0;"/><text fill="#000000" font-family="Sarabun" font-size="13" lengthAdjust="spacing" textLength="42" x="1176" y="184.084">ส่งคำสั่ง</text><!--MD5=[4f6505fb14121957eb1503fc4f92b123]
link Lighting to Script--><path d="M1114,139.55 C1114,162.86 1114,198.8 1114,198.8 C1114,198.8 2062.36,198.8 2062.36,198.8 C2062.36,198.8 2062.36,290.38 2062.36,290.38 " fill="none" id="Lighting-to-Script" style="stroke:#A80036;stroke-width:1.0;"/><polygon fill="#A80036" points="2062.36,295.38,2066.36,286.38,2062.36,290.38,2058.36,286.38,2062.36,295.38" style="stroke:#A80036;stroke-width:1.0;"/><text fill="#000000" font-family="Sarabun" font-size="13" lengthAdjust="spacing" textLength="74" x="1501" y="184.084">ตรวจสอบแสง</text><!--MD5=[3c394c54c7a59740d4970467c05a0c12]
link Debug to PerfMon--><path d="M1610.25,139.6 C1610.25,211.25 1610.25,455.8 1610.25,455.8 C1610.25,455.8 2387.67,455.8 2387.67,455.8 C2387.67,455.8 2387.67,488.44 2387.67,488.44 " fill="none" id="Debug-to-PerfMon" style="stroke:#A80036;stroke-width:1.0;"/><polygon fill="#A80036" points="2387.67,493.44,2391.67,484.44,2387.67,488.44,2383.67,484.44,2387.67,493.44" style="stroke:#A80036;stroke-width:1.0;"/><text fill="#000000" font-family="Sarabun" font-size="13" lengthAdjust="spacing" textLength="60" x="2498" y="322.184">อ่านค่า FPS</text><!--MD5=[eb83728368ffa15729c84eb097d4690f]
link Wisdom to Script--><path d="M1264,139.65 C1264,156.72 1264,178.8 1264,178.8 C1264,178.8 2071.93,178.8 2071.93,178.8 C2071.93,178.8 2071.93,290.38 2071.93,290.38 " fill="none" id="Wisdom-to-Script" style="stroke:#A80036;stroke-width:1.0;"/><polygon fill="#A80036" points="2071.93,295.38,2075.93,286.38,2071.93,290.38,2067.93,286.38,2071.93,295.38" style="stroke:#A80036;stroke-width:1.0;"/><text fill="#000000" font-family="Sarabun" font-size="13" lengthAdjust="spacing" textLength="60" x="1761" y="184.084">แสดงคำคม</text><!--MD5=[e6df60db6e86a8a93e1ef13d98ea6002]
link FeedbackManager to Script--><path d="M944.25,139.4 C944.25,167.88 944.25,217.8 944.25,217.8 C944.25,217.8 2052.79,217.8 2052.79,217.8 C2052.79,217.8 2052.79,290.33 2052.79,290.33 " fill="none" id="FeedbackManager-to-Script" style="stroke:#A80036;stroke-width:1.0;"/><polygon fill="#A80036" points="2052.79,295.33,2056.79,286.33,2052.79,290.33,2048.79,286.33,2052.79,295.33" style="stroke:#A80036;stroke-width:1.0;"/><text fill="#000000" font-family="Sarabun" font-size="13" lengthAdjust="spacing" textLength="55" x="1368" y="184.084">แจ้งปัญหา</text><!--MD5=[d496892f9e6690f6ee7590dbb1fb8031]
link Script to Session--><path d="M2022.5,335.78 C2022.5,353.14 2022.5,375.8 2022.5,375.8 C2022.5,375.8 1349.5,375.8 1349.5,375.8 C1349.5,375.8 1349.5,488.41 1349.5,488.41 " fill="none" id="Script-to-Session" style="stroke:#A80036;stroke-width:1.0;"/><polygon fill="#A80036" points="1349.5,493.41,1353.5,484.41,1349.5,488.41,1345.5,484.41,1349.5,493.41" style="stroke:#A80036;stroke-width:1.0;"/><text fill="#000000" font-family="Sarabun" font-size="13" lengthAdjust="spacing" textLength="76" x="1591" y="382.284">จัดการ session</text><!--MD5=[e423245bf529dda2ca0d392dbadbe4d7]
link Script to Exporter--><path d="M2026.5,335.54 C2026.5,359.07 2026.5,395.8 2026.5,395.8 C2026.5,395.8 1510,395.8 1510,395.8 C1510,395.8 1510,488.65 1510,488.65 " fill="none" id="Script-to-Exporter" style="stroke:#A80036;stroke-width:1.0;"/><polygon fill="#A80036" points="1510,493.65,1514,484.65,1510,488.65,1506,484.65,1510,493.65" style="stroke:#A80036;stroke-width:1.0;"/><text fill="#000000" font-family="Sarabun" font-size="13" lengthAdjust="spacing" textLength="69" x="1806" y="382.284">ส่งออกข้อมูล</text><!--MD5=[05b4aa5e4a30750a603c2dd2ad4a0c96]
link Script to PathGen--><path d="M2030.5,335.48 C2030.5,364.4 2030.5,415.8 2030.5,415.8 C2030.5,415.8 1673.25,415.8 1673.25,415.8 C1673.25,415.8 1673.25,488.49 1673.25,488.49 " fill="none" id="Script-to-PathGen" style="stroke:#A80036;stroke-width:1.0;"/><polygon fill="#A80036" points="1673.25,493.49,1677.25,484.49,1673.25,488.49,1669.25,484.49,1673.25,493.49" style="stroke:#A80036;stroke-width:1.0;"/><text fill="#000000" font-family="Sarabun" font-size="13" lengthAdjust="spacing" textLength="55" x="1917" y="382.284">สร้าง path</text><!--MD5=[033720cbb9d468b7d2021f47974a014c]
link Script to TimeUtils--><path d="M2018.5,335.59 C2018.5,345.61 2018.5,355.8 2018.5,355.8 C2018.5,355.8 1177.25,355.8 1177.25,355.8 C1177.25,355.8 1177.25,488.53 1177.25,488.53 " fill="none" id="Script-to-TimeUtils" style="stroke:#A80036;stroke-width:1.0;"/><polygon fill="#A80036" points="1177.25,493.53,1181.25,484.53,1177.25,488.53,1173.25,484.53,1177.25,493.53" style="stroke:#A80036;stroke-width:1.0;"/><text fill="#000000" font-family="Sarabun" font-size="13" lengthAdjust="spacing" textLength="56" x="1382" y="382.284">แปลงเวลา</text><!--MD5=[a70bdb2693558c27d835ed4747e352fe]
link Heuristics to MathUtils--><path d="M1842.02,322.8 C1634.03,322.8 1027.25,322.8 1027.25,322.8 C1027.25,322.8 1027.25,488.55 1027.25,488.55 " fill="none" id="Heuristics-to-MathUtils" style="stroke:#A80036;stroke-width:1.0;"/><polygon fill="#A80036" points="1027.25,493.55,1031.25,484.55,1027.25,488.55,1023.25,484.55,1027.25,493.55" style="stroke:#A80036;stroke-width:1.0;"/><text fill="#000000" font-family="Sarabun" font-size="13" lengthAdjust="spacing" textLength="40" x="1077" y="382.284">คำนวณ</text><!--MD5=[bf3d8f92ee07d8788026461cbfe22ec4]
link UIManager to I18n--><path d="M376.17,139.67 C376.17,219.32 376.17,514.8 376.17,514.8 C376.17,514.8 811.95,514.8 811.95,514.8 " fill="none" id="UIManager-to-I18n" style="stroke:#A80036;stroke-width:1.0;"/><polygon fill="#A80036" points="816.95,514.8,807.95,510.8,811.95,514.8,807.95,518.8,816.95,514.8" style="stroke:#A80036;stroke-width:1.0;"/><text fill="#000000" font-family="Sarabun" font-size="13" lengthAdjust="spacing" textLength="54" x="879" y="322.184">แปลภาษา</text><!--MD5=[bae71f71109d51234a5e44f50311443d]
link I18n to Translations--><path d="M878,533.87 C878,533.87 878,686.74 878,686.74 " fill="none" id="I18n-to-Translations" style="stroke:#A80036;stroke-width:1.0;"/><polygon fill="#A80036" points="878,691.74,882,682.74,878,686.74,874,682.74,878,691.74" style="stroke:#A80036;stroke-width:1.0;"/><text fill="#000000" font-family="Sarabun" font-size="13" lengthAdjust="spacing" textLength="61" x="879" y="580.484">โหลดข้อมูล</text><!--MD5=[946961918582c617df6d290e0c1a01ba]
link Heuristics to MPPose--><path d="M1979.75,309.8 C1995.13,309.8 2007,309.8 2007,309.8 C2007,309.8 2007,706.8 2007,706.8 C2007,706.8 2055.99,706.8 2055.99,706.8 " fill="none" id="Heuristics-to-MPPose" style="stroke:#A80036;stroke-width:1.0;"/><polygon fill="#A80036" points="2060.99,706.8,2051.99,702.8,2055.99,706.8,2051.99,710.8,2060.99,706.8" style="stroke:#A80036;stroke-width:1.0;"/><text fill="#000000" font-family="Sarabun" font-size="13" lengthAdjust="spacing" textLength="58" x="1748" y="520.384">ตรวจจับท่า</text><!--MD5=[1ac1e897ae7ee0060b2418b4b3413d1c]
link Camera to MPPose--><path d="M2117.25,533.87 C2117.25,533.87 2117.25,686.74 2117.25,686.74 " fill="none" id="Camera-to-MPPose" style="stroke:#A80036;stroke-width:1.0;"/><polygon fill="#A80036" points="2117.25,691.74,2121.25,682.74,2117.25,686.74,2113.25,682.74,2117.25,691.74" style="stroke:#A80036;stroke-width:1.0;"/><text fill="#000000" font-family="Sarabun" font-size="13" lengthAdjust="spacing" textLength="37" x="2112" y="580.484">ส่งภาพ</text><!--MD5=[36278df54b849fb29fb533014afc69dc]
link Gesture to MPGesture--><path d="M2348,335.69 C2348,415.3 2348,712.8 2348,712.8 C2348,712.8 2356.34,712.8 2356.34,712.8 " fill="none" id="Gesture-to-MPGesture" style="stroke:#A80036;stroke-width:1.0;"/><polygon fill="#A80036" points="2361.34,712.8,2352.34,708.8,2356.34,712.8,2352.34,716.8,2361.34,712.8" style="stroke:#A80036;stroke-width:1.0;"/><text fill="#000000" font-family="Sarabun" font-size="13" lengthAdjust="spacing" textLength="59" x="2605" y="520.384">ตรวจจับมือ</text><!--MD5=[5d2968167655c2a7f41e07f4dbeeaf82]
link Audio to WebSpeech--><path d="M2270,533.87 C2270,533.87 2270,686.74 2270,686.74 " fill="none" id="Audio-to-WebSpeech" style="stroke:#A80036;stroke-width:1.0;"/><polygon fill="#A80036" points="2270,691.74,2274,682.74,2270,686.74,2266,682.74,2270,691.74" style="stroke:#A80036;stroke-width:1.0;"/><text fill="#000000" font-family="Sarabun" font-size="13" lengthAdjust="spacing" textLength="53" x="2271" y="580.484">เสียงเตือน</text><!--MD5=[fa2bf33665ed016c01ebce86b27bf280]
link Chatbot to Gemini--><path d="M1785.86,119.8 C1952.87,119.8 2574.75,119.8 2574.75,119.8 C2574.75,119.8 2574.75,686.8 2574.75,686.8 " fill="none" id="Chatbot-to-Gemini" style="stroke:#A80036;stroke-width:1.0;"/><polygon fill="#A80036" points="2574.75,691.8,2578.75,682.8,2574.75,686.8,2570.75,682.8,2574.75,691.8" style="stroke:#A80036;stroke-width:1.0;"/><text fill="#000000" font-family="Sarabun" font-size="13" lengthAdjust="spacing" textLength="75" x="2719" y="382.284">AI ตอบคำถาม</text><!--MD5=[6e63a70208ceac2ea0269d377010655a]
link Session to LocalStorage--><path d="M1297,534.09 C1297,585.22 1297,718.8 1297,718.8 C1297,718.8 1164.43,718.8 1164.43,718.8 " fill="none" id="Session-to-LocalStorage" style="stroke:#A80036;stroke-width:1.0;"/><polygon fill="#A80036" points="1159.43,718.8,1168.43,722.8,1164.43,718.8,1168.43,714.8,1159.43,718.8" style="stroke:#A80036;stroke-width:1.0;"/><text fill="#000000" font-family="Sarabun" font-size="13" lengthAdjust="spacing" textLength="59" x="1200" y="580.484">บันทึก/อ่าน</text><!--MD5=[98957fbda340871196548535f96f99cc]
link I18n to LocalStorage--><path d="M934,533.87 C934,583.77 934,712.8 934,712.8 C934,712.8 1049.52,712.8 1049.52,712.8 " fill="none" id="I18n-to-LocalStorage" style="stroke:#A80036;stroke-width:1.0;"/><polygon fill="#A80036" points="1054.52,712.8,1045.52,708.8,1049.52,712.8,1045.52,716.8,1054.52,712.8" style="stroke:#A80036;stroke-width:1.0;"/><text fill="#000000" font-family="Sarabun" font-size="13" lengthAdjust="spacing" textLength="61" x="999" y="580.484">บันทึกภาษา</text><!--MD5=[5ee62b36886971867acfe45d13844bfd]
link Script to Calibration--><path d="M2014.31,322.8 C2001.31,322.8 1989.5,322.8 1989.5,322.8 C1989.5,322.8 1989.5,488.55 1989.5,488.55 " fill="none" id="Script-to-Calibration" style="stroke:#A80036;stroke-width:1.0;"/><polygon fill="#A80036" points="1989.5,493.55,1993.5,484.55,1989.5,488.55,1985.5,484.55,1989.5,493.55" style="stroke:#A80036;stroke-width:1.0;"/><text fill="#000000" font-family="Sarabun" font-size="13" lengthAdjust="spacing" textLength="51" x="2014" y="382.284">ปรับเทียบ</text><!--MD5=[b915dc73952632ff28c59e9b0ee2f0e3]
link Script to PerfMon--><path d="M2069.75,335.77 C2069.75,369.63 2069.75,435.8 2069.75,435.8 C2069.75,435.8 2407.33,435.8 2407.33,435.8 C2407.33,435.8 2407.33,488.53 2407.33,488.53 " fill="none" id="Script-to-PerfMon" style="stroke:#A80036;stroke-width:1.0;"/><polygon fill="#A80036" points="2407.33,493.53,2411.33,484.53,2407.33,488.53,2403.33,484.53,2407.33,493.53" style="stroke:#A80036;stroke-width:1.0;"/><text fill="#000000" font-family="Sarabun" font-size="13" lengthAdjust="spacing" textLength="78" x="2377" y="382.284">ตรวจสอบ Perf</text><!--MD5=[fe9eec8f154055226d1a62126841409e]
link Script to Camera--><path d="M2046.25,335.67 C2046.25,335.67 2046.25,488.54 2046.25,488.54 " fill="none" id="Script-to-Camera" style="stroke:#A80036;stroke-width:1.0;"/><polygon fill="#A80036" points="2046.25,493.54,2050.25,484.54,2046.25,488.54,2042.25,484.54,2046.25,493.54" style="stroke:#A80036;stroke-width:1.0;"/><text fill="#000000" font-family="Sarabun" font-size="13" lengthAdjust="spacing" textLength="45" x="2107" y="382.284">คุมกล้อง</text><!--MD5=[9fd97801d6b83f1f673f048a48616888]
link Script to Audio--><path d="M2058,335.86 C2058,378.45 2058,475.8 2058,475.8 C2058,475.8 2230.25,475.8 2230.25,475.8 C2230.25,475.8 2230.25,488.64 2230.25,488.64 " fill="none" id="Script-to-Audio" style="stroke:#A80036;stroke-width:1.0;"/><polygon fill="#A80036" points="2230.25,493.64,2234.25,484.64,2230.25,488.64,2226.25,484.64,2230.25,493.64" style="stroke:#A80036;stroke-width:1.0;"/><text fill="#000000" font-family="Sarabun" font-size="13" lengthAdjust="spacing" textLength="45" x="2233" y="382.284">พูดเตือน</text><!--MD5=[66ba28e5a7f3bfcdcbdbf93402e1fc91]
link WebGL to DrawingManager--><path d="M208,139.58 C208,189.08 208,315.8 208,315.8 C208,315.8 661.11,315.8 661.11,315.8 " fill="none" id="WebGL-to-DrawingManager" style="stroke:#A80036;stroke-width:1.0;"/><polygon fill="#A80036" points="666.11,315.8,657.11,311.8,661.11,315.8,657.11,319.8,666.11,315.8" style="stroke:#A80036;stroke-width:1.0;"/><text fill="#000000" font-family="Sarabun" font-size="13" lengthAdjust="spacing" textLength="41" x="474" y="184.084">Render</text><rect fill="#DDDDDD" height="141.4" rx="5" ry="5" style="stroke:#000000;stroke-width:1.0;" width="348" x="2432" y="766.8"/><text fill="#000000" font-family="Sarabun" font-size="14" font-weight="bold" lengthAdjust="spacing" textLength="36" x="2441" y="788.752">Layer</text><text fill="#000000" font-family="Sarabun" font-size="14" font-weight="bold" lengthAdjust="spacing" textLength="59" x="2536" y="788.752">หน้าที่หลัก</text><text fill="#000000" font-family="Sarabun" font-size="14" lengthAdjust="spacing" textLength="77" x="2441" y="806.952">Presentation</text><text fill="#000000" font-family="Sarabun" font-size="14" lengthAdjust="spacing" textLength="121" x="2536" y="806.952">แสดงผล UI, รับ input</text><text fill="#000000" font-family="Sarabun" font-size="14" lengthAdjust="spacing" textLength="89" x="2441" y="825.152">Business Logic</text><text fill="#000000" font-family="Sarabun" font-size="14" lengthAdjust="spacing" textLength="120" x="2536" y="825.152">ประมวลผล, วิเคราะห์</text><text fill="#000000" font-family="Sarabun" font-size="14" lengthAdjust="spacing" textLength="28" x="2441" y="843.352">Data</text><text fill="#000000" font-family="Sarabun" font-size="14" lengthAdjust="spacing" textLength="71" x="2536" y="843.352">จัดการข้อมูล</text><text fill="#000000" font-family="Sarabun" font-size="14" lengthAdjust="spacing" textLength="79" x="2441" y="861.552">External APIs</text><text fill="#000000" font-family="Sarabun" font-size="14" lengthAdjust="spacing" textLength="87" x="2536" y="861.552">บริการภายนอก</text><line style="stroke:#000000;stroke-width:1.0;" x1="2438" x2="2660" y1="773.8" y2="773.8"/><line style="stroke:#000000;stroke-width:1.0;" x1="2438" x2="2660" y1="792" y2="792"/><line style="stroke:#000000;stroke-width:1.0;" x1="2438" x2="2660" y1="810.2" y2="810.2"/><line style="stroke:#000000;stroke-width:1.0;" x1="2438" x2="2660" y1="828.4" y2="828.4"/><line style="stroke:#000000;stroke-width:1.0;" x1="2438" x2="2660" y1="846.6" y2="846.6"/><line style="stroke:#000000;stroke-width:1.0;" x1="2438" x2="2660" y1="864.8" y2="864.8"/><line style="stroke:#000000;stroke-width:1.0;" x1="2438" x2="2438" y1="773.8" y2="864.8"/><line style="stroke:#000000;stroke-width:1.0;" x1="2533" x2="2533" y1="773.8" y2="864.8"/><line style="stroke:#000000;stroke-width:1.0;" x1="2660" x2="2660" y1="773.8" y2="864.8"/><text fill="#000000" font-family="Sarabun" font-size="14" lengthAdjust="spacing" textLength="10" x="2438" y="881.752">--</text><text fill="#000000" font-family="Sarabun" font-size="14" font-weight="bold" lengthAdjust="spacing" textLength="73" x="2438" y="899.952">&#128161; หลักการ:</text><text fill="#000000" font-family="Sarabun" font-size="14" lengthAdjust="spacing" textLength="260" x="2514" y="899.952">แต่ละ Layer สื่อสารกับ Layer ที่อยู่ติดกันเท่านั้น</text><!--MD5=[e7b5454c046237d314aeec7787b44f73]
@startuml LayerArchitecture
' ============================================================================
' TaijiFlow AI - Layer Architecture Diagram
' ============================================================================
' แสดง 4 Layer ของระบบ: Presentation, Business Logic, Data, External APIs
' หลักการ: แต่ละ Layer สื่อสารกับ Layer ที่อยู่ติดกันเท่านั้น
' อัปเดต: 2026-01-08
' ============================================================================

skinparam defaultFontName "Sarabun"
skinparam backgroundColor transparent
skinparam componentStyle rectangle
skinparam packageStyle rectangle
skinparam linetype ortho

' === Direction ===
top to bottom direction

' === Colors ===
skinparam package {
    BackgroundColor<<presentation>> #E3F2FD
    BackgroundColor<<business>> #FFF3E0
    BackgroundColor<<data>> #E8F5E9
    BackgroundColor<<external>> #FFEBEE
    BorderColor #666666
}

skinparam component {
    BackgroundColor #FFFFFF
    BorderColor #999999
}

' ============================================================================
' LAYER 1: PRESENTATION LAYER (Top)
' ============================================================================

package "🖥️ PRESENTATION LAYER" <<presentation>> {
    [index.html] as IndexHtml
    [ui_manager.js] as UIManager
    [drawing_manager.js] as DrawingManager
    [tutorial_manager.js] as TutorialManager
    [score_popup_manager.js] as ScorePopup
    [chatbot.js] as Chatbot
    [feedback_manager.js] as FeedbackManager
    [lighting_manager.js] as Lighting
    [debug_manager.js] as Debug
    [wisdom_manager.js] as Wisdom
    [shortcuts_manager.js] as Shortcuts
    [webgl_manager.js] as WebGL
}

' ============================================================================
' LAYER 2: BUSINESS LOGIC LAYER
' ============================================================================

package "⚙️ BUSINESS LOGIC LAYER" <<business>> {
    [script.js] as Script
    [heuristics_engine.js] as Heuristics
    [calibration_manager.js] as Calibration
    [scoring_manager.js] as Scoring
    [gesture_manager.js] as Gesture
    [audio_manager.js] as Audio
    [camera_manager.js] as Camera
    [performance_monitor.js] as PerfMon
}

' ============================================================================
' LAYER 3: DATA LAYER
' ============================================================================

package "💾 DATA LAYER" <<data>> {
    [session_manager.js] as Session
    [data_exporter.js] as Exporter
    [LocalStorage] as LocalStorage
    [path_generator.js] as PathGen
    [translations.js] as Translations
    [i18n_manager.js] as I18n
    [time_utils.js] as TimeUtils
    [math_utils.js] as MathUtils
}

' ============================================================================
' LAYER 4: EXTERNAL APIs (Bottom)
' ============================================================================

package "🌐 EXTERNAL APIs" <<external>> {
    [MediaPipe Pose] as MPPose
    [MediaPipe Gesture] as MPGesture
    [Web Speech API] as WebSpeech
    [Gemini API] as Gemini
}

' ============================================================================
' RELATIONSHIPS (Layer-to-Layer Communication Only)
' ============================================================================

' Presentation → Business Logic
UIManager - -> Script : ใช้งาน
DrawingManager - -> Heuristics : รับผลวิเคราะห์
ScorePopup - -> Scoring : แสดงคะแนน
TutorialManager - -> Script : ควบคุม
Shortcuts - -> Script : ส่งคำสั่ง
Lighting - -> Script : ตรวจสอบแสง
Debug - -> PerfMon : อ่านค่า FPS
Wisdom - -> Script : แสดงคำคม
FeedbackManager - -> Script : แจ้งปัญหา

' Business Logic → Data
Script - -> Session : จัดการ session
Script - -> Exporter : ส่งออกข้อมูล
Script - -> PathGen : สร้าง path
Script - -> TimeUtils : แปลงเวลา
Heuristics - -> MathUtils : คำนวณ
UIManager - -> I18n : แปลภาษา
I18n - -> Translations : โหลดข้อมูล

' Business Logic → External APIs
Heuristics - -> MPPose : ตรวจจับท่า
Camera - -> MPPose : ส่งภาพ
Gesture - -> MPGesture : ตรวจจับมือ
Audio - -> WebSpeech : เสียงเตือน
Chatbot - -> Gemini : AI ตอบคำถาม

' Data → LocalStorage
Session - -> LocalStorage : บันทึก/อ่าน
I18n - -> LocalStorage : บันทึกภาษา

' Internal Layer Connections (Helpers)
Script - -> Calibration : ปรับเทียบ
Script - -> PerfMon : ตรวจสอบ Perf
Script - -> Camera : คุมกล้อง
Script - -> Audio : พูดเตือน
WebGL - -> DrawingManager : Render


' ============================================================================
' LEGEND
' ============================================================================

legend right
  |= Layer |= หน้าที่หลัก |
  | Presentation | แสดงผล UI, รับ input |
  | Business Logic | ประมวลผล, วิเคราะห์ |
  | Data | จัดการข้อมูล |
  | External APIs | บริการภายนอก |
  - -
  **💡 หลักการ:** แต่ละ Layer สื่อสารกับ Layer ที่อยู่ติดกันเท่านั้น
endlegend

@enduml

@startuml LayerArchitecture

skinparam defaultFontName "Sarabun"
skinparam backgroundColor transparent
skinparam componentStyle rectangle
skinparam packageStyle rectangle
skinparam linetype ortho

top to bottom direction

skinparam package {
    BackgroundColor<<presentation>> #E3F2FD
    BackgroundColor<<business>> #FFF3E0
    BackgroundColor<<data>> #E8F5E9
    BackgroundColor<<external>> #FFEBEE
    BorderColor #666666
}

skinparam component {
    BackgroundColor #FFFFFF
    BorderColor #999999
}


package "🖥️ PRESENTATION LAYER" <<presentation>> {
    [index.html] as IndexHtml
    [ui_manager.js] as UIManager
    [drawing_manager.js] as DrawingManager
    [tutorial_manager.js] as TutorialManager
    [score_popup_manager.js] as ScorePopup
    [chatbot.js] as Chatbot
    [feedback_manager.js] as FeedbackManager
    [lighting_manager.js] as Lighting
    [debug_manager.js] as Debug
    [wisdom_manager.js] as Wisdom
    [shortcuts_manager.js] as Shortcuts
    [webgl_manager.js] as WebGL
}


package "⚙️ BUSINESS LOGIC LAYER" <<business>> {
    [script.js] as Script
    [heuristics_engine.js] as Heuristics
    [calibration_manager.js] as Calibration
    [scoring_manager.js] as Scoring
    [gesture_manager.js] as Gesture
    [audio_manager.js] as Audio
    [camera_manager.js] as Camera
    [performance_monitor.js] as PerfMon
}


package "💾 DATA LAYER" <<data>> {
    [session_manager.js] as Session
    [data_exporter.js] as Exporter
    [LocalStorage] as LocalStorage
    [path_generator.js] as PathGen
    [translations.js] as Translations
    [i18n_manager.js] as I18n
    [time_utils.js] as TimeUtils
    [math_utils.js] as MathUtils
}


package "🌐 EXTERNAL APIs" <<external>> {
    [MediaPipe Pose] as MPPose
    [MediaPipe Gesture] as MPGesture
    [Web Speech API] as WebSpeech
    [Gemini API] as Gemini
}


UIManager - -> Script : ใช้งาน
DrawingManager - -> Heuristics : รับผลวิเคราะห์
ScorePopup - -> Scoring : แสดงคะแนน
TutorialManager - -> Script : ควบคุม
Shortcuts - -> Script : ส่งคำสั่ง
Lighting - -> Script : ตรวจสอบแสง
Debug - -> PerfMon : อ่านค่า FPS
Wisdom - -> Script : แสดงคำคม
FeedbackManager - -> Script : แจ้งปัญหา

Script - -> Session : จัดการ session
Script - -> Exporter : ส่งออกข้อมูล
Script - -> PathGen : สร้าง path
Script - -> TimeUtils : แปลงเวลา
Heuristics - -> MathUtils : คำนวณ
UIManager - -> I18n : แปลภาษา
I18n - -> Translations : โหลดข้อมูล

Heuristics - -> MPPose : ตรวจจับท่า
Camera - -> MPPose : ส่งภาพ
Gesture - -> MPGesture : ตรวจจับมือ
Audio - -> WebSpeech : เสียงเตือน
Chatbot - -> Gemini : AI ตอบคำถาม

Session - -> LocalStorage : บันทึก/อ่าน
I18n - -> LocalStorage : บันทึกภาษา

Script - -> Calibration : ปรับเทียบ
Script - -> PerfMon : ตรวจสอบ Perf
Script - -> Camera : คุมกล้อง
Script - -> Audio : พูดเตือน
WebGL - -> DrawingManager : Render



legend right
  |= Layer |= หน้าที่หลัก |
  | Presentation | แสดงผล UI, รับ input |
  | Business Logic | ประมวลผล, วิเคราะห์ |
  | Data | จัดการข้อมูล |
  | External APIs | บริการภายนอก |
  - -
  **💡 หลักการ:** แต่ละ Layer สื่อสารกับ Layer ที่อยู่ติดกันเท่านั้น
endlegend

@enduml

PlantUML version 1.2021.00(Sun Jan 10 17:25:05 ICT 2021)
(MIT source distribution)
Java Runtime: OpenJDK Runtime Environment
JVM: OpenJDK 64-Bit Server VM
Default Encoding: UTF-8
Language: en
Country: US
--></g></svg>