<?xml version="1.0" encoding="UTF-8" standalone="no"?><svg xmlns="http://www.w3.org/2000/svg" xmlns:xlink="http://www.w3.org/1999/xlink" contentScriptType="application/ecmascript" contentStyleType="text/css" height="860px" preserveAspectRatio="none" style="width:931px;height:860px;" version="1.1" viewBox="0 0 931 860" width="931px" zoomAndPan="magnify"><defs><filter height="300%" id="f1wbst374vzqu8" width="300%" x="-1" y="-1"><feGaussianBlur result="blurOut" stdDeviation="2.0"/><feColorMatrix in="blurOut" result="blurOut2" type="matrix" values="0 0 0 0 0 0 0 0 0 0 0 0 0 0 0 0 0 0 .4 0"/><feOffset dx="4.0" dy="4.0" in="blurOut2" result="blurOut3"/><feBlend in="SourceGraphic" in2="blurOut3" mode="normal"/></filter></defs><g><ellipse cx="315" cy="20" fill="#000000" filter="url(#f1wbst374vzqu8)" rx="10" ry="10" style="stroke:none;stroke-width:1.0;"/><rect fill="#FFFFFF" filter="url(#f1wbst374vzqu8)" height="35.6" rx="12.5" ry="12.5" style="stroke:#000000;stroke-width:1.5;" width="190" x="220" y="50"/><text fill="#000000" font-family="sarabun" font-size="12" lengthAdjust="spacing" textLength="170" x="230" y="72.816">รับข้อมูล Session Data จาก UC-02</text><polygon fill="#FEFECE" filter="url(#f1wbst374vzqu8)" points="274.5,105.6,355.5,105.6,367.5,117.6,355.5,129.6,274.5,129.6,262.5,117.6,274.5,105.6" style="stroke:#A80036;stroke-width:1.5;"/><text fill="#000000" font-family="sarabun" font-size="11" lengthAdjust="spacing" textLength="81" x="274.5" y="122.198">จำนวนเฟรม &gt; 0 ?</text><text fill="#000000" font-family="sarabun" font-size="11" lengthAdjust="spacing" textLength="22" x="240.5" y="115.048">ไม่ใช่</text><text fill="#000000" font-family="sarabun" font-size="11" lengthAdjust="spacing" textLength="11" x="367.5" y="115.048">ใช่</text><rect fill="#FFFFFF" filter="url(#f1wbst374vzqu8)" height="35.6" rx="12.5" ry="12.5" style="stroke:#000000;stroke-width:1.5;" width="199" x="11" y="139.6"/><text fill="#000000" font-family="sarabun" font-size="12" lengthAdjust="spacing" textLength="179" x="21" y="162.416">แสดงแจ้งเตือน "ไม่มีข้อมูลการบันทึก"</text><ellipse cx="110.5" cy="221.2" fill="#FFFFFF" filter="url(#f1wbst374vzqu8)" rx="11" ry="11" style="stroke:#000000;stroke-width:1.0;"/><ellipse cx="110.5" cy="221.2" fill="#000000" rx="6" ry="6" style="stroke:#7F7F7F;stroke-width:1.0;"/><rect fill="#FFFFFF" filter="url(#f1wbst374vzqu8)" height="215.8" style="stroke:#000000;stroke-width:2.0;" width="506" x="408.25" y="139.6"/><path d="M514.25,139.6 L514.25,150.8 L504.25,160.8 L408.25,160.8 " fill="none" style="stroke:#000000;stroke-width:2.0;"/><text fill="#000000" font-family="sarabun" font-size="14" lengthAdjust="spacing" textLength="96" x="411.25" y="155.552">Scoring Process</text><path d="M626.25,177.8 L626.25,195.7 L606.25,199.7 L626.25,203.7 L626.25,221.6 A0,0 0 0 0 626.25,221.6 L904.25,221.6 A0,0 0 0 0 904.25,221.6 L904.25,187.8 L894.25,177.8 L626.25,177.8 A0,0 0 0 0 626.25,177.8 " fill="#FBFB77" filter="url(#f1wbst374vzqu8)" style="stroke:#A80036;stroke-width:1.0;"/><path d="M894.25,177.8 L894.25,187.8 L904.25,187.8 L894.25,177.8 " fill="#FBFB77" style="stroke:#A80036;stroke-width:1.0;"/><text fill="#000000" font-family="sarabun" font-size="13" lengthAdjust="spacing" textLength="257" x="632.25" y="196.684">Score = (CorrectFrames / TotalFrames) × 100</text><text fill="#000000" font-family="sarabun" font-size="13" lengthAdjust="spacing" textLength="253" x="632.25" y="213.584">Grade: A(≥85), B(≥70), C(≥55), D(≥40), F(&lt;40)</text><rect fill="#FFFFFF" filter="url(#f1wbst374vzqu8)" height="35.6" rx="12.5" ry="12.5" style="stroke:#000000;stroke-width:1.5;" width="170" x="436.25" y="181.9"/><text fill="#000000" font-family="sarabun" font-size="12" lengthAdjust="spacing" textLength="150" x="446.25" y="204.716">คำนวณคะแนน (Simple Ratio)</text><rect fill="#FFFFFF" filter="url(#f1wbst374vzqu8)" height="35.6" rx="12.5" ry="12.5" style="stroke:#000000;stroke-width:1.5;" width="179" x="431.75" y="252.2"/><text fill="#000000" font-family="sarabun" font-size="12" lengthAdjust="spacing" textLength="159" x="441.75" y="275.016">แปลงคะแนนเป็นเกรด (Grading)</text><rect fill="#FFFFFF" filter="url(#f1wbst374vzqu8)" height="35.6" rx="12.5" ry="12.5" style="stroke:#000000;stroke-width:1.5;" width="206" x="418.25" y="307.8"/><text fill="#000000" font-family="sarabun" font-size="12" lengthAdjust="spacing" textLength="186" x="428.25" y="330.616">จัดลำดับข้อผิดพลาด (Ranking Errors)</text><rect fill="#FFFFFF" filter="url(#f1wbst374vzqu8)" height="269.2" style="stroke:#000000;stroke-width:2.0;" width="613" x="228.25" y="365.4"/><path d="M372.25,365.4 L372.25,376.6 L362.25,386.6 L228.25,386.6 " fill="none" style="stroke:#000000;stroke-width:2.0;"/><text fill="#000000" font-family="sarabun" font-size="14" lengthAdjust="spacing" textLength="134" x="231.25" y="381.352">Data Export (Optional)</text><polygon fill="#FEFECE" filter="url(#f1wbst374vzqu8)" points="482.25,403.6,560.25,403.6,572.25,415.6,560.25,427.6,482.25,427.6,470.25,415.6,482.25,403.6" style="stroke:#A80036;stroke-width:1.5;"/><text fill="#000000" font-family="sarabun" font-size="11" lengthAdjust="spacing" textLength="78" x="482.25" y="420.198">isMobileDevice?</text><text fill="#000000" font-family="sarabun" font-size="11" lengthAdjust="spacing" textLength="90" x="380.25" y="413.048">ใช่ - Mobile/Tablet</text><text fill="#000000" font-family="sarabun" font-size="11" lengthAdjust="spacing" textLength="71" x="572.25" y="413.048">ไม่ใช่ - Desktop</text><path d="M411.25,437.6 L411.25,455.5 L391.25,459.5 L411.25,463.5 L411.25,481.4 A0,0 0 0 0 411.25,481.4 L604.25,481.4 A0,0 0 0 0 604.25,481.4 L604.25,447.6 L594.25,437.6 L411.25,437.6 A0,0 0 0 0 411.25,437.6 " fill="#FBFB77" filter="url(#f1wbst374vzqu8)" style="stroke:#A80036;stroke-width:1.0;"/><path d="M594.25,437.6 L594.25,447.6 L604.25,447.6 L594.25,437.6 " fill="#FBFB77" style="stroke:#A80036;stroke-width:1.0;"/><text fill="#000000" font-family="sarabun" font-size="13" lengthAdjust="spacing" textLength="172" x="417.25" y="456.484">Mobile/Tablet มี memory จำกัด</text><text fill="#000000" font-family="sarabun" font-size="13" lengthAdjust="spacing" textLength="159" x="417.25" y="473.384">การ Export อาจทำให้วิดีโอค้าง</text><rect fill="#FFFFFF" filter="url(#f1wbst374vzqu8)" height="35.6" rx="12.5" ry="12.5" style="stroke:#000000;stroke-width:1.5;" width="143" x="248.25" y="441.7"/><text fill="#000000" font-family="sarabun" font-size="12" lengthAdjust="spacing" textLength="123" x="258.25" y="464.516">ข้าม Export (ป้องกันค้าง)</text><rect fill="#FFFFFF" filter="url(#f1wbst374vzqu8)" height="35.6" rx="12.5" ry="12.5" style="stroke:#000000;stroke-width:1.5;" width="197" x="624.25" y="437.6"/><text fill="#000000" font-family="sarabun" font-size="12" lengthAdjust="spacing" textLength="177" x="634.25" y="460.416">รวบรวม Metadata และ Landmarks</text><rect fill="#FFFFFF" filter="url(#f1wbst374vzqu8)" height="35.6" rx="12.5" ry="12.5" style="stroke:#000000;stroke-width:1.5;" width="95" x="675.25" y="501.4"/><text fill="#000000" font-family="sarabun" font-size="12" lengthAdjust="spacing" textLength="75" x="685.25" y="524.216">สร้างไฟล์ JSON</text><rect fill="#FFFFFF" filter="url(#f1wbst374vzqu8)" height="35.6" rx="12.5" ry="12.5" style="stroke:#000000;stroke-width:1.5;" width="155" x="645.25" y="557"/><text fill="#000000" font-family="sarabun" font-size="12" lengthAdjust="spacing" textLength="135" x="655.25" y="579.816">ดาวน์โหลดไฟล์ลงเครื่องผู้ใช้</text><polygon fill="#FEFECE" filter="url(#f1wbst374vzqu8)" points="521.25,598.6,533.25,610.6,521.25,622.6,509.25,610.6,521.25,598.6" style="stroke:#A80036;stroke-width:1.5;"/><rect fill="#FFFFFF" filter="url(#f1wbst374vzqu8)" height="35.6" rx="12.5" ry="12.5" style="stroke:#000000;stroke-width:1.5;" width="258" x="392.25" y="654.6"/><text fill="#000000" font-family="sarabun" font-size="12" lengthAdjust="spacing" textLength="238" x="402.25" y="677.416">แสดง Popup สรุปผล (Score/Grade/Top Errors)</text><rect fill="#FFFFFF" filter="url(#f1wbst374vzqu8)" height="35.6" rx="12.5" ry="12.5" style="stroke:#000000;stroke-width:1.5;" width="94" x="268" y="710.2"/><text fill="#000000" font-family="sarabun" font-size="12" lengthAdjust="spacing" textLength="74" x="278" y="733.016">ผู้ใช้กดปุ่ม "ปิด"</text><rect fill="#FFFFFF" filter="url(#f1wbst374vzqu8)" height="35.6" rx="12.5" ry="12.5" style="stroke:#000000;stroke-width:1.5;" width="137" x="246.5" y="765.8"/><text fill="#000000" font-family="sarabun" font-size="12" lengthAdjust="spacing" textLength="117" x="256.5" y="788.616">รีเซ็ตระบบสู่หน้าจอหลัก</text><ellipse cx="315" cy="832.4" fill="#FFFFFF" filter="url(#f1wbst374vzqu8)" rx="11" ry="11" style="stroke:#000000;stroke-width:1.0;"/><ellipse cx="315" cy="832.4" fill="#000000" rx="6" ry="6" style="stroke:#7F7F7F;stroke-width:1.0;"/><line style="stroke:#000000;stroke-width:1.5;" x1="315" x2="315" y1="30" y2="50"/><polygon fill="#000000" points="311,40,315,50,319,40,315,44" style="stroke:#000000;stroke-width:1.0;"/><line style="stroke:#000000;stroke-width:1.5;" x1="110.5" x2="110.5" y1="175.2" y2="210.2"/><polygon fill="#000000" points="106.5,200.2,110.5,210.2,114.5,200.2,110.5,204.2" style="stroke:#000000;stroke-width:1.0;"/><line style="stroke:#000000;stroke-width:1.5;" x1="521.25" x2="521.25" y1="217.5" y2="252.2"/><polygon fill="#000000" points="517.25,242.2,521.25,252.2,525.25,242.2,521.25,246.2" style="stroke:#000000;stroke-width:1.0;"/><line style="stroke:#000000;stroke-width:1.5;" x1="521.25" x2="521.25" y1="287.8" y2="307.8"/><polygon fill="#000000" points="517.25,297.8,521.25,307.8,525.25,297.8,521.25,301.8" style="stroke:#000000;stroke-width:1.0;"/><line style="stroke:#000000;stroke-width:1.5;" x1="722.75" x2="722.75" y1="473.2" y2="501.4"/><polygon fill="#000000" points="718.75,491.4,722.75,501.4,726.75,491.4,722.75,495.4" style="stroke:#000000;stroke-width:1.0;"/><line style="stroke:#000000;stroke-width:1.5;" x1="722.75" x2="722.75" y1="537" y2="557"/><polygon fill="#000000" points="718.75,547,722.75,557,726.75,547,722.75,551" style="stroke:#000000;stroke-width:1.0;"/><line style="stroke:#000000;stroke-width:1.5;" x1="470.25" x2="319.75" y1="415.6" y2="415.6"/><line style="stroke:#000000;stroke-width:1.5;" x1="319.75" x2="319.75" y1="415.6" y2="441.7"/><polygon fill="#000000" points="315.75,431.7,319.75,441.7,323.75,431.7,319.75,435.7" style="stroke:#000000;stroke-width:1.0;"/><line style="stroke:#000000;stroke-width:1.5;" x1="572.25" x2="722.75" y1="415.6" y2="415.6"/><line style="stroke:#000000;stroke-width:1.5;" x1="722.75" x2="722.75" y1="415.6" y2="437.6"/><polygon fill="#000000" points="718.75,427.6,722.75,437.6,726.75,427.6,722.75,431.6" style="stroke:#000000;stroke-width:1.0;"/><line style="stroke:#000000;stroke-width:1.5;" x1="319.75" x2="319.75" y1="477.3" y2="610.6"/><line style="stroke:#000000;stroke-width:1.5;" x1="319.75" x2="509.25" y1="610.6" y2="610.6"/><polygon fill="#000000" points="499.25,606.6,509.25,610.6,499.25,614.6,503.25,610.6" style="stroke:#000000;stroke-width:1.0;"/><line style="stroke:#000000;stroke-width:1.5;" x1="722.75" x2="722.75" y1="592.6" y2="610.6"/><line style="stroke:#000000;stroke-width:1.5;" x1="722.75" x2="533.25" y1="610.6" y2="610.6"/><polygon fill="#000000" points="543.25,606.6,533.25,610.6,543.25,614.6,539.25,610.6" style="stroke:#000000;stroke-width:1.0;"/><line style="stroke:#000000;stroke-width:1.5;" x1="521.25" x2="521.25" y1="343.4" y2="403.6"/><polygon fill="#000000" points="517.25,393.6,521.25,403.6,525.25,393.6,521.25,397.6" style="stroke:#000000;stroke-width:1.0;"/><line style="stroke:#000000;stroke-width:1.5;" x1="521.25" x2="521.25" y1="622.6" y2="654.6"/><polygon fill="#000000" points="517.25,644.6,521.25,654.6,525.25,644.6,521.25,648.6" style="stroke:#000000;stroke-width:1.0;"/><line style="stroke:#000000;stroke-width:1.5;" x1="262.5" x2="110.5" y1="117.6" y2="117.6"/><line style="stroke:#000000;stroke-width:1.5;" x1="110.5" x2="110.5" y1="117.6" y2="139.6"/><polygon fill="#000000" points="106.5,129.6,110.5,139.6,114.5,129.6,110.5,133.6" style="stroke:#000000;stroke-width:1.0;"/><line style="stroke:#000000;stroke-width:1.5;" x1="367.5" x2="521.25" y1="117.6" y2="117.6"/><line style="stroke:#000000;stroke-width:1.5;" x1="521.25" x2="521.25" y1="117.6" y2="181.9"/><polygon fill="#000000" points="517.25,171.9,521.25,181.9,525.25,171.9,521.25,175.9" style="stroke:#000000;stroke-width:1.0;"/><line style="stroke:#000000;stroke-width:1.5;" x1="521.25" x2="521.25" y1="690.2" y2="695.2"/><line style="stroke:#000000;stroke-width:1.5;" x1="521.25" x2="315" y1="695.2" y2="695.2"/><line style="stroke:#000000;stroke-width:1.5;" x1="315" x2="315" y1="695.2" y2="710.2"/><polygon fill="#000000" points="311,700.2,315,710.2,319,700.2,315,704.2" style="stroke:#000000;stroke-width:1.0;"/><line style="stroke:#000000;stroke-width:1.5;" x1="315" x2="315" y1="85.6" y2="105.6"/><polygon fill="#000000" points="311,95.6,315,105.6,319,95.6,315,99.6" style="stroke:#000000;stroke-width:1.0;"/><line style="stroke:#000000;stroke-width:1.5;" x1="315" x2="315" y1="745.8" y2="765.8"/><polygon fill="#000000" points="311,755.8,315,765.8,319,755.8,315,759.8" style="stroke:#000000;stroke-width:1.0;"/><line style="stroke:#000000;stroke-width:1.5;" x1="315" x2="315" y1="801.4" y2="821.4"/><polygon fill="#000000" points="311,811.4,315,821.4,319,811.4,315,815.4" style="stroke:#000000;stroke-width:1.0;"/><!--MD5=[e380d17861854151531e69115a613b88]
@startuml TaijiFlow_Activity_Diagram_UC03
skinparam defaultFontName "sarabun"
skinparam activity {
    BackgroundColor White
    BorderColor Black
    ArrowColor Black
}

start
:รับข้อมูล Session Data จาก UC-02;

if (จำนวนเฟรม > 0 ?) then (ไม่ใช่)
    :แสดงแจ้งเตือน "ไม่มีข้อมูลการบันทึก";
    stop
else (ใช่)
    partition "Scoring Process" {
        :คำนวณคะแนน (Simple Ratio);
        note right
            Score = (CorrectFrames / TotalFrames) × 100
            Grade: A(≥85), B(≥70), C(≥55), D(≥40), F(<40)
        end note
        :แปลงคะแนนเป็นเกรด (Grading);
        :จัดลำดับข้อผิดพลาด (Ranking Errors);
    }

    partition "Data Export (Optional)" {
        if (isMobileDevice?) then (ใช่ - Mobile/Tablet)
            :ข้าม Export (ป้องกันค้าง);
            note right
                Mobile/Tablet มี memory จำกัด
                การ Export อาจทำให้วิดีโอค้าง
            end note
        else (ไม่ใช่ - Desktop)
            :รวบรวม Metadata และ Landmarks;
            :สร้างไฟล์ JSON;
            :ดาวน์โหลดไฟล์ลงเครื่องผู้ใช้;
        endif
    }

    :แสดง Popup สรุปผล (Score/Grade/Top Errors);
endif

:ผู้ใช้กดปุ่ม "ปิด";
:รีเซ็ตระบบสู่หน้าจอหลัก;

stop
@enduml

PlantUML version 1.2021.00(Sun Jan 10 17:25:05 ICT 2021)
(MIT source distribution)
Java Runtime: OpenJDK Runtime Environment
JVM: OpenJDK 64-Bit Server VM
Default Encoding: UTF-8
Language: en
Country: US
--></g></svg>